<svg xmlns="http://www.w3.org/2000/svg" xmlns:xlink="http://www.w3.org/1999/xlink" version="1.1" x="0px" y="0px" viewBox="0 0 32 40" enable-background="new 0 0 32 32" xml:space="preserve"><g><path d="M11.5413208,4.1702881C11.5092773,4.149353,7.4472656,2.1054688,7.4472656,2.1054688   c-0.28125-0.140625-0.6132813-0.140625-0.8945313,0c0,0-4.0620117,2.0438843-4.0940552,2.0648193L7,6.440918L11.5413208,4.1702881z   "/><path d="M2.5527344,10.8945313L6.5,13V7.309082l-4.5-2.25V10C2,10.3789063,2.2138672,10.7250977,2.5527344,10.8945313z"/><path d="M29.5413208,4.1702881c-0.0320435-0.0209351-4.0940552-2.0648193-4.0940552-2.0648193   c-0.28125-0.140625-0.6132813-0.140625-0.8945313,0c0,0-4.0620117,2.0438843-4.0940552,2.0648193L25,6.440918L29.5413208,4.1702881   z"/><path d="M25.5,7.309082V13l3.9472656-2.1054688C29.7861328,10.7250977,30,10.3789063,30,10V5.059082L25.5,7.309082z"/><path d="M14,20h-3.999939c-0.3343506,0-0.6466064,0.1671143-0.8320923,0.4453125L7.4648438,23H14V20z"/><path d="M25,27v-7c0-0.5523071-0.4476929-1-1-1h-8c-0.5523071,0-1,0.4476929-1,1v6h-1v-2H7v3c0,0.5523071,0.4476929,1,1,1h1   c0,1.1030273,0.8969727,2,2,2s2-0.8969727,2-2h6c0,1.1030273,0.8969727,2,2,2s2-0.8969727,2-2h1C24.5523071,28,25,27.5523071,25,27   z M11,29c-0.5512695,0-1-0.4487305-1-1s0.4487305-1,1-1s1,0.4487305,1,1S11.5512695,29,11,29z M21,29c-0.5512695,0-1-0.4487305-1-1   s0.4487305-1,1-1s1,0.4487305,1,1S21.5512695,29,21,29z"/><path d="M29.4190063,17.0915527l-7.5923462-3.5041504l1.3129883-1.3129883L24.5,13V7.309082l-4.5-2.25V7h-8V5.059082l-4.5,2.25V13   l1.3603516-0.7255859l1.3130493,1.3130493l-7.5922852,3.5040894c-0.4267578,0.1972656-0.6586914,0.6640625-0.5576172,1.1225586   c0.1005859,0.4589844,0.5068359,0.7856445,0.9765625,0.7856445h2v10c0,0.5522461,0.4477539,1,1,1h2.7764893   C8.5155029,29.7098999,8.303894,29.3747559,8.1708984,29H8c-1.1025391,0-2-0.8969727-2-2v-3.6050415l2.3359375-3.5043335   C8.7080078,19.3330078,9.3300781,19,10,19h4.2781982C14.6252441,18.4050903,15.2632446,18,16,18h8c1.1025391,0,2,0.8969727,2,2v7   c0,1.1030273-0.8974609,2-2,2h-0.1708984c-0.1329956,0.3747559-0.3446045,0.7098999-0.6056519,0.9997559h2.7766113   c0.5527344,0,1-0.4477539,1-1v-10h2c0.4697266,0,0.8759766-0.3266602,0.9765625-0.7856445   C30.0772095,17.7556152,29.8457642,17.2888184,29.4190063,17.0915527z M15.5811157,11.0915527l-3.4727173,1.6027832   l-1.4036865-1.4036865l0.7425537-0.3961182C11.7861328,10.7250977,12,10.3789063,12,10V9h8v1   c0,0.3789063,0.2138672,0.7250977,0.5527344,0.8945313l0.7425537,0.3961182l-1.4036255,1.4036255l-3.4726563-1.6027222   C16.1533813,10.9694824,15.8467407,10.9694824,15.5811157,11.0915527z"/></g><text x="0" y="47" fill="#000000" font-size="5px" font-weight="bold" font-family="'Helvetica Neue', Helvetica, Arial-Unicode, Arial, Sans-serif">Created by M. Oki Orlando</text><text x="0" y="52" fill="#000000" font-size="5px" font-weight="bold" font-family="'Helvetica Neue', Helvetica, Arial-Unicode, Arial, Sans-serif">from the Noun Project</text></svg>