<?xml version="1.0" encoding="utf-8"?>
<!-- Svg Vector Icons : http://www.onlinewebfonts.com/icon -->
<!DOCTYPE svg PUBLIC "-//W3C//DTD SVG 1.1//EN" "http://www.w3.org/Graphics/SVG/1.1/DTD/svg11.dtd">
<svg version="1.1" xmlns="http://www.w3.org/2000/svg" xmlns:xlink="http://www.w3.org/1999/xlink" x="0px" y="0px" viewBox="0 0 256 256" enable-background="new 0 0 256 256" xml:space="preserve">
<metadata> Svg Vector Icons : http://www.onlinewebfonts.com/icon </metadata>
<g><g><path fill="#000000" d="M162.2,59.4c11.1,7.3,22.2,14.6,33.7,22.1c-3.4,3.7-6.2,7-9.3,9.9c-1.4,1.3-3.6,2.1-5.5,2.2c-4,0.1-8-0.8-12-0.4c-1.9,0.2-3.6,2.3-5.4,3.5c1.1,1.2,9.8,6.7,12.7,8.8c2.1,1.5,4,3.7,5.2,5.9c2.2,4.4,5.7,13.5,5.7,13.5s6.1-2.7,6-6.9c-0.1-3.5,0.2-7.1,0.6-10.6c0.1-1.3,0.5-2.9,1.4-3.6c3.8-3.1,7.8-5.9,12.1-9.1c1,1.7,1.9,2.9,2.6,4.2c4.6,9.2,9.1,18.5,13.9,27.6c0.8,1.5,2.2,3.4,3.6,3.7c3,0.5,6.9-4,6.5-7.2c-1.6-13.4-3.3-26.8-5.1-40.3c-0.5-3.6-0.2-6.4,2.8-9c16.3-14,20.9-31,2.9-22.8c-5.5,2.5-10.7,5.9-15.7,9.5c-2.5,1.8-4.6,2.3-7.6,1.6c-12.4-3.2-24.9-6.1-37.4-9.2C166.1,50.9,165.1,51.4,162.2,59.4L162.2,59.4z M170.8,134.7c1-0.7,1.7-2.3,2-3.1c4.6-10.7-11.6-27.2-21.2-20.9c-16.4,14.5-31.2,29.1-50,39.5c-34.8,19.2-72.2,23.8-71,23.8c-8.2,0.5-10.3-4.9-3.6-9.8c6.9-5-14.6,2.4-17,13.6c-0.2,2.4,1.5,13.5,27.4,11.8c15.4-1.4,39.3-5.2,53.8-10.4C122.6,168.2,142.2,157.5,170.8,134.7L170.8,134.7z M145.2,17.5C145.5,17.5,145.5,17.5,145.2,17.5L145.2,17.5L145.2,17.5z M143.9,17.3c0.3,0,0.6,0.1,0.9,0.1c0.1,0,0.3,0,0.4,0C145,17.4,144.6,17.4,143.9,17.3L143.9,17.3z M235,133.3c-2.3,0.3-4.4,0.4-6.1,7.2c-0.7,2.9-1,5.1-5.2,13c-4.2,4.8-7.3,6.3-14,4.1c-24.1-20.7-49.6-3-37.2,24.8c11.5,25.5-23.1,37.5-26.4,9.8c4.1-37.4-32-27.3-40.5-6.9c-9.7,17-14,25.5-28.5,19.2c-5.7-3.8-11.1-8.2-15.8-13.2c-5.3,1.3-11.1,2-17.3,2c-0.8,0-1.6,0-2.4,0c2.3,3.2,9.2,11.7,12.1,14.1c20,19.8,47.4,32,77.7,32c48.1,0,89.1-30.9,104.4-74h0c2.4-6.6,4.2-13.5,5.4-20.7l1.2-8C242.2,136.8,240.2,132.5,235,133.3L235,133.3z M32.9,159.7c9.3,0.1,6.3-15.5,7-21.5c2.6-18.9,16.9-40.4,45.5-22.9c-2.4-1.3,12.8,10.9,26.9,7.5c14.5-3.5,22.9-15.4,22.4-42.2c0.1-21.6,22.3-35.9,34.2-34.2c0,0,12.1,1.2,13.1-9.1c0.7-7-2.5-9.8-2.5-9.8c-3.3-1.6-10-7.2-34.5-10.1c-2-0.2-8.7-0.8-13.6-0.8c-0.1,0-0.1,0-0.2,0c-61.5,0-111.3,49.7-111.3,111C19.7,144.3,20.8,159.5,32.9,159.7L32.9,159.7z"/></g></g>
</svg>