<svg xmlns="http://www.w3.org/2000/svg" data-name="Layer 3" viewBox="0 0 128 160" x="0px" y="0px"><path d="M49.22,76.82h25.08l2.16-38.98c.1-1.79-1.32-3.28-3.09-3.28H24.7c-1.64,0-3,1.29-3.09,2.94l-.14,2.54h19.49c1.98,0,1.98,3,0,3H21.3l-.56,10.03h1.15c1.98,0,1.98,3,0,3h-1.31l-.36,6.44h15.31c1.98,0,1.98,3,0,3h-15.48l-.63,11.32h7.42c5.52-8.42,17.69-8.42,22.37,0Z"/><path d="M85.23,76.82c5.48-8.36,17.66-8.48,22.37,0h7.49l.22-3.92h-2.51c-2.5,0-4.48-2.11-4.34-4.6,.13-2.31,2.04-4.12,4.34-4.12h2.99l.14-2.5-9.56-1.95c-23.7,0-23.06,.23-23.72-.47-.64-.67-.45-.31,.27-13.29,.04-.79,.7-1.42,1.5-1.42h13.06l-1.79-3.33h-16.41l-1.97,35.59h7.93Z"/><path d="M112.8,69.9h2.68l.15-2.72h-2.83c-1.79,0-1.79,2.72,0,2.72Z"/><polygon points="85.32 56.73 104.01 56.73 99.08 47.56 85.83 47.56 85.32 56.73"/><path d="M25.37,79.82h-6.1l-.41,7.35h6.14c-.59-2.36-.49-4.88,.36-7.35Z"/><path d="M108.41,87.18h6.11l.41-7.35h-6.13c.58,2.37,.47,4.89-.39,7.35Z"/><path d="M50.02,87.18h33.37c-.59-2.36-.49-4.88,.36-7.35H50.41c.58,2.37,.47,4.89-.39,7.35Z"/><path d="M29.85,90.18c4.27,5.01,12.29,4.07,16.09-1.5,2.26-3.32,2.36-7.3,.69-10.35-3.18-5.82-11.2-6.43-15.97-1.5-3.62,3.73-4.11,9.49-.81,13.35Z"/><path d="M105.01,78.32c-3.18-5.82-11.2-6.43-15.97-1.5-6.25,6.45-2.2,16.62,6.41,16.62,7.76,0,13.21-8.46,9.56-15.12Z"/><path d="M12.91,43.03h5.39l.17-3h-5.55c-1.98,0-1.98,3,0,3Z"/><path d="M10.5,56.06h7.08l.17-3h-7.24c-1.98,0-1.98,3,0,3Z"/><path d="M14.22,65.5h2.83l.17-3h-2.99c-1.98,0-1.98,3,0,3Z"/><text x="0" y="143" fill="#000000" font-size="5px" font-weight="bold" font-family="'Helvetica Neue', Helvetica, Arial-Unicode, Arial, Sans-serif">Created by sfahru</text><text x="0" y="148" fill="#000000" font-size="5px" font-weight="bold" font-family="'Helvetica Neue', Helvetica, Arial-Unicode, Arial, Sans-serif">from the Noun Project</text></svg>