<svg xmlns="http://www.w3.org/2000/svg" xmlns:xlink="http://www.w3.org/1999/xlink" version="1.1" x="0px" y="0px" viewBox="0 0 66 82.5" style="enable-background:new 0 0 66 66;" xml:space="preserve"><g><g><path d="M66,34.9c0-1-0.3-1.9-0.8-2.7l-6.7-11.1c-1-1.6-2.7-2.5-4.5-2.5h-9.9v-0.9c0-0.6-0.4-1-1-1s-1,0.4-1,1v26.4H2V22.7    c0-0.6-0.4-1-1-1c-0.6,0-1,0.4-1,1c0,20.1,0,20.6,0,33.2c0,0.6,0.4,1,1,1h10.5c0,0.2,0,0.5,0,0.8c0,4.2,3.4,7.7,7.7,7.7    c4.2,0,7.7-3.4,7.7-7.7c0-0.3,0-0.5,0-0.8h17c0,0.2,0,0.5,0,0.8c0,4.2,3.4,7.7,7.7,7.7c4.2,0,7.7-3.4,7.7-7.7c0-0.3,0-0.5,0-0.8    H65c0.6,0,1-0.4,1-1C66,36.2,66,54.3,66,34.9z M54,20.6c1.1,0,2.2,0.6,2.8,1.6l6.7,11.1c0.3,0.5,0.5,1.1,0.5,1.7v9.2H44.1V20.6H54    z M19.2,63.3c-3.1,0-5.7-2.5-5.7-5.7c0-3.1,2.5-5.7,5.7-5.7s5.7,2.5,5.7,5.7C24.8,60.7,22.3,63.3,19.2,63.3z M51.5,63.3    c-3.1,0-5.7-2.5-5.7-5.7c0-3.1,2.5-5.7,5.7-5.7c3.1,0,5.7,2.5,5.7,5.7C57.2,60.7,54.6,63.3,51.5,63.3z M64,54.8h-5.3    c-1.1-2.9-3.9-4.9-7.2-4.9c-3.3,0-6.1,2-7.2,4.9h-18c-1.1-2.9-3.9-4.9-7.2-4.9s-6.1,2-7.2,4.9H2v-8.7h62V54.8z"/></g><g><path d="M48.8,35h10c0,0,0,0,0,0c0.6,0,1-0.4,1-1c0-0.3-0.1-0.5-0.3-0.7l-4.9-7.9c-0.5-0.8-1.4-1.3-2.3-1.3h-3.6c-0.6,0-1,0.4-1,1    V34C47.8,34.6,48.2,35,48.8,35z M49.8,26.1h2.6c0.2,0,0.5,0.1,0.6,0.3l4,6.5h-7.2V26.1z"/></g><g><path d="M5.2,42.3h8.8c0.6,0,1-0.4,1-1v-9.7c0-0.6-0.4-1-1-1H5.2c-0.6,0-1,0.4-1,1v9.7C4.2,41.9,4.7,42.3,5.2,42.3z M6.2,32.6h6.8    v7.7H6.2V32.6z"/></g><g><path d="M17.6,42.3h8.8c0.6,0,1-0.4,1-1v-9.7c0-0.6-0.4-1-1-1h-8.8c-0.6,0-1,0.4-1,1v9.7C16.6,41.9,17.1,42.3,17.6,42.3z     M18.6,32.6h6.8v7.7h-6.8V32.6z"/></g><g><path d="M30.1,42.3h8.8c0.6,0,1-0.4,1-1v-9.7c0-0.6-0.4-1-1-1h-8.8c-0.6,0-1,0.4-1,1v9.7C29.1,41.9,29.5,42.3,30.1,42.3z     M31.1,32.6h6.8v7.7h-6.8V32.6z"/></g><g><path d="M5.2,27.4h8.8c0.6,0,1-0.4,1-1v-9.7c0-0.6-0.4-1-1-1H5.2c-0.6,0-1,0.4-1,1v9.7C4.2,27,4.7,27.4,5.2,27.4z M6.2,17.7h6.8    v7.7H6.2V17.7z"/></g><g><path d="M17.6,27.4h8.8c0.6,0,1-0.4,1-1v-9.7c0-0.6-0.4-1-1-1h-8.8c-0.6,0-1,0.4-1,1v9.7C16.6,27,17.1,27.4,17.6,27.4z M18.6,17.7    h6.8v7.7h-6.8V17.7z"/></g><g><path d="M30.1,27.4h8.8c0.6,0,1-0.4,1-1v-9.7c0-0.6-0.4-1-1-1h-8.8c-0.6,0-1,0.4-1,1v9.7C29.1,27,29.5,27.4,30.1,27.4z M31.1,17.7    h6.8v7.7h-6.8V17.7z"/></g><g><path d="M5.2,12.4h8.8c0.6,0,1-0.4,1-1V1.7c0-0.6-0.4-1-1-1H5.2c-0.6,0-1,0.4-1,1v9.7C4.2,12,4.7,12.4,5.2,12.4z M6.2,2.7h6.8v7.7    H6.2V2.7z"/></g><g><path d="M17.6,12.4h8.8c0.6,0,1-0.4,1-1V1.7c0-0.6-0.4-1-1-1h-8.8c-0.6,0-1,0.4-1,1v9.7C16.6,12,17.1,12.4,17.6,12.4z M18.6,2.7    h6.8v7.7h-6.8V2.7z"/></g><g><path d="M30.1,12.4h8.8c0.6,0,1-0.4,1-1V1.7c0-0.6-0.4-1-1-1h-8.8c-0.6,0-1,0.4-1,1v9.7C29.1,12,29.5,12.4,30.1,12.4z M31.1,2.7    h6.8v7.7h-6.8V2.7z"/></g></g><text x="0" y="81" fill="#000000" font-size="5px" font-weight="bold" font-family="'Helvetica Neue', Helvetica, Arial-Unicode, Arial, Sans-serif">Created by Vectors Market</text><text x="0" y="86" fill="#000000" font-size="5px" font-weight="bold" font-family="'Helvetica Neue', Helvetica, Arial-Unicode, Arial, Sans-serif">from the Noun Project</text></svg>