<svg width="250" height="91" viewBox="0 0 250 91" fill="none" xmlns="http://www.w3.org/2000/svg">
<path d="M77.2131 63.3H152.606V69.5299H77.2131V63.3Z" fill="#323232"/>
<path d="M77.2129 70.1622H152.607C152.774 70.1621 152.934 70.0954 153.052 69.9769C153.17 69.8583 153.236 69.6975 153.236 69.5298V63.2997C153.236 63.132 153.17 62.9712 153.052 62.8526C152.934 62.7341 152.774 62.6674 152.607 62.6673H77.2129C77.046 62.6674 76.886 62.7341 76.768 62.8526C76.65 62.9712 76.5837 63.132 76.5836 63.2997V69.5298C76.5837 69.6975 76.65 69.8583 76.768 69.9769C76.886 70.0954 77.046 70.1621 77.2129 70.1622ZM151.977 68.8974H77.8422V63.9321H151.977V68.8974Z" fill="#323232"/>
<path d="M41.1484 69.5309H10.5934L8.22206 75.3413H4.9244V63.3005H41.1484V69.5309Z" fill="#323232"/>
<path d="M4.92387 75.9724H8.22046C8.34539 75.9723 8.4675 75.935 8.57125 75.8651C8.675 75.7951 8.7557 75.6958 8.8031 75.5796L11.0156 70.1622H41.147C41.3139 70.1621 41.4739 70.0954 41.5919 69.9769C41.7099 69.8583 41.7763 69.6975 41.7764 69.5298V63.2997C41.7763 63.132 41.7099 62.9712 41.5919 62.8526C41.4739 62.7341 41.3139 62.6674 41.147 62.6673H4.92387C4.757 62.6674 4.59699 62.7341 4.479 62.8526C4.361 62.9712 4.29466 63.132 4.29454 63.2997V75.34C4.29466 75.5077 4.361 75.6684 4.479 75.787C4.59699 75.9056 4.757 75.9722 4.92387 75.9724ZM7.79763 74.7076H5.5532V63.9321H40.5177V68.8974H10.5927C10.4678 68.8974 10.3457 68.9348 10.2419 69.0047C10.1382 69.0746 10.0575 69.174 10.0101 69.2902L7.79763 74.7076Z" fill="#323232"/>
<path d="M41.1481 67.5971H80.2148V76.9813H41.1481V67.5971Z" fill="#323232"/>
<path d="M41.1472 77.6138H80.2147C80.3815 77.6137 80.5415 77.547 80.6595 77.4284C80.7775 77.3099 80.8439 77.1491 80.844 76.9814V67.5966C80.8439 67.4289 80.7775 67.2681 80.6595 67.1496C80.5415 67.031 80.3815 66.9643 80.2147 66.9642H41.1472C40.9803 66.9643 40.8203 67.031 40.7023 67.1496C40.5843 67.2681 40.518 67.4289 40.5179 67.5966V76.9814C40.518 77.1491 40.5843 77.3099 40.7023 77.4284C40.8203 77.547 40.9803 77.6137 41.1472 77.6138ZM79.5853 76.349H41.7765V68.229H79.5853L79.5853 76.349Z" fill="#323232"/>
<path d="M73.9114 67.5961L78.7924 76.9809H82.2512V62.0791H74.2084H81.0228H68.4514H49.1889H41.1487V76.9809H44.6074L49.486 67.5961H68.4514H73.9114Z" fill="#F3F9FB"/>
<path d="M41.1472 77.6145H44.606C44.721 77.6144 44.8338 77.5828 44.9322 77.5229C45.0305 77.463 45.1107 77.3772 45.1641 77.2748L49.8668 68.2298H73.5305L78.2333 77.2748C78.2866 77.3772 78.3668 77.463 78.4651 77.5229C78.5635 77.5828 78.6763 77.6144 78.7913 77.6145H82.2501C82.4169 77.6144 82.5769 77.5477 82.6949 77.4292C82.8129 77.3106 82.8793 77.1498 82.8794 76.9821V62.0788C82.8793 61.9111 82.8129 61.7503 82.6949 61.6317C82.5769 61.5132 82.4169 61.4465 82.2501 61.4464H41.1472C40.9804 61.4465 40.8204 61.5132 40.7024 61.6317C40.5844 61.7503 40.518 61.9111 40.5179 62.0788V76.9821C40.518 77.1498 40.5844 77.3106 40.7024 77.4292C40.8204 77.5477 40.9804 77.6144 41.1472 77.6145ZM44.225 76.3497H41.7766V62.7112H81.6208V76.3497H79.1723L74.4696 67.3047C74.4163 67.2023 74.3361 67.1165 74.2377 67.0567C74.1394 66.9968 74.0266 66.9651 73.9116 66.965H49.4859C49.3709 66.9651 49.2582 66.9968 49.1598 67.0567C49.0614 67.1165 48.9812 67.2023 48.9279 67.3047L44.225 76.3497Z" fill="#323232"/>
<path d="M60.9126 90.5899C53.7331 90.5899 47.913 84.7414 47.913 77.5269C47.913 70.3124 53.7331 64.464 60.9126 64.464C68.092 64.464 73.9121 70.3124 73.9121 77.5269C73.9121 84.7414 68.092 90.5899 60.9126 90.5899Z" fill="#323232"/>
<path d="M60.9125 86.7774C55.8285 86.7774 51.7071 82.6359 51.7071 77.5271C51.7071 72.4183 55.8285 68.2767 60.9125 68.2767C65.9965 68.2767 70.1179 72.4183 70.1179 77.5271C70.1179 82.6359 65.9965 86.7774 60.9125 86.7774Z" fill="#323232"/>
<path d="M60.9124 84.5911C56.9751 84.5911 53.7833 81.4288 53.7833 77.5278C53.7833 73.6268 56.9751 70.4644 60.9124 70.4644C64.8497 70.4644 68.0415 73.6268 68.0415 77.5278C68.0415 81.4288 64.8497 84.5911 60.9124 84.5911Z" fill="#F3F9FB"/>
<path d="M166.072 1.51459H0.62886V63.2993H176.718V12.2126C176.718 9.37533 175.596 6.65424 173.6 4.64797C171.603 2.6417 168.895 1.51459 166.072 1.51459Z" fill="#F3F9FB"/>
<path d="M0.629318 63.9321H176.718C176.885 63.932 177.045 63.8653 177.163 63.7467C177.281 63.6282 177.347 63.4674 177.347 63.2997V12.2125C177.344 9.20855 176.154 6.32866 174.04 4.20463C171.926 2.0806 169.06 0.885861 166.071 0.882507H0.629318C0.462448 0.882621 0.302429 0.949285 0.184433 1.06786C0.0664368 1.18643 0.000106812 1.34722 -1.52588e-05 1.51491V63.2997C0.000106812 63.4674 0.0664368 63.6282 0.184433 63.7467C0.302429 63.8653 0.462448 63.932 0.629318 63.9321ZM176.089 62.6673H1.25864V2.1473H166.071C168.727 2.15022 171.273 3.21156 173.151 5.09849C175.029 6.98543 176.085 9.54386 176.089 12.2125V62.6673Z" fill="#323232"/>
<path d="M169.097 63.9311C169.264 63.931 169.424 63.8643 169.542 63.7457C169.66 63.6271 169.726 63.4664 169.727 63.2987V2.54155C169.727 2.37382 169.66 2.21297 169.542 2.09437C169.424 1.97578 169.264 1.90915 169.097 1.90915C168.93 1.90915 168.77 1.97578 168.652 2.09437C168.534 2.21297 168.468 2.37382 168.468 2.54155V63.2987C168.468 63.4664 168.534 63.6271 168.652 63.7457C168.77 63.8643 168.93 63.931 169.097 63.9311Z" fill="#323232"/>
<path d="M169.097 13.6641H176.718C176.885 13.6641 177.045 13.5974 177.163 13.4788C177.281 13.3602 177.347 13.1994 177.347 13.0317C177.347 12.8639 177.281 12.7031 177.163 12.5845C177.045 12.4659 176.885 12.3993 176.718 12.3993H169.097C168.93 12.3993 168.77 12.4659 168.652 12.5845C168.534 12.7031 168.468 12.8639 168.468 13.0317C168.468 13.1994 168.534 13.3602 168.652 13.4788C168.77 13.5974 168.93 13.6641 169.097 13.6641Z" fill="#323232"/>
<path d="M0.62944 56.6237H169.097C169.264 56.6237 169.424 56.5571 169.542 56.4385C169.66 56.3199 169.727 56.1591 169.727 55.9913C169.727 55.8236 169.66 55.6628 169.542 55.5442C169.424 55.4256 169.264 55.3589 169.097 55.3589H0.62944C0.46254 55.3589 0.302475 55.4256 0.184448 55.5442C0.0664368 55.6628 0.00012207 55.8236 0.00012207 55.9913C0.00012207 56.1591 0.0664368 56.3199 0.184448 56.4385C0.302475 56.5571 0.46254 56.6237 0.62944 56.6237Z" fill="#323232"/>
<path d="M182.641 26.3906H205.024C205.752 26.3906 206.456 26.6536 207.008 27.1315C207.56 27.6095 207.923 28.2707 208.03 28.9948L209.904 41.6221C209.992 42.2136 210.251 42.7663 210.648 43.2114C211.046 43.6566 211.564 43.9747 212.14 44.1264L242.924 52.2341C243.959 52.6242 244.85 53.3225 245.48 54.2354C246.109 55.1484 246.447 56.2327 246.447 57.3434V71.5243C246.447 72.9716 245.875 74.3597 244.856 75.3831C243.838 76.4065 242.456 76.9814 241.016 76.9814H181.613V27.4234C181.613 27.1495 181.721 26.8868 181.914 26.6931C182.107 26.4994 182.368 26.3906 182.641 26.3906Z" fill="#F3F9FB"/>
<path d="M181.612 77.6144H241.017C242.624 77.6124 244.164 76.97 245.3 75.8282C246.436 74.6864 247.075 73.1385 247.077 71.5239V57.343C247.073 56.1048 246.695 54.897 245.993 53.8792C245.291 52.8614 244.299 52.0816 243.146 51.6428L212.299 43.5155C211.843 43.3953 211.431 43.1429 211.116 42.7895C210.801 42.4362 210.596 41.9975 210.527 41.5281L208.651 28.9012C208.518 28.029 208.079 27.2333 207.414 26.6571C206.749 26.0809 205.901 25.762 205.023 25.7577H182.64C182.2 25.7582 181.779 25.9339 181.468 26.2463C181.158 26.5587 180.983 26.9823 180.983 27.4239V76.982C180.983 77.1497 181.05 77.3105 181.168 77.4291C181.286 77.5476 181.446 77.6143 181.612 77.6144ZM205.023 27.0226C205.602 27.0192 206.162 27.2265 206.6 27.6062C207.039 27.9858 207.325 28.5121 207.407 29.0878L209.283 41.7159C209.388 42.4299 209.7 43.097 210.18 43.6344C210.659 44.1717 211.285 44.5556 211.98 44.7383L242.765 52.8459C243.665 53.2008 244.437 53.8195 244.982 54.6217C245.526 55.4238 245.818 56.3721 245.818 57.3431V71.524C245.817 72.8032 245.311 74.0297 244.411 74.9344C243.511 75.8391 242.29 76.3481 241.017 76.3497H182.242V27.424C182.242 27.3178 182.284 27.216 182.358 27.1408C182.433 27.0655 182.534 27.0231 182.64 27.0226H205.023Z" fill="#323232"/>
<path d="M214.822 77.7944C214.988 77.7943 215.148 77.7277 215.266 77.6091C215.384 77.4905 215.451 77.3297 215.451 77.162V44.8321C215.451 44.6644 215.385 44.5035 215.267 44.3849C215.149 44.2663 214.989 44.1997 214.822 44.1997C214.655 44.1997 214.495 44.2663 214.377 44.3849C214.259 44.5035 214.192 44.6644 214.192 44.8321V77.162C214.192 77.3297 214.259 77.4905 214.377 77.6091C214.495 77.7277 214.655 77.7943 214.822 77.7944Z" fill="#323232"/>
<path d="M245.016 76.9808H234.921L229.174 68.2279H246.802C247.483 68.2279 248.137 68.4999 248.619 68.9841C249.101 69.4682 249.371 70.1249 249.371 70.8097V72.6043C249.371 73.179 249.259 73.7481 249.04 74.2791C248.821 74.8101 248.5 75.2926 248.096 75.699C247.691 76.1053 247.211 76.4277 246.683 76.6477C246.154 76.8676 245.588 76.9808 245.016 76.9808Z" fill="#323232"/>
<path d="M234.921 77.6137H245.017C246.338 77.6119 247.605 77.0834 248.539 76.1443C249.474 75.2051 249.999 73.9319 250 72.604V70.8094C249.999 69.9573 249.662 69.1404 249.062 68.5379C248.463 67.9354 247.65 67.5965 246.802 67.5954H229.173C229.06 67.5957 228.948 67.6268 228.851 67.6854C228.753 67.744 228.674 67.828 228.62 67.9284C228.566 68.0289 228.54 68.1421 228.545 68.2561C228.55 68.3701 228.585 68.4807 228.647 68.5762L234.395 77.3296C234.452 77.4169 234.53 77.4885 234.622 77.5381C234.714 77.5877 234.816 77.6136 234.921 77.6137ZM246.802 68.8602C247.316 68.8609 247.809 69.0664 248.173 69.4318C248.536 69.7972 248.741 70.2926 248.741 70.8093V72.604C248.74 73.5965 248.348 74.5482 247.65 75.2502C246.951 75.9523 246.005 76.3474 245.017 76.349H235.26L230.343 68.8602H246.802Z" fill="#323232"/>
<path d="M240.899 67.9575H246.843L246.362 64.2896L240.419 62.1243L240.899 67.9575Z" fill="#323232"/>
<path d="M240.899 68.5885H246.841C246.93 68.5886 247.019 68.5695 247.1 68.5324C247.182 68.4953 247.254 68.4411 247.313 68.3735C247.372 68.3057 247.416 68.2261 247.443 68.1398C247.469 68.0536 247.477 67.9628 247.465 67.8733L246.986 64.2062C246.971 64.0915 246.924 63.9832 246.852 63.8931C246.779 63.8029 246.684 63.7344 246.576 63.6949L240.631 61.5285C240.532 61.4919 240.426 61.4811 240.321 61.497C240.217 61.5129 240.118 61.555 240.034 61.6195C239.951 61.6839 239.884 61.7685 239.842 61.8655C239.799 61.9625 239.781 62.0688 239.791 62.1744L240.272 68.008C240.285 68.1662 240.357 68.3137 240.473 68.4212C240.589 68.5288 240.741 68.5885 240.899 68.5885ZM246.123 67.3238H241.479L241.125 63.0538L245.786 64.7523L246.123 67.3238Z" fill="#323232"/>
<path d="M185.146 45.9147L187.296 46.5901V51.8567H185.146V45.9147Z" fill="#323232"/>
<path d="M185.145 52.4895H187.296C187.463 52.4894 187.623 52.4227 187.741 52.3041C187.859 52.1856 187.925 52.0248 187.925 51.8571V46.5892C187.925 46.4543 187.882 46.3229 187.803 46.2143C187.723 46.1056 187.611 46.0254 187.483 45.9852L185.332 45.3095C185.238 45.2798 185.138 45.2728 185.04 45.2891C184.943 45.3055 184.851 45.3446 184.771 45.4035C184.692 45.4623 184.627 45.5392 184.583 45.6278C184.538 45.7164 184.515 45.8143 184.516 45.9135V51.8571C184.516 52.0248 184.582 52.1856 184.7 52.3041C184.818 52.4227 184.978 52.4894 185.145 52.4895ZM186.667 51.2247H185.774V46.7732L186.667 47.0536V51.2247Z" fill="#323232"/>
<path d="M204.399 32.2957L205.271 41.4318C205.319 41.9297 205.251 42.4319 205.074 42.8992C204.896 43.3666 204.614 43.7864 204.248 44.1259C203.883 44.4654 203.444 44.7154 202.966 44.8564C202.489 44.9974 201.985 45.0256 201.495 44.9388L188.218 42.5874C187.357 42.4349 186.577 41.9825 186.015 41.3095C185.453 40.6365 185.145 39.786 185.145 38.9074V33.8605C185.145 32.8694 185.537 31.919 186.234 31.2182C186.932 30.5174 187.878 30.1237 188.864 30.1237H202.02C202.614 30.1237 203.187 30.3462 203.627 30.7478C204.067 31.1494 204.342 31.7013 204.399 32.2957Z" fill="#F3F9FB"/>
<path d="M202.065 45.6222C202.603 45.6204 203.134 45.506 203.624 45.2863C204.115 45.0667 204.555 44.7466 204.916 44.3465C205.276 43.9464 205.55 43.4751 205.719 42.9627C205.888 42.4504 205.949 41.9082 205.898 41.3708L205.025 32.2344C204.955 31.4825 204.608 30.784 204.052 30.2763C203.496 29.7686 202.77 29.4885 202.019 29.4911H188.864C187.712 29.4925 186.606 29.9532 185.791 30.7721C184.976 31.5911 184.517 32.7015 184.516 33.8598V38.9066C184.514 39.9344 184.874 40.9296 185.532 41.7168C186.189 42.5041 187.102 43.0328 188.11 43.2099L201.387 45.5616C201.611 45.6019 201.838 45.6221 202.065 45.6222ZM203.772 32.3554L204.644 41.4918C204.682 41.8928 204.628 42.2972 204.485 42.6735C204.342 43.0498 204.115 43.3878 203.82 43.6612C203.526 43.9346 203.173 44.136 202.788 44.2497C202.404 44.3634 201.998 44.3863 201.603 44.3166L188.326 41.9649C187.611 41.8384 186.962 41.4624 186.496 40.903C186.029 40.3435 185.773 39.6366 185.774 38.9066V33.8598C185.775 33.0367 186.101 32.2476 186.681 31.6657C187.26 31.0838 188.045 30.7566 188.864 30.7559H202.019C202.457 30.7541 202.88 30.9173 203.204 31.2134C203.529 31.5094 203.731 31.9169 203.772 32.3554H203.772Z" fill="#323232"/>
<path d="M176.718 48.8859H181.613V70.464H176.718V48.8859Z" fill="#323232"/>
<path d="M176.718 71.0961H181.612C181.779 71.096 181.939 71.0293 182.057 70.9107C182.175 70.7922 182.242 70.6314 182.242 70.4637V48.8856C182.242 48.7179 182.175 48.5571 182.057 48.4385C181.939 48.32 181.779 48.2533 181.612 48.2532H176.718C176.551 48.2533 176.391 48.32 176.273 48.4385C176.155 48.5571 176.089 48.7179 176.089 48.8856V70.4637C176.089 70.6314 176.155 70.7922 176.273 70.9107C176.391 71.0293 176.551 71.096 176.718 71.0961ZM180.983 69.8313H177.347V49.518H180.983V69.8313Z" fill="#323232"/>
<path d="M152.606 63.3H181.613V76.9814H152.606V63.3Z" fill="#F3F9FB"/>
<path d="M152.607 77.6139H181.612C181.779 77.6138 181.939 77.5471 182.057 77.4285C182.175 77.31 182.242 77.1492 182.242 76.9815V63.2997C182.242 63.132 182.175 62.9712 182.057 62.8526C181.939 62.7341 181.779 62.6674 181.612 62.6673H152.607C152.44 62.6674 152.28 62.7341 152.162 62.8526C152.044 62.9712 151.978 63.132 151.977 63.2997V76.9815C151.978 77.1492 152.044 77.31 152.162 77.4285C152.28 77.5471 152.44 77.6138 152.607 77.6139ZM180.983 76.3491H153.236V63.9321H180.983V76.3491Z" fill="#323232"/>
<path d="M211.601 65.6725C211.768 65.6724 211.928 65.6057 212.046 65.4871C212.164 65.3685 212.231 65.2078 212.231 65.0401V43.8609C212.231 43.6932 212.164 43.5323 212.046 43.4137C211.928 43.2951 211.768 43.2285 211.601 43.2285C211.434 43.2285 211.274 43.2951 211.156 43.4137C211.038 43.5323 210.972 43.6932 210.972 43.8609V65.0401C210.972 65.2078 211.039 65.3685 211.157 65.4871C211.275 65.6057 211.435 65.6724 211.601 65.6725Z" fill="#323232"/>
<path d="M235.96 77.5277C235.96 73.1157 234.216 68.8843 231.111 65.7646C228.007 62.6448 223.796 60.8922 219.405 60.8922C215.015 60.8922 210.804 62.6448 207.7 65.7646C204.595 68.8843 202.851 73.1157 202.851 77.5277H235.96Z" fill="#323232"/>
<path d="M219.405 90.5899C212.226 90.5899 206.406 84.7414 206.406 77.5269C206.406 70.3124 212.226 64.464 219.405 64.464C226.585 64.464 232.405 70.3124 232.405 77.5269C232.405 84.7414 226.585 90.5899 219.405 90.5899Z" fill="#323232"/>
<path d="M219.405 86.7774C214.321 86.7774 210.2 82.6359 210.2 77.5271C210.2 72.4183 214.321 68.2767 219.405 68.2767C224.489 68.2767 228.611 72.4183 228.611 77.5271C228.611 82.6359 224.489 86.7774 219.405 86.7774Z" fill="#323232"/>
<path d="M219.406 84.0912C215.747 84.0912 212.781 81.1526 212.781 77.5276C212.781 73.9026 215.747 70.9639 219.406 70.9639C223.064 70.9639 226.03 73.9026 226.03 77.5276C226.03 81.1526 223.064 84.0912 219.406 84.0912Z" fill="#F3F9FB"/>
<path d="M203.065 35.0826H207.301C207.829 35.0826 208.257 35.5129 208.257 36.0436V47.9248C208.257 48.4555 207.829 48.8857 207.301 48.8857H203.065C202.537 48.8857 202.109 48.4555 202.109 47.9248V36.0436C202.109 35.5129 202.537 35.0826 203.065 35.0826Z" fill="#323232"/>
<path d="M203.066 49.5181H207.302C207.722 49.5176 208.125 49.3496 208.422 49.0509C208.72 48.7522 208.887 48.3472 208.887 47.9247V36.0438C208.887 35.6213 208.72 35.2163 208.422 34.9176C208.125 34.6188 207.722 34.4508 207.302 34.4504H203.066C202.646 34.4508 202.242 34.6188 201.945 34.9176C201.648 35.2163 201.481 35.6213 201.48 36.0438V47.9247C201.481 48.3472 201.648 48.7522 201.945 49.0509C202.242 49.3496 202.646 49.5176 203.066 49.5181ZM207.302 35.7152C207.388 35.7165 207.47 35.7515 207.531 35.8128C207.593 35.8742 207.627 35.957 207.629 36.0438V47.9247C207.627 48.0115 207.593 48.0943 207.531 48.1557C207.47 48.217 207.388 48.252 207.302 48.2533H203.066C202.98 48.252 202.897 48.217 202.836 48.1557C202.775 48.0943 202.74 48.0115 202.739 47.9247V36.0438C202.74 35.957 202.775 35.8742 202.836 35.8128C202.897 35.7515 202.98 35.7165 203.066 35.7152H207.302Z" fill="#323232"/>
<path d="M208.258 44.4933H211.601C211.768 44.4933 211.928 44.4267 212.046 44.3081C212.164 44.1895 212.231 44.0286 212.231 43.8609C212.231 43.6932 212.164 43.5323 212.046 43.4137C211.928 43.2951 211.768 43.2285 211.601 43.2285H208.258C208.091 43.2285 207.931 43.2951 207.813 43.4137C207.695 43.5323 207.629 43.6932 207.629 43.8609C207.629 44.0286 207.695 44.1895 207.813 44.3081C207.931 44.4267 208.091 44.4933 208.258 44.4933H208.258Z" fill="#323232"/>
<path d="M202.11 45.7753H208.258C208.425 45.7753 208.585 45.7087 208.703 45.5901C208.821 45.4715 208.887 45.3106 208.887 45.1429C208.887 44.9752 208.821 44.8143 208.703 44.6957C208.585 44.5771 208.425 44.5105 208.258 44.5105H202.11C201.943 44.5105 201.783 44.5771 201.665 44.6957C201.547 44.8143 201.48 44.9752 201.48 45.1429C201.48 45.3106 201.547 45.4715 201.665 45.5901C201.783 45.7087 201.943 45.7753 202.11 45.7753Z" fill="#323232"/>
<path d="M0.62944 38.6681H169.097C169.264 38.6681 169.424 38.6014 169.542 38.4828C169.66 38.3642 169.727 38.2034 169.727 38.0357C169.727 37.8679 169.66 37.7071 169.542 37.5885C169.424 37.4699 169.264 37.4033 169.097 37.4033H0.62944C0.46254 37.4033 0.302475 37.4699 0.184448 37.5885C0.0664368 37.7071 0.00012207 37.8679 0.00012207 38.0357C0.00012207 38.2034 0.0664368 38.3642 0.184448 38.4828C0.302475 38.6014 0.46254 38.6681 0.62944 38.6681Z" fill="#323232"/>
<path d="M202.11 77.6143C202.277 77.6142 202.437 77.5475 202.555 77.4289C202.673 77.3104 202.739 77.1496 202.739 76.9819V67.3823C202.739 67.2146 202.673 67.0538 202.555 66.9352C202.437 66.8167 202.277 66.75 202.11 66.7499H182.185C182.018 66.7499 181.858 66.8165 181.74 66.9351C181.622 67.0537 181.556 67.2146 181.556 67.3823C181.556 67.55 181.622 67.7109 181.74 67.8294C181.858 67.948 182.018 68.0147 182.185 68.0147H201.48V76.9819C201.48 77.1496 201.547 77.3104 201.665 77.4289C201.783 77.5475 201.943 77.6142 202.11 77.6143Z" fill="#323232"/>
<path d="M181.612 72.814H202.11C202.277 72.814 202.437 72.7474 202.555 72.6288C202.673 72.5102 202.739 72.3493 202.739 72.1816C202.739 72.0139 202.673 71.8531 202.555 71.7345C202.437 71.6159 202.277 71.5492 202.11 71.5492H181.612C181.445 71.5492 181.285 71.6159 181.167 71.7345C181.049 71.8531 180.983 72.0139 180.983 72.1816C180.983 72.3493 181.049 72.5102 181.167 72.6288C181.285 72.7474 181.445 72.814 181.612 72.814Z" fill="#323232"/>
</svg>
