<svg xmlns="http://www.w3.org/2000/svg" viewBox="0 0 100 125" fill="none" x="0px" y="0px"><path fill-rule="evenodd" clip-rule="evenodd" d="M13.9887 22.9887C14.6217 22.3556 15.4803 22 16.3755 22H62.0632C63.9275 22 65.4387 23.5113 65.4387 25.3755V35.5979H70.1211C71.0107 35.5979 71.8643 35.949 72.4963 36.575L86.9994 50.9381C87.6395 51.5721 87.9997 52.4355 87.9997 53.3364L88 62.9708C88 63.8661 87.6444 64.7247 87.0114 65.3577C86.3783 65.9908 85.5198 66.3464 84.6245 66.3464H84.1177C84.204 66.8984 84.2488 67.4641 84.2488 68.0402C84.2488 74.0472 79.3792 78.9169 73.3722 78.9169C67.3652 78.9169 62.4956 74.0472 62.4956 68.0402C62.4956 67.4641 62.5404 66.8984 62.6267 66.3464H41.9845C42.0708 66.8984 42.1156 67.4641 42.1156 68.0402C42.1156 74.0472 37.2459 78.9169 31.2389 78.9169C25.2319 78.9169 20.3623 74.0472 20.3623 68.0402C20.3623 67.4641 20.4071 66.8984 20.4934 66.3464H16.3758C14.5116 66.3464 13.0003 64.8352 13.0003 62.9709L13 25.3755C13 24.4803 13.3556 23.6217 13.9887 22.9887ZM81.2489 59.5954H80.2274C78.3566 58.0749 75.9708 57.1636 73.3722 57.1636C70.7736 57.1636 68.3878 58.0749 66.517 59.5954H65.4387V42.3489H68.7325L81.2487 54.7444L81.2489 59.5954ZM58.6877 59.5954L38.0941 59.5954C36.2233 58.0749 33.8376 57.1636 31.2389 57.1636C28.6403 57.1636 26.2545 58.0749 24.3838 59.5954H19.7513L19.7513 57.0335L47.9607 28.8222C47.9842 28.7988 48.0073 28.775 48.0299 28.751H58.6877V59.5954ZM27.1133 68.0402C27.1133 65.7617 28.9604 63.9146 31.2389 63.9146C33.5174 63.9146 35.3646 65.7617 35.3646 68.0402C35.3646 70.3187 33.5174 72.1658 31.2389 72.1658C28.9604 72.1658 27.1133 70.3187 27.1133 68.0402ZM69.2466 68.0402C69.2466 65.7617 71.0937 63.9146 73.3722 63.9146C75.6507 63.9146 77.4978 65.7617 77.4978 68.0402C77.4978 70.3187 75.6507 72.1658 73.3722 72.1658C71.0937 72.1658 69.2466 70.3187 69.2466 68.0402Z" fill="black"/><text x="0" y="115" fill="#000000" font-size="5px" font-weight="bold" font-family="'Helvetica Neue', Helvetica, Arial-Unicode, Arial, Sans-serif">Created by Skye Selbiger</text><text x="0" y="120" fill="#000000" font-size="5px" font-weight="bold" font-family="'Helvetica Neue', Helvetica, Arial-Unicode, Arial, Sans-serif">from the Noun Project</text></svg>