<svg width="382" height="91" viewBox="0 0 382 91" fill="none" xmlns="http://www.w3.org/2000/svg">
<path d="M9.68335 68.1835H74.8477V77.2201H9.68335V68.1835Z" fill="#323232"/>
<path d="M9.68296 77.861H74.8469C75.0113 77.8608 75.1689 77.7933 75.2851 77.6733C75.4013 77.5532 75.4667 77.3904 75.4668 77.2206V68.1835C75.4667 68.0137 75.4013 67.8509 75.2851 67.7308C75.1689 67.6108 75.0113 67.5433 74.8469 67.5432H9.68296C9.5186 67.5433 9.36101 67.6108 9.24478 67.7308C9.12856 67.8509 9.06322 68.0137 9.06311 68.1835V77.2206C9.06322 77.3904 9.12856 77.5532 9.24478 77.6733C9.36101 77.7933 9.5186 77.8608 9.68296 77.861ZM74.2271 76.5803H10.3028V68.8238H74.2271V76.5803Z" fill="#323232"/>
<path d="M192.666 67.6303H257.831V77.2201H192.666V67.6303Z" fill="#323232"/>
<path d="M192.667 77.861H257.831C257.995 77.8609 258.153 77.7934 258.269 77.6733C258.385 77.5533 258.451 77.3905 258.451 77.2207V67.6308C258.451 67.461 258.385 67.2982 258.269 67.1781C258.153 67.0581 257.995 66.9906 257.831 66.9904H192.667C192.502 66.9906 192.345 67.0581 192.229 67.1781C192.112 67.2982 192.047 67.461 192.047 67.6308V77.2207C192.047 77.3905 192.112 77.5533 192.229 77.6733C192.345 77.7934 192.502 77.8609 192.667 77.861ZM257.211 76.5804H193.287V68.2711H257.211V76.5804Z" fill="#323232"/>
<path d="M192.667 62.131H200.588H258.016V67.7172H200.881L196.073 77.2196H192.667V62.131Z" fill="#F3F9FB"/>
<path d="M192.667 77.8611H196.074C196.187 77.861 196.298 77.8289 196.395 77.7683C196.492 77.7077 196.571 77.6208 196.623 77.5172L201.255 68.3587H258.015C258.179 68.3586 258.337 68.2911 258.453 68.171C258.569 68.051 258.635 67.8882 258.635 67.7184V62.1305C258.635 61.9607 258.569 61.7979 258.453 61.6779C258.337 61.5578 258.179 61.4903 258.015 61.4902H192.667C192.503 61.4903 192.345 61.5578 192.229 61.6779C192.112 61.7979 192.047 61.9607 192.047 62.1305V77.2207C192.047 77.3905 192.112 77.5534 192.229 77.6734C192.345 77.7935 192.503 77.861 192.667 77.8611ZM195.698 76.5804H193.287V62.7709H257.395V67.0781H200.88C200.767 67.0781 200.655 67.1102 200.559 67.1709C200.462 67.2315 200.383 67.3183 200.33 67.422L195.698 76.5804Z" fill="#323232"/>
<path d="M48.9579 67.7172H68.6393L73.4468 77.2196H76.8535V62.131H68.9319H48.9579H36.5757H17.6034H9.6842V77.2196H13.0909L17.896 67.7172H36.5757H48.9579Z" fill="#F3F9FB"/>
<path d="M9.68258 77.8611H13.0892C13.2025 77.861 13.3136 77.8289 13.4105 77.7683C13.5074 77.7077 13.5864 77.6208 13.6389 77.5171L18.2708 68.3587H68.2631L72.895 77.5171C72.9475 77.6208 73.0265 77.7077 73.1234 77.7683C73.2203 77.8289 73.3314 77.861 73.4446 77.8611H76.8513C77.0157 77.8609 77.1733 77.7934 77.2895 77.6734C77.4057 77.5533 77.4711 77.3905 77.4712 77.2207V62.1305C77.4711 61.9607 77.4057 61.7979 77.2895 61.6779C77.1733 61.5578 77.0157 61.4903 76.8513 61.4902H9.6825C9.51814 61.4903 9.36054 61.5578 9.24432 61.6779C9.12811 61.7979 9.06277 61.9607 9.06265 62.1305V77.2207C9.06277 77.3905 9.12813 77.5534 9.24436 77.6734C9.3606 77.7935 9.5182 77.861 9.68258 77.8611ZM12.714 76.5804H10.3024V62.7708H76.2316V76.5804H73.82L69.1881 67.422C69.1355 67.3183 69.0565 67.2314 68.9597 67.1708C68.8628 67.1102 68.7517 67.0781 68.6384 67.078H17.8957C17.7824 67.0781 17.6713 67.1102 17.5744 67.1708C17.4775 67.2314 17.3986 67.3183 17.3461 67.422L12.714 76.5804Z" fill="#323232"/>
<path d="M124.149 61.9991C124.149 63.3505 124.669 64.6465 125.594 65.6021C126.519 66.5577 127.774 67.0945 129.082 67.0945C130.39 67.0945 131.644 66.5577 132.569 65.6021C133.494 64.6465 134.014 63.3505 134.014 61.9991" fill="#F3F9FB"/>
<path d="M129.081 67.7345C130.553 67.7327 131.964 67.1279 133.005 66.0526C134.046 64.9774 134.632 63.5197 134.633 61.9991C134.633 61.8293 134.568 61.6664 134.452 61.5463C134.336 61.4262 134.178 61.3588 134.013 61.3588C133.849 61.3588 133.691 61.4262 133.575 61.5463C133.459 61.6664 133.394 61.8293 133.394 61.9991C133.394 63.1806 132.939 64.3137 132.131 65.1491C131.322 65.9845 130.225 66.4539 129.081 66.4539C127.938 66.4539 126.841 65.9845 126.032 65.1491C125.223 64.3137 124.769 63.1806 124.769 61.9991C124.769 61.8293 124.704 61.6664 124.587 61.5463C124.471 61.4262 124.314 61.3588 124.149 61.3588C123.985 61.3588 123.827 61.4262 123.711 61.5463C123.595 61.6664 123.529 61.8293 123.529 61.9991C123.531 63.5197 124.117 64.9774 125.157 66.0526C126.198 67.1279 127.609 67.7327 129.081 67.7345Z" fill="#323232"/>
<path d="M111.132 61.9991C111.132 63.3505 111.652 64.6465 112.577 65.6021C113.502 66.5577 114.756 67.0945 116.065 67.0945C117.373 67.0945 118.627 66.5577 119.552 65.6021C120.477 64.6465 120.997 63.3505 120.997 61.9991" fill="#F3F9FB"/>
<path d="M116.064 67.7345C117.536 67.7327 118.947 67.1279 119.988 66.0526C121.029 64.9774 121.614 63.5197 121.616 61.9991C121.616 61.8293 121.551 61.6664 121.435 61.5463C121.318 61.4262 121.161 61.3588 120.996 61.3588C120.832 61.3588 120.674 61.4262 120.558 61.5463C120.442 61.6664 120.377 61.8293 120.377 61.9991C120.377 63.1806 119.922 64.3137 119.113 65.1491C118.305 65.9845 117.208 66.4539 116.064 66.4539C114.92 66.4539 113.824 65.9845 113.015 65.1491C112.206 64.3137 111.752 63.1806 111.752 61.9991C111.752 61.8293 111.687 61.6664 111.57 61.5463C111.454 61.4262 111.296 61.3588 111.132 61.3588C110.968 61.3588 110.81 61.4262 110.694 61.5463C110.577 61.6664 110.512 61.8293 110.512 61.9991C110.514 63.5197 111.099 64.9774 112.14 66.0526C113.181 67.1279 114.592 67.7327 116.064 67.7345Z" fill="#323232"/>
<path d="M377.453 68.4066L375.569 51.8205C375.492 51.1415 375.189 50.5111 374.712 50.0369C374.235 49.5628 373.614 49.2741 372.954 49.2202L337.394 46.3144L330.559 31.8991H257.351V77.2198H361.875L377.453 68.4066Z" fill="#F3F9FB"/>
<path d="M257.351 77.8609H361.874C361.978 77.8606 362.08 77.8335 362.171 77.7821L377.75 68.9688C377.858 68.9073 377.946 68.8138 378.002 68.7005C378.059 68.5871 378.081 68.4589 378.067 68.3322L376.183 51.7462C376.088 50.9206 375.719 50.1545 375.139 49.5778C374.559 49.0011 373.804 48.6493 373.002 48.5821L337.796 45.7058L331.116 31.6185C331.065 31.5108 330.986 31.42 330.887 31.3565C330.789 31.293 330.675 31.2594 330.559 31.2596H257.351C257.187 31.2597 257.029 31.3272 256.913 31.4473C256.797 31.5673 256.732 31.7301 256.732 31.8999V77.2206C256.732 77.3904 256.797 77.5532 256.913 77.6732C257.029 77.7933 257.187 77.8608 257.351 77.8609ZM361.714 76.5802H257.971V32.5402H330.172L336.837 46.5961C336.885 46.696 336.957 46.7815 337.046 46.844C337.135 46.9065 337.239 46.9439 337.346 46.9525L372.905 49.8578C373.421 49.902 373.907 50.1289 374.28 50.5003C374.654 50.8717 374.891 51.3648 374.953 51.8963L376.789 68.0534L361.714 76.5802Z" fill="#323232"/>
<path d="M337.644 32.7255H257.351V5.39847H293.239C297.095 5.39847 300.845 6.70766 303.91 9.12457L337.644 32.7255Z" fill="#F3F9FB"/>
<path d="M257.351 33.3661H337.644C337.776 33.3662 337.906 33.3223 338.012 33.2409C338.119 33.1595 338.198 33.0449 338.237 32.9139C338.276 32.7829 338.273 32.6425 338.229 32.5132C338.185 32.3839 338.102 32.2726 337.992 32.1956L304.259 8.59471C301.088 6.11076 297.219 4.76397 293.24 4.75899H257.351C257.187 4.7591 257.03 4.8266 256.913 4.94666C256.797 5.06672 256.732 5.22953 256.732 5.39932V32.7258C256.732 32.8956 256.797 33.0584 256.913 33.1784C257.03 33.2985 257.187 33.366 257.351 33.3661ZM335.624 32.0854H257.971V6.03957H293.24C296.959 6.04661 300.574 7.30875 303.535 9.63391L335.624 32.0854Z" fill="#323232"/>
<path d="M328.843 32.7767H312.454L318.23 42.9024C319.005 44.2608 320.11 45.3868 321.435 46.1691C322.76 46.9514 324.26 47.3629 325.786 47.3629L337.394 46.3148L330.559 32.7254L328.843 32.7767Z" fill="#F3F9FB"/>
<path d="M325.787 48.0036L337.448 46.9529C337.549 46.9437 337.647 46.9087 337.732 46.8511C337.818 46.7935 337.888 46.7151 337.937 46.6227C337.987 46.5309 338.014 46.4276 338.015 46.3223C338.016 46.217 337.992 46.113 337.944 46.0199L331.109 32.4305C331.061 32.3196 330.98 32.2268 330.879 32.165C330.777 32.1032 330.66 32.0754 330.542 32.0853L328.833 32.1365H312.453C312.344 32.1368 312.237 32.1668 312.142 32.2235C312.048 32.2802 311.969 32.3616 311.915 32.4595C311.861 32.5574 311.833 32.6684 311.833 32.7812C311.834 32.894 311.863 33.0047 311.918 33.1021L317.695 43.2273C318.528 44.6794 319.711 45.8831 321.13 46.7204C322.548 47.5577 324.153 47.9998 325.787 48.0036ZM336.416 45.7612L325.734 46.7254C324.324 46.714 322.942 46.3259 321.721 45.599C320.5 44.872 319.481 43.8309 318.765 42.577L313.538 33.4173H328.86L330.189 33.3773L336.416 45.7612Z" fill="#323232"/>
<path d="M336.969 77.7596C337.133 77.7595 337.29 77.692 337.407 77.572C337.523 77.4519 337.588 77.2891 337.588 77.1193V47.1402C337.588 46.9704 337.523 46.8075 337.407 46.6874C337.291 46.5673 337.133 46.4999 336.969 46.4999C336.804 46.4999 336.646 46.5673 336.53 46.6874C336.414 46.8075 336.349 46.9704 336.349 47.1402V77.1193C336.349 77.2891 336.414 77.4519 336.53 77.572C336.647 77.692 336.804 77.7595 336.969 77.7596Z" fill="#323232"/>
<path d="M312.005 77.7597C312.169 77.7596 312.327 77.6921 312.443 77.572C312.559 77.452 312.624 77.2892 312.625 77.1194V32.7254C312.625 32.5555 312.559 32.3927 312.443 32.2726C312.327 32.1525 312.169 32.085 312.005 32.085C311.84 32.085 311.683 32.1525 311.566 32.2726C311.45 32.3927 311.385 32.5555 311.385 32.7254V77.1194C311.385 77.2892 311.45 77.452 311.566 77.572C311.683 77.6921 311.84 77.7596 312.005 77.7597Z" fill="#323232"/>
<path d="M0.620987 0.639055H237.753V57.7462H0.620987V0.639055Z" fill="#F3F9FB"/>
<path d="M0.619858 58.3874H237.754C237.918 58.3873 238.076 58.3198 238.192 58.1998C238.308 58.0797 238.373 57.9169 238.374 57.7471V0.640328C238.373 0.470538 238.308 0.307735 238.192 0.187675C238.076 0.0676154 237.918 0.00011534 237.754 0H0.619858C0.45549 0.00011534 0.297897 0.0676154 0.181686 0.187675C0.0654602 0.307735 0.00012207 0.470538 1.52588e-05 0.640328V57.7471C0.00012207 57.9169 0.0654602 58.0797 0.181686 58.1998C0.297897 58.3198 0.45549 58.3873 0.619858 58.3874ZM237.134 57.1068H1.23972V1.28066H237.134V57.1068Z" fill="#323232"/>
<path d="M178.462 57.7486L167.52 62.131H0.62175V57.7486H178.462Z" fill="#323232"/>
<path d="M0.620041 62.7707H167.522C167.599 62.7706 167.675 62.7558 167.747 62.7269L178.689 58.3434C178.824 58.2894 178.936 58.1883 179.006 58.0577C179.077 57.9271 179.101 57.7752 179.074 57.6284C179.047 57.4815 178.971 57.349 178.86 57.2537C178.749 57.1584 178.608 57.1063 178.464 57.1066H79.6453H0.620041C0.455673 57.1067 0.298065 57.1742 0.181839 57.2942C0.0656281 57.4143 0.000274658 57.5771 0.000167847 57.7469V62.1304C0.000274658 62.3002 0.0656281 62.463 0.181839 62.583C0.298065 62.7031 0.455673 62.7706 0.620041 62.7707ZM167.406 61.4901H1.23987V58.3872H175.152L167.406 61.4901Z" fill="#323232"/>
<path d="M157.041 62.1297H162.27V73.6374H157.041V62.1297Z" fill="#F3F9FB"/>
<path d="M157.04 74.278H162.27C162.435 74.2779 162.592 74.2104 162.708 74.0903C162.825 73.9703 162.89 73.8075 162.89 73.6377V62.1305C162.89 61.9607 162.825 61.7979 162.708 61.6779C162.592 61.5578 162.435 61.4903 162.27 61.4902H157.04C156.876 61.4903 156.718 61.5578 156.602 61.6779C156.486 61.7979 156.421 61.9607 156.42 62.1305V73.6377C156.421 73.8075 156.486 73.9703 156.602 74.0903C156.718 74.2104 156.876 74.2779 157.04 74.278ZM161.65 72.9973H157.66V62.7708H161.65L161.65 72.9973Z" fill="#323232"/>
<path d="M294.046 72.9447H312.005C312.169 72.9446 312.327 72.8771 312.443 72.757C312.559 72.637 312.624 72.4742 312.625 72.3044V49.714C312.624 49.5442 312.559 49.3814 312.443 49.2614C312.327 49.1413 312.169 49.0738 312.005 49.0737H294.046C293.882 49.0738 293.724 49.1413 293.608 49.2614C293.492 49.3814 293.426 49.5442 293.426 49.714V72.3044C293.426 72.4742 293.492 72.637 293.608 72.757C293.724 72.8771 293.882 72.9446 294.046 72.9447ZM311.385 71.664H294.666V50.3544H311.385V71.664Z" fill="#323232"/>
<path d="M257.351 72.9447H269.528C269.692 72.9446 269.85 72.8771 269.966 72.757C270.082 72.637 270.148 72.4742 270.148 72.3044V49.714C270.148 49.5442 270.082 49.3814 269.966 49.2614C269.85 49.1413 269.692 49.0738 269.528 49.0737H257.351C257.187 49.0738 257.029 49.1413 256.913 49.2614C256.797 49.3814 256.732 49.5442 256.732 49.714V72.3044C256.732 72.4742 256.797 72.637 256.913 72.757C257.029 72.8771 257.187 72.9446 257.351 72.9447ZM268.908 71.664H257.971V50.3544H268.908L268.908 71.664Z" fill="#323232"/>
<path d="M337.644 33.3655C337.795 33.3657 337.942 33.3085 338.055 33.2047C338.169 33.1009 338.241 32.9577 338.26 32.8023C338.278 32.6468 338.24 32.4898 338.154 32.3611C338.068 32.2323 337.939 32.1407 337.791 32.1036L316.513 26.7346C315.309 26.4306 314.073 26.2769 312.833 26.2769H257.351C257.187 26.2769 257.029 26.3443 256.913 26.4644C256.797 26.5845 256.732 26.7474 256.732 26.9172C256.732 27.087 256.797 27.2499 256.913 27.37C257.029 27.4901 257.187 27.5575 257.351 27.5575H312.833C313.973 27.5575 315.11 27.6986 316.218 27.9777L337.496 33.3467C337.544 33.359 337.594 33.3653 337.644 33.3655Z" fill="#323232"/>
<path d="M242.469 90.9999C235.398 90.9999 229.665 85.078 229.665 77.7731C229.665 70.4681 235.398 64.5463 242.469 64.5463C249.541 64.5463 255.273 70.4681 255.273 77.7731C255.273 85.078 249.541 90.9999 242.469 90.9999Z" fill="#323232"/>
<path d="M242.469 87.1395C237.461 87.1395 233.402 82.9461 233.402 77.7732C233.402 72.6003 237.461 68.4068 242.469 68.4068C247.476 68.4068 251.536 72.6003 251.536 77.7732C251.536 82.9461 247.476 87.1395 242.469 87.1395Z" fill="#323232"/>
<path d="M242.469 84.9255C238.591 84.9255 235.447 81.7235 235.447 77.7736C235.447 73.8237 238.591 70.6216 242.469 70.6216C246.347 70.6216 249.491 73.8237 249.491 77.7736C249.491 81.7235 246.347 84.9255 242.469 84.9255Z" fill="#F3F9FB"/>
<path d="M213.998 90.9999C206.926 90.9999 201.194 85.078 201.194 77.7731C201.194 70.4681 206.926 64.5463 213.998 64.5463C221.069 64.5463 226.801 70.4681 226.801 77.7731C226.801 85.078 221.069 90.9999 213.998 90.9999Z" fill="#323232"/>
<path d="M213.998 87.1395C208.99 87.1395 204.931 82.9461 204.931 77.7732C204.931 72.6003 208.99 68.4068 213.998 68.4068C219.005 68.4068 223.064 72.6003 223.064 77.7732C223.064 82.9461 219.005 87.1395 213.998 87.1395Z" fill="#323232"/>
<path d="M213.998 84.9255C210.12 84.9255 206.976 81.7235 206.976 77.7736C206.976 73.8237 210.12 70.6216 213.998 70.6216C217.876 70.6216 221.02 73.8237 221.02 77.7736C221.02 81.7235 217.876 84.9255 213.998 84.9255Z" fill="#F3F9FB"/>
<path d="M57.6215 90.9999C50.5502 90.9999 44.8178 85.078 44.8178 77.7731C44.8178 70.4681 50.5502 64.5463 57.6215 64.5463C64.6929 64.5463 70.4253 70.4681 70.4253 77.7731C70.4253 85.078 64.6929 90.9999 57.6215 90.9999Z" fill="#323232"/>
<path d="M57.6217 87.1395C52.6143 87.1395 48.5549 82.9461 48.5549 77.7732C48.5549 72.6003 52.6143 68.4068 57.6217 68.4068C62.6292 68.4068 66.6885 72.6003 66.6885 77.7732C66.6885 82.9461 62.6292 87.1395 57.6217 87.1395Z" fill="#323232"/>
<path d="M57.6213 84.9255C53.7433 84.9255 50.5996 81.7235 50.5996 77.7736C50.5996 73.8237 53.7433 70.6216 57.6213 70.6216C61.4993 70.6216 64.6431 73.8237 64.6431 77.7736C64.6431 81.7235 61.4993 84.9255 57.6213 84.9255Z" fill="#F3F9FB"/>
<path d="M29.1499 90.9999C22.0785 90.9999 16.3461 85.078 16.3461 77.7731C16.3461 70.4681 22.0785 64.5463 29.1499 64.5463C36.2212 64.5463 41.9536 70.4681 41.9536 77.7731C41.9536 85.078 36.2212 90.9999 29.1499 90.9999Z" fill="#323232"/>
<path d="M29.15 87.1395C24.1426 87.1395 20.0832 82.9461 20.0832 77.7732C20.0832 72.6003 24.1426 68.4068 29.15 68.4068C34.1575 68.4068 38.2168 72.6003 38.2168 77.7732C38.2168 82.9461 34.1575 87.1395 29.15 87.1395Z" fill="#323232"/>
<path d="M29.1501 84.9255C25.2721 84.9255 22.1284 81.7235 22.1284 77.7736C22.1284 73.8237 25.2721 70.6216 29.1501 70.6216C33.0281 70.6216 36.1719 73.8237 36.1719 77.7736C36.1719 81.7235 33.0281 84.9255 29.1501 84.9255Z" fill="#F3F9FB"/>
<path d="M257.351 67.7184H357.339V77.2202H257.351V67.7184Z" fill="#F3F9FB"/>
<path d="M257.352 77.8616H357.339C357.503 77.8615 357.661 77.794 357.777 77.6739C357.893 77.5539 357.958 77.3911 357.958 77.2213V67.7188C357.958 67.549 357.893 67.3862 357.777 67.2662C357.661 67.1461 357.503 67.0786 357.339 67.0785H257.352C257.187 67.0786 257.03 67.1461 256.913 67.2662C256.797 67.3862 256.732 67.549 256.732 67.7188V77.2213C256.732 77.3911 256.797 77.5539 256.913 77.6739C257.03 77.794 257.187 77.8615 257.352 77.8616ZM356.719 76.5809H257.971V68.3591H356.719L356.719 76.5809Z" fill="#323232"/>
<path d="M247.06 62.1306H251.456V7.20324L247.89 2.40591H243.494L247.06 7.63098V62.1306Z" fill="#323232"/>
<path d="M247.059 62.7692H251.453C251.618 62.7691 251.775 62.7016 251.892 62.5815C252.008 62.4614 252.073 62.2986 252.073 62.1289V7.20322C252.073 7.06218 252.028 6.92518 251.945 6.81303L248.381 2.01312C248.323 1.93514 248.249 1.87199 248.163 1.8286C248.078 1.78521 247.984 1.76276 247.889 1.76299H243.495C243.381 1.76311 243.27 1.79542 243.173 1.8564C243.076 1.91738 242.997 2.00468 242.945 2.10878C242.893 2.21289 242.869 2.32981 242.877 2.44678C242.885 2.56376 242.923 2.6763 242.989 2.77214L246.439 7.83099V62.1289C246.439 62.2986 246.504 62.4614 246.621 62.5815C246.737 62.7016 246.894 62.7691 247.059 62.7692ZM250.834 61.4885H247.679V7.62842C247.679 7.49617 247.639 7.36711 247.565 7.25959L244.691 3.04367H247.584L250.834 7.42095L250.834 61.4885Z" fill="#323232"/>
<path d="M241.822 37.2988H257.351V62.1302H241.822V37.2988Z" fill="#F3F9FB"/>
<path d="M241.821 62.7706H257.351C257.516 62.7705 257.673 62.703 257.79 62.583C257.906 62.4629 257.971 62.3001 257.971 62.1303V37.2988C257.971 37.129 257.906 36.9662 257.79 36.8462C257.673 36.7261 257.516 36.6586 257.351 36.6585H241.821C241.657 36.6586 241.499 36.7261 241.383 36.8462C241.267 36.9662 241.201 37.129 241.201 37.2988V62.1303C241.201 62.3001 241.267 62.4629 241.383 62.583C241.499 62.7031 241.657 62.7705 241.821 62.7706ZM256.732 61.49H242.441V37.9392H256.731L256.732 61.49Z" fill="#323232"/>
<path d="M204.284 57.6825H226.965V62.13H204.284V57.6825Z" fill="#F3F9FB"/>
<path d="M204.284 62.7705H226.965C227.129 62.7704 227.287 62.7029 227.403 62.5828C227.519 62.4627 227.584 62.2999 227.584 62.1302V57.6829C227.584 57.5131 227.519 57.3503 227.403 57.2302C227.287 57.1102 227.129 57.0427 226.965 57.0426H204.284C204.12 57.0427 203.963 57.1102 203.846 57.2302C203.73 57.3503 203.665 57.5131 203.665 57.6829V62.1302C203.665 62.3 203.73 62.4628 203.846 62.5828C203.963 62.7029 204.12 62.7704 204.284 62.7705ZM226.345 61.4898H204.904V58.3232H226.345V61.4898Z" fill="#323232"/>
<path d="M294.046 59.7946H299.281C299.445 59.7946 299.603 59.7272 299.719 59.6073C299.836 59.4873 299.901 59.3246 299.901 59.1549C299.901 58.9853 299.836 58.8226 299.719 58.7026C299.603 58.5826 299.445 58.5152 299.281 58.5152H294.046C293.882 58.5152 293.724 58.5826 293.608 58.7026C293.492 58.8226 293.426 58.9853 293.426 59.1549C293.426 59.3246 293.492 59.4873 293.608 59.6073C293.724 59.7272 293.882 59.7946 294.046 59.7946Z" fill="#323232"/>
<path d="M257.352 59.7946H263.439C263.603 59.7946 263.761 59.7272 263.877 59.6073C263.993 59.4873 264.059 59.3246 264.059 59.1549C264.059 58.9853 263.993 58.8226 263.877 58.7026C263.761 58.5826 263.603 58.5152 263.439 58.5152H257.352C257.187 58.5152 257.029 58.5826 256.913 58.7026C256.797 58.8226 256.732 58.9853 256.732 59.1549C256.732 59.3246 256.797 59.4873 256.913 59.6073C257.029 59.7272 257.187 59.7946 257.352 59.7946Z" fill="#323232"/>
<path d="M334.38 45.5469H336.968V46.8263H334.38V45.5469Z" fill="#323232"/>
<path d="M329.267 37.2988H333.438C333.959 37.2988 334.38 37.7345 334.38 38.2718V50.302C334.38 50.8394 333.959 51.275 333.438 51.275H329.267C328.747 51.275 328.325 50.8394 328.325 50.302V38.2718C328.325 37.7345 328.747 37.2988 329.267 37.2988Z" fill="#323232"/>
<path d="M329.266 51.9151H333.438C333.852 51.9147 334.249 51.7446 334.542 51.4421C334.835 51.1396 335 50.7295 335 50.3017V38.2718C335 37.8441 334.835 37.4339 334.542 37.1315C334.249 36.829 333.852 36.6589 333.438 36.6585H329.266C328.852 36.6589 328.455 36.829 328.163 37.1315C327.87 37.4339 327.705 37.8441 327.705 38.2718V50.3017C327.705 50.7295 327.87 51.1396 328.163 51.4421C328.455 51.7446 328.852 51.9147 329.266 51.9151ZM333.438 37.9392C333.523 37.9404 333.605 37.9758 333.665 38.038C333.725 38.1001 333.759 38.184 333.76 38.2718V50.3017C333.759 50.3896 333.725 50.4735 333.665 50.5356C333.605 50.5977 333.523 50.6332 333.438 50.6344H329.266C329.181 50.6332 329.1 50.5977 329.04 50.5356C328.98 50.4735 328.946 50.3896 328.944 50.3017V38.2718C328.946 38.184 328.98 38.1001 329.04 38.038C329.1 37.9758 329.181 37.9404 329.266 37.9392H333.438Z" fill="#323232"/>
<path d="M328.324 46.8447H334.38V48.1241H328.324V46.8447Z" fill="#323232"/>
<path d="M260.921 9.12501H275.106C275.62 9.12501 276.036 9.55503 276.036 10.0855V19.3703C276.036 19.9007 275.62 20.3307 275.106 20.3307H260.921C260.408 20.3307 259.991 19.9007 259.991 19.3703V10.0855C259.991 9.55503 260.408 9.12501 260.921 9.12501Z" fill="#F3F9FB"/>
<path d="M260.921 20.9711H275.107C275.518 20.9707 275.912 20.8019 276.202 20.5018C276.493 20.2016 276.656 19.7947 276.657 19.3702V10.0855C276.656 9.66104 276.493 9.25409 276.202 8.95397C275.912 8.65384 275.518 8.48506 275.107 8.48466H260.921C260.51 8.48506 260.116 8.65384 259.825 8.95397C259.535 9.25409 259.372 9.66104 259.371 10.0855V19.3702C259.372 19.7947 259.535 20.2016 259.825 20.5018C260.116 20.8019 260.51 20.9707 260.921 20.9711ZM275.107 9.76532C275.189 9.76654 275.267 9.80067 275.325 9.86045C275.383 9.92023 275.416 10.001 275.417 10.0855V19.3702C275.416 19.4548 275.383 19.5355 275.325 19.5953C275.267 19.6551 275.189 19.6892 275.107 19.6904H260.921C260.839 19.6892 260.761 19.6551 260.703 19.5953C260.645 19.5355 260.612 19.4548 260.611 19.3702V10.0855C260.612 10.001 260.645 9.92023 260.703 9.86045C260.761 9.80067 260.839 9.76654 260.921 9.76532H275.107Z" fill="#323232"/>
<path d="M315.896 72.3781H333.077C333.159 72.3781 333.239 72.3615 333.314 72.3294C333.39 72.2972 333.458 72.25 333.515 72.1905L337.406 68.1709C337.467 68.109 337.514 68.0349 337.544 67.9532C338.925 64.3118 341.34 61.187 344.471 58.9889C347.602 56.7909 351.304 55.6224 355.089 55.637H356.399C361.4 55.6514 366.194 57.7024 369.74 61.345L377.014 68.8601C377.131 68.9774 377.287 69.0426 377.45 69.0414C377.613 69.0402 377.769 68.9729 377.884 68.8539C378 68.7349 378.065 68.5738 378.066 68.4055C378.067 68.2372 378.004 68.0752 377.89 67.9546L370.617 60.4395C366.838 56.5571 361.729 54.3713 356.399 54.3564H355.089C351.077 54.3405 347.153 55.572 343.827 57.8907C340.501 60.2095 337.927 63.5082 336.44 67.358L332.821 71.0975H316.152L312.443 67.2656C312.326 67.1482 312.169 67.0831 312.007 67.0842C311.844 67.0854 311.688 67.1528 311.573 67.2718C311.457 67.3908 311.392 67.5518 311.391 67.7201C311.39 67.8884 311.453 68.0504 311.567 68.1711L315.458 72.1906C315.515 72.2501 315.583 72.2972 315.659 72.3294C315.734 72.3616 315.814 72.3781 315.896 72.3781Z" fill="#323232"/>
<path d="M381.24 67.7184H363.42V77.2202H372.435C374.77 77.2202 377.01 76.2619 378.661 74.556C380.312 72.8502 381.24 70.5365 381.24 68.1241V67.7184H381.24Z" fill="#323232"/>
<path d="M363.421 77.8615H372.435C374.934 77.8587 377.33 76.8319 379.098 75.0064C380.865 73.1808 381.859 70.7057 381.861 68.124V67.7188C381.861 67.549 381.796 67.3862 381.68 67.2662C381.563 67.1461 381.406 67.0786 381.241 67.0785H363.421C363.256 67.0786 363.099 67.1461 362.983 67.2662C362.866 67.3862 362.801 67.549 362.801 67.7188V77.2213C362.801 77.391 362.866 77.5538 362.983 77.6738C363.099 77.7939 363.256 77.8614 363.421 77.8615ZM380.619 68.359C380.557 70.5596 379.668 72.6488 378.141 74.1837C376.613 75.7185 374.566 76.5784 372.435 76.5808H364.041V68.359H380.619Z" fill="#323232"/>
<path d="M372.33 77.7734C372.33 73.3061 370.612 69.0217 367.554 65.8628C364.496 62.7039 360.349 60.9293 356.025 60.9293C351.7 60.9293 347.553 62.7039 344.495 65.8628C341.437 69.0217 339.719 73.3061 339.719 77.7734H372.33Z" fill="#323232"/>
<path d="M356.025 90.9999C348.954 90.9999 343.221 85.078 343.221 77.7731C343.221 70.4681 348.954 64.5463 356.025 64.5463C363.096 64.5463 368.829 70.4681 368.829 77.7731C368.829 85.078 363.096 90.9999 356.025 90.9999Z" fill="#323232"/>
<path d="M356.025 87.1395C351.017 87.1395 346.958 82.9461 346.958 77.7732C346.958 72.6003 351.017 68.4068 356.025 68.4068C361.032 68.4068 365.091 72.6003 365.091 77.7732C365.091 82.9461 361.032 87.1395 356.025 87.1395Z" fill="#323232"/>
<path d="M356.025 84.9255C352.147 84.9255 349.003 81.7235 349.003 77.7736C349.003 73.8237 352.147 70.6216 356.025 70.6216C359.903 70.6216 363.046 73.8237 363.046 77.7736C363.046 81.7235 359.903 84.9255 356.025 84.9255Z" fill="#F3F9FB"/>
</svg>
