<?xml version="1.0" standalone="no"?>
<!DOCTYPE svg PUBLIC "-//W3C//DTD SVG 20010904//EN"
 "http://www.w3.org/TR/2001/REC-SVG-20010904/DTD/svg10.dtd">
<svg version="1.0" xmlns="http://www.w3.org/2000/svg"
 width="1280.000000pt" height="1280.000000pt" viewBox="0 0 1280.000000 1280.000000"
 preserveAspectRatio="xMidYMid meet">

<g transform="translate(0.000000,1280.000000) scale(0.100000,-0.100000)"
fill="#000000" stroke="none">
<path d="M4074 9553 c-223 -250 -640 -744 -676 -802 -15 -25 -1 -43 58 -70 24
-12 44 -25 44 -31 0 -5 -9 -32 -20 -60 -11 -28 -20 -74 -20 -102 0 -50 0 -50
28 -43 75 19 96 17 145 -15 56 -36 86 -91 87 -160 0 -50 -28 -173 -59 -264
-26 -74 -26 -98 -1 -121 15 -13 20 -31 20 -69 0 -29 7 -59 15 -70 23 -30 18
-69 -13 -112 -27 -37 -80 -87 -115 -109 -11 -7 -18 -33 -23 -92 l-6 -82 25 -6
c15 -4 31 -13 38 -21 17 -21 -14 -53 -46 -46 -19 3 -27 -2 -36 -22 -7 -14 -16
-26 -21 -26 -4 0 -8 -4 -8 -10 0 -17 36 -11 63 10 42 33 43 30 21 -78 l-6 -33
40 7 c25 4 42 2 47 -5 13 -22 -16 -41 -61 -41 -41 0 -45 -2 -59 -36 -25 -61
-19 -80 65 -206 44 -65 83 -131 86 -146 4 -15 24 -62 45 -104 22 -43 39 -88
39 -102 0 -13 6 -28 13 -33 13 -11 308 -137 390 -167 27 -10 50 -16 52 -14 11
10 10 3438 0 3438 -6 0 -74 -71 -151 -157z"/>
<path d="M7832 8880 c3 -332 8 -454 16 -462 7 -7 49 -25 94 -39 70 -23 85 -32
108 -66 17 -25 36 -40 55 -43 24 -4 29 -10 27 -28 -4 -30 23 -29 43 2 14 21
19 23 62 15 26 -5 58 -16 71 -25 43 -28 176 2 189 42 6 18 -80 55 -200 85 -60
15 -112 30 -115 33 -2 3 1 12 8 21 17 20 65 19 136 -4 100 -31 142 -36 165
-15 11 10 19 30 19 49 0 26 -13 44 -82 112 -68 65 -92 82 -132 92 -107 26
-199 93 -194 139 3 26 5 27 74 30 71 3 72 2 100 -31 59 -70 104 -73 104 -8 0
27 8 48 25 69 21 25 25 41 27 99 1 38 -2 75 -6 81 -10 16 -55 15 -86 -3 -46
-26 -77 -19 -131 31 l-49 47 -108 -7 c-59 -4 -120 -8 -137 -9 -45 -3 -44 26 5
74 50 49 50 74 0 74 l-35 0 3 48 c3 47 3 47 -28 47 l-32 0 4 -450z"/>
<path d="M8555 8250 c-11 -18 13 -36 31 -25 9 6 16 15 17 20 3 14 -40 18 -48
5z"/>
<path d="M7944 8106 c-12 -14 -37 -26 -62 -31 -32 -5 -43 -12 -47 -28 -3 -12
-4 -150 -3 -307 l3 -285 29 -13 c42 -21 97 -80 131 -142 26 -47 30 -65 30
-130 0 -65 -4 -83 -30 -130 -17 -30 -58 -82 -92 -115 -35 -34 -63 -64 -63 -67
0 -3 14 -11 30 -18 33 -14 50 -37 50 -69 0 -24 73 -167 100 -196 23 -24 25
-47 8 -74 -9 -15 -9 -25 0 -46 15 -33 7 -48 -23 -41 -18 5 -28 -1 -45 -24 -25
-35 -43 -37 -88 -10 -18 11 -35 20 -38 20 -3 0 -3 -192 -1 -427 l3 -428 105 0
c100 0 108 -2 143 -28 72 -56 88 -78 82 -121 -5 -46 -26 -70 -52 -62 -11 3
-36 21 -56 40 -42 39 -53 34 -37 -14 10 -27 8 -39 -11 -77 -21 -41 -22 -51
-11 -95 15 -67 15 -71 -15 -103 -21 -23 -24 -33 -19 -66 6 -35 3 -42 -27 -69
-27 -25 -30 -32 -18 -40 8 -5 19 -10 23 -10 20 0 65 31 87 62 56 75 75 88 129
88 51 0 65 9 66 45 0 17 7 20 56 21 81 1 98 18 61 63 -16 21 -19 21 -54 7 -48
-21 -58 -20 -58 3 0 12 26 40 67 73 92 73 91 72 158 78 53 4 60 7 57 26 -2 15
11 29 48 53 31 20 66 56 92 94 49 73 49 73 153 109 183 64 218 81 267 127 67
62 71 71 53 122 -12 32 -14 70 -11 151 3 59 8 113 12 119 3 6 20 9 38 6 17 -2
40 2 53 10 52 34 90 -2 139 -129 42 -111 81 -136 160 -103 42 17 46 21 111
110 78 105 77 105 81 72 4 -33 14 -34 56 -2 33 25 70 33 80 17 11 -18 -25 -50
-64 -57 -33 -6 -45 -15 -70 -52 -54 -79 -70 -118 -65 -159 2 -22 4 -42 4 -46
1 -8 95 -38 117 -38 21 0 34 36 44 121 5 44 15 85 22 92 7 7 47 40 88 73 88
72 170 157 170 177 0 8 -13 17 -30 21 -42 8 -37 27 14 63 62 44 82 77 68 109
-16 34 -59 50 -82 29 -19 -18 -30 -11 -30 20 0 13 -7 29 -16 36 -14 11 -18 10
-31 -6 -12 -16 -14 -42 -10 -119 l4 -98 -34 -15 c-49 -20 -66 -4 -57 54 8 57
-5 56 -72 -7 -58 -55 -86 -62 -135 -33 -28 17 -47 14 -35 -5 3 -6 27 -20 52
-32 43 -21 51 -22 117 -11 75 13 99 5 69 -22 -35 -32 -152 -21 -270 25 -62 24
-73 39 -60 85 10 39 3 73 -17 73 -7 0 -35 -18 -61 -40 -47 -39 -86 -51 -99
-30 -9 14 13 40 32 40 40 0 133 108 133 154 0 51 -28 70 -90 63 -142 -17 -321
-185 -345 -323 -15 -81 -44 -181 -64 -217 -11 -20 -44 -61 -73 -90 -72 -73
-101 -107 -123 -145 -40 -67 -42 -17 -3 61 10 21 51 70 89 108 84 84 103 123
124 255 20 119 39 165 93 223 38 41 40 47 36 90 -9 82 6 95 248 215 348 173
377 199 378 335 0 81 29 146 74 168 17 8 44 31 59 51 25 32 28 44 24 82 -4 32
-12 49 -28 60 -12 8 -43 35 -68 59 -83 79 -105 87 -121 46 -5 -14 -17 -25 -28
-25 -11 0 -31 11 -46 25 -44 41 -54 34 -102 -73 -35 -77 -54 -101 -54 -67 0
19 56 160 76 190 22 34 11 45 -33 33 -21 -6 -65 -13 -98 -15 -33 -3 -68 -11
-79 -19 -29 -20 -45 -17 -56 10 -8 21 -13 23 -53 19 -29 -4 -54 0 -75 11 -17
9 -40 16 -52 16 -23 0 -27 25 -8 64 9 22 8 29 -6 45 -10 11 -28 21 -40 23 -16
2 -22 11 -24 35 -4 38 -30 56 -67 47 -19 -5 -30 0 -44 17 -20 24 -20 24 -35 4
-18 -25 -31 -13 -31 28 0 28 -6 35 -55 62 -31 17 -78 47 -104 67 -27 21 -52
35 -57 32 -12 -7 -11 -141 1 -186 8 -28 8 -44 -1 -60 -7 -13 -17 -45 -23 -73
-13 -59 -33 -67 -92 -36 -51 28 -94 28 -94 1 0 -19 -32 -45 -43 -34 -3 3 -3
21 0 38 4 26 -1 42 -25 74 -16 23 -39 73 -52 111 -12 38 -31 77 -41 87 -18 16
-21 15 -58 -10 -33 -23 -42 -25 -63 -15 -14 6 -32 26 -41 44 -12 24 -25 35
-49 40 -18 4 -50 18 -70 31 -46 30 -58 30 -84 0z"/>
<path d="M5414 7890 c-40 -74 -65 -110 -76 -110 -10 0 -38 10 -63 22 -24 12
-47 19 -50 16 -3 -2 4 -91 16 -197 12 -105 18 -195 14 -199 -4 -4 -16 4 -27
18 -58 72 -143 160 -154 160 -7 0 -17 -15 -22 -32 l-9 -33 -106 3 c-59 1 -107
-1 -107 -5 0 -5 11 -52 25 -106 34 -131 33 -134 -15 -147 -22 -6 -40 -15 -40
-20 0 -6 4 -10 8 -10 5 0 44 -33 88 -73 43 -41 114 -104 157 -142 81 -71 87
-83 66 -144 -6 -18 -9 -34 -7 -37 3 -2 78 2 167 11 89 8 167 13 172 9 10 -6 4
-288 -7 -341 -4 -21 -1 -23 37 -23 l42 0 -7 186 -8 187 49 -6 c151 -20 286
-28 295 -19 6 6 4 22 -6 47 -9 21 -16 41 -16 45 0 7 90 90 254 235 92 81 98
93 46 101 -48 8 -50 19 -18 132 24 89 28 128 11 125 -6 -1 -55 -6 -107 -9
l-96 -7 0 25 c0 14 -7 31 -15 38 -14 11 -23 7 -61 -31 -25 -24 -61 -66 -81
-92 -35 -48 -60 -57 -56 -21 1 10 9 85 18 166 8 80 18 160 21 177 5 26 3 31
-12 31 -11 0 -34 -9 -52 -20 -18 -11 -39 -20 -47 -20 -17 0 -61 66 -106 158
-16 34 -36 62 -43 62 -7 0 -40 -49 -72 -110z"/>
<path d="M8435 7979 c-10 -15 1 -23 20 -15 9 3 13 10 10 16 -8 13 -22 13 -30
-1z"/>
<path d="M3323 7604 c-22 -9 -36 -83 -22 -116 10 -26 9 -31 -10 -49 -41 -39
-22 -67 34 -49 37 12 44 27 23 49 -11 10 -8 16 11 32 13 10 29 19 36 19 16 0
47 35 38 43 -14 14 -45 6 -50 -13 -3 -11 -12 -20 -19 -20 -17 0 -19 31 -3 47
27 27 -3 71 -38 57z"/>
<path d="M3460 7405 c-22 -26 -8 -50 29 -50 42 0 49 16 20 44 -27 25 -33 26
-49 6z"/>
<path d="M3290 7316 c0 -20 5 -36 10 -36 6 0 10 13 10 29 0 17 -4 33 -10 36
-6 4 -10 -8 -10 -29z"/>
<path d="M9992 7333 c-12 -23 -52 -185 -52 -210 0 -10 9 -36 20 -58 11 -22 20
-44 20 -51 0 -6 11 -23 25 -38 51 -55 53 -80 14 -195 -33 -95 -23 -114 33 -61
35 34 43 36 52 15 10 -27 41 -16 86 30 33 34 52 45 75 45 20 0 35 7 43 21 8
13 21 19 35 17 14 -2 26 4 32 16 6 11 16 21 23 24 18 6 15 -33 -8 -75 -22 -41
-19 -53 15 -53 33 0 55 36 55 88 0 50 24 102 46 102 9 0 21 -13 27 -30 13 -35
27 -39 34 -10 6 24 12 25 27 4 9 -12 17 -13 39 -5 30 12 32 25 15 85 -20 70
-37 82 -56 41 -16 -34 -32 -31 -32 5 0 17 -5 30 -11 30 -5 0 -19 20 -30 45
-22 49 -45 58 -55 21 -5 -21 -52 -77 -55 -65 -1 2 -6 33 -13 69 -9 56 -14 65
-34 68 -33 5 -51 -14 -88 -96 -39 -85 -56 -90 -86 -27 -32 67 -35 70 -49 70
-8 0 -23 -18 -33 -39 -18 -36 -20 -38 -33 -21 -7 11 -13 37 -13 59 0 54 -20
168 -32 184 -14 17 -26 15 -36 -5z m533 -283 c3 -5 -4 -19 -15 -30 -16 -16
-24 -18 -40 -10 -22 12 -22 12 -14 34 7 18 59 22 69 6z"/>
<path d="M3405 6940 c-9 -14 10 -75 56 -187 23 -54 57 -141 76 -193 51 -142
93 -173 147 -109 33 39 33 52 -3 108 -18 29 -31 66 -35 100 -3 33 -15 67 -28
86 -53 75 -143 191 -152 197 -16 11 -54 10 -61 -2z"/>
<path d="M9560 6763 c-71 -23 -150 -56 -150 -62 0 -10 91 -24 150 -24 61 0
128 17 148 37 14 14 13 17 -19 29 -40 17 -108 27 -129 20z"/>
<path d="M9816 6524 c-3 -8 -1 -25 6 -37 12 -22 12 -21 18 8 4 17 5 33 3 38
-7 12 -21 8 -27 -9z"/>
<path d="M10276 6161 c-4 -7 -5 -15 -2 -18 9 -9 19 4 14 18 -4 11 -6 11 -12 0z"/>
<path d="M3340 6111 c0 -17 5 -33 10 -36 17 -10 11 -73 -10 -112 -22 -41 -25
-63 -10 -63 6 0 10 -9 10 -20 0 -25 -11 -25 -44 1 -22 17 -27 18 -32 5 -9 -23
1 -32 72 -70 42 -22 67 -30 69 -23 2 7 6 25 10 40 8 36 25 30 48 -16 11 -24
24 -37 36 -37 30 0 51 -11 51 -26 0 -8 -7 -14 -15 -14 -8 0 -21 -13 -30 -30
-12 -23 -13 -34 -3 -55 18 -39 -4 -56 -35 -27 -29 27 -32 27 -69 1 -16 -12
-31 -19 -34 -16 -3 3 -1 22 5 44 6 21 11 41 11 46 0 13 -82 97 -95 97 -18 0
-41 -38 -70 -116 -42 -112 -29 -174 36 -174 34 0 37 -10 8 -36 -32 -29 -38
-47 -29 -87 10 -46 -3 -57 -35 -27 -23 22 -25 22 -58 6 -24 -11 -49 -14 -78
-11 -24 3 -51 1 -59 -4 -12 -9 -12 -14 3 -46 22 -46 22 -58 -5 -105 -21 -35
-21 -42 -10 -85 15 -56 7 -76 -49 -111 -22 -13 -42 -31 -45 -39 -5 -13 23 -83
48 -117 11 -15 8 -22 -20 -51 -39 -40 -40 -61 -7 -118 30 -54 31 -63 3 -89
-28 -26 -16 -50 31 -63 25 -6 37 -4 50 7 27 24 53 21 49 -6 -3 -22 -18 -30
-80 -43 -34 -7 -36 -25 -8 -97 11 -29 17 -62 14 -75 -7 -26 28 -129 78 -230 6
-13 8 -42 4 -72 -6 -43 -4 -51 9 -51 9 0 18 8 21 18 27 82 35 85 61 21 11 -28
23 -41 42 -45 55 -12 56 -14 20 -43 l-34 -29 45 -44 c25 -25 61 -64 80 -87 24
-30 46 -45 70 -50 29 -6 36 -12 40 -36 6 -36 -84 -30 755 -50 358 -8 915 -22
1239 -30 324 -8 605 -15 625 -14 49 2 752 -19 2211 -65 386 -13 428 -13 460 2
19 9 46 18 59 21 13 4 26 12 29 20 4 11 -2 13 -27 8 -25 -5 -35 -2 -56 21 -14
15 -24 31 -22 36 3 9 48 27 115 45 68 19 54 38 -24 33 -60 -4 -66 -3 -62 14 2
12 22 26 56 38 l53 19 -3 41 -3 41 -190 7 c-368 13 -874 28 -1230 38 -198 5
-493 14 -655 20 -162 5 -388 12 -502 16 l-208 6 1 112 c1 61 4 145 8 186 l6
75 155 -3 c85 -1 373 -9 640 -17 863 -26 1471 -45 1661 -51 163 -6 187 -4 201
10 20 20 48 21 48 2 0 -20 30 -29 48 -14 49 39 82 85 97 136 27 91 27 92 13
92 -7 0 -22 7 -32 15 -16 12 -17 17 -6 30 15 18 57 20 62 3 5 -13 139 41 171
69 44 40 -1 44 -80 7 -48 -23 -58 -25 -81 -14 -28 13 -305 26 -627 30 -163 2
-239 -9 -303 -44 -142 -77 -142 -77 -174 -60 -27 14 -29 19 -24 47 16 79 32
71 -169 77 -99 3 -187 3 -196 2 -9 -2 -21 -13 -27 -25 -17 -37 -93 -117 -111
-117 -31 0 -73 55 -78 104 l-5 45 -62 5 c-33 3 -259 10 -501 16 -242 6 -479
13 -528 17 l-87 6 6 181 c4 100 8 183 10 185 2 3 221 -2 487 -10 265 -8 526
-14 581 -14 l99 0 13 43 c18 63 41 85 81 77 20 -3 33 -2 33 4 0 13 100 61 128
61 11 0 24 -5 27 -11 4 -6 23 -8 44 -5 20 3 39 5 44 6 14 0 7 19 -15 40 -17
15 -31 20 -51 16 -22 -5 -30 -1 -39 19 -19 41 -87 29 -153 -27 -19 -15 -24
-15 -86 5 -36 12 -74 28 -83 36 -14 12 -21 12 -37 3 -16 -10 -21 -10 -25 3 -7
18 21 65 38 65 9 0 9 3 1 11 -19 19 -59 2 -73 -31 -7 -16 -20 -31 -29 -32 -9
-1 -23 -2 -31 -4 -8 -1 -23 -2 -32 -3 -9 -1 -31 -16 -48 -33 -30 -32 -31 -32
-45 -14 -8 11 -15 26 -15 33 0 19 -14 16 -68 -14 -50 -28 -82 -27 -82 2 0 17
28 48 75 82 16 12 28 24 25 27 -5 5 -562 26 -687 26 l-62 0 -3 123 -3 122
-165 17 c-91 9 -192 17 -226 17 -55 1 -62 -1 -74 -23 -8 -16 -10 -39 -6 -65 7
-47 -2 -51 -46 -20 l-29 21 -23 -21 c-32 -31 -39 -26 -33 21 4 32 1 51 -14 75
-21 34 -31 37 -209 67 -52 9 -117 21 -144 26 -53 11 -62 9 -53 -15 4 -9 19
-15 37 -15 37 0 39 -19 4 -49 -22 -19 -25 -27 -19 -61 10 -57 0 -64 -42 -33
l-36 28 -15 -23 c-19 -28 -47 -30 -38 -2 3 11 9 28 12 39 4 12 -5 31 -27 56
-26 30 -30 38 -18 46 8 5 23 8 34 7 25 -3 45 9 45 27 0 9 -21 20 -52 29 -85
23 -191 46 -212 46 -10 0 -39 7 -65 15 -66 22 -328 85 -351 85 -17 0 -19 -5
-14 -44 7 -50 -5 -64 -31 -36 -22 24 -48 26 -65 5 -7 -8 -19 -15 -28 -15 -11
0 -13 8 -9 38 9 51 -1 80 -32 96 -14 8 -102 35 -194 60 -93 26 -175 50 -183
53 -10 4 -14 -4 -14 -31 0 -33 3 -36 28 -36 15 0 34 -5 42 -10 13 -9 10 -15
-18 -38 -31 -25 -32 -30 -26 -74 6 -40 4 -48 -10 -48 -9 0 -21 9 -28 20 -7 11
-18 20 -24 20 -6 0 -19 -9 -29 -20 -27 -30 -49 -26 -41 8 20 81 21 79 -19 86
-43 8 -52 2 -57 -39 -2 -19 -9 -30 -18 -30 -12 0 -15 14 -15 69 l0 68 -55 20
c-30 11 -69 33 -85 49 -39 36 -45 36 -45 0z m647 -303 c8 -38 12 -43 38 -46
59 -6 61 -10 23 -50 -28 -29 -34 -41 -28 -57 22 -54 2 -71 -42 -36 -23 19 -24
19 -48 0 -14 -10 -29 -19 -34 -19 -8 0 -4 31 8 61 5 11 -3 29 -23 52 -38 42
-38 47 -5 47 40 0 61 17 68 55 10 49 33 45 43 -7z m523 1 c0 -33 19 -59 43
-59 12 0 29 -5 37 -10 12 -9 9 -15 -20 -39 -33 -28 -34 -30 -22 -67 6 -20 9
-41 6 -46 -8 -13 -34 -9 -40 6 -10 26 -36 27 -61 4 -18 -17 -26 -19 -35 -10
-10 10 -8 19 5 42 17 28 17 29 -13 63 -39 45 -38 57 5 57 32 0 37 4 51 40 17
42 44 54 44 19z m-789 -269 c11 -36 15 -40 45 -40 37 0 55 -18 31 -32 -41 -22
-49 -40 -43 -90 8 -54 -3 -62 -40 -27 l-23 21 -35 -21 c-24 -15 -37 -18 -41
-10 -4 6 -2 16 4 22 20 20 12 70 -15 96 -28 27 -27 47 2 44 36 -5 64 7 64 26
0 61 34 68 51 11z m514 2 c2 -30 34 -62 61 -62 37 0 38 -18 4 -50 -27 -25 -31
-35 -25 -58 17 -64 5 -76 -37 -37 l-28 25 -20 -20 c-26 -26 -55 -27 -45 -2 21
48 18 75 -10 98 -19 15 -26 28 -22 39 4 9 11 14 16 11 21 -13 59 14 71 49 13
39 32 43 35 7z m532 -32 c8 -30 14 -36 46 -41 52 -8 54 -14 17 -45 -30 -26
-32 -30 -26 -76 5 -38 4 -48 -7 -48 -8 0 -20 7 -27 15 -7 8 -23 15 -35 15 -12
0 -28 -7 -35 -15 -12 -14 -40 -21 -40 -10 0 4 7 19 15 35 17 33 12 52 -21 86
-32 31 -30 44 5 44 39 0 61 9 61 25 0 8 5 26 10 41 13 32 25 24 37 -26z m526
-11 c10 -39 21 -49 60 -49 33 0 37 -24 6 -40 -26 -15 -39 -49 -28 -78 5 -13 5
-30 1 -38 -7 -12 -13 -11 -37 7 -27 22 -29 22 -57 6 -40 -23 -48 -15 -35 34 9
39 8 42 -18 63 -34 27 -29 50 11 51 24 0 32 7 49 43 23 49 36 49 48 1z m526
-19 c9 -31 17 -40 34 -40 46 0 52 -15 22 -54 -23 -30 -26 -41 -20 -76 5 -32 4
-40 -8 -40 -8 0 -20 7 -27 15 -7 8 -23 15 -37 15 -13 0 -26 -7 -29 -15 -4 -8
-12 -15 -20 -15 -10 0 -12 10 -8 45 6 38 3 48 -20 76 -31 36 -26 46 24 51 29
2 36 8 38 28 4 26 19 50 32 50 4 0 12 -18 19 -40z m-2379 -171 c0 -38 19 -59
61 -65 42 -7 46 -20 13 -38 -31 -18 -35 -28 -29 -78 6 -54 -8 -64 -40 -28 -23
25 -30 25 -63 -1 -31 -24 -38 -13 -22 37 11 34 10 37 -19 66 -38 37 -36 52 9
52 34 1 42 10 60 59 11 31 30 28 30 -4z m537 -39 c8 -31 13 -35 46 -38 24 -2
37 -8 37 -18 0 -8 -4 -14 -8 -14 -5 0 -18 -9 -30 -20 -18 -17 -20 -27 -15 -71
6 -50 5 -51 -15 -40 -11 6 -24 16 -27 21 -9 15 -41 12 -55 -5 -20 -24 -43 -19
-34 8 13 37 6 81 -16 99 -34 27 -26 49 17 46 32 -3 37 0 44 25 10 35 30 60 40
50 4 -4 11 -24 16 -43z m520 -10 c14 -32 23 -40 45 -40 39 0 44 -18 13 -50
-25 -26 -27 -33 -21 -74 8 -52 -7 -62 -39 -26 -10 11 -23 20 -30 20 -7 0 -20
-9 -30 -20 -29 -32 -36 -24 -29 31 6 48 5 52 -21 73 -34 28 -26 46 20 46 30 0
36 4 41 28 14 66 25 69 51 12z m523 -2 c1 -35 24 -58 57 -58 45 0 47 -10 7
-47 -30 -27 -35 -37 -30 -60 11 -49 11 -56 -1 -60 -7 -3 -24 7 -37 22 l-25 26
-20 -20 c-29 -29 -56 -28 -46 2 19 59 17 73 -9 91 -33 21 -34 46 -2 46 41 0
55 11 62 46 7 41 44 50 44 12z m526 -20 c8 -40 12 -44 52 -52 23 -6 42 -13 42
-17 0 -4 -14 -17 -31 -30 -29 -20 -30 -24 -24 -70 8 -54 -7 -66 -39 -30 -18
20 -48 18 -67 -5 -21 -26 -30 -14 -24 34 6 41 3 50 -19 74 -30 31 -33 50 -8
47 42 -7 69 10 81 51 6 22 15 40 20 40 4 0 12 -19 17 -42z m-2372 -198 c5 -35
10 -40 32 -40 29 0 64 -16 64 -30 0 -6 -6 -10 -13 -10 -8 0 -22 -9 -32 -20
-14 -16 -16 -29 -11 -70 4 -27 3 -50 -2 -50 -5 0 -21 11 -36 25 l-27 25 -29
-21 c-32 -25 -56 -18 -40 11 17 32 11 68 -16 95 -30 30 -25 44 15 43 36 -1 51
8 51 32 0 59 35 67 44 10z m524 -11 c5 -34 20 -49 51 -49 49 0 54 -14 15 -48
-37 -33 -38 -37 -18 -104 7 -24 -11 -23 -47 3 l-29 20 -30 -21 c-26 -18 -31
-19 -36 -6 -3 8 -3 20 1 26 19 30 14 59 -14 86 -34 32 -32 44 9 44 32 0 60 23
60 49 0 39 33 39 38 0z m528 -16 c11 -50 13 -53 47 -53 19 0 37 -3 40 -7 10
-9 -23 -43 -41 -43 -12 0 -14 -10 -8 -55 5 -46 4 -55 -10 -55 -9 0 -24 10 -33
22 l-18 21 -31 -23 c-39 -29 -49 -21 -35 25 10 31 8 38 -18 71 -37 47 -37 58
2 50 37 -7 59 7 59 39 0 43 36 50 46 8z m531 -20 c7 -31 14 -38 43 -46 19 -5
37 -11 39 -13 3 -3 -10 -18 -28 -35 -34 -30 -34 -36 -15 -101 6 -20 -20 -26
-31 -7 -15 24 -50 27 -72 7 -20 -19 -50 -17 -38 2 3 5 6 25 7 45 1 26 -6 43
-26 64 -31 33 -22 47 27 42 16 -1 29 3 32 11 20 57 26 68 39 68 8 0 18 -16 23
-37z m513 -1 c0 -32 29 -62 61 -62 36 0 38 -19 3 -49 -23 -20 -26 -28 -21 -66
8 -53 1 -60 -31 -35 -30 24 -55 25 -72 5 -13 -16 -40 -21 -40 -7 0 4 4 12 9
18 5 5 11 23 12 40 3 24 -3 37 -25 56 -30 26 -29 50 2 47 40 -4 52 2 58 29 12
49 44 67 44 24z m532 -29 c3 -35 5 -38 38 -41 51 -5 56 -17 24 -49 -24 -24
-28 -35 -27 -75 3 -56 -14 -64 -44 -22 l-20 27 -27 -28 c-31 -31 -56 -22 -37
13 17 32 13 57 -14 82 -36 33 -32 50 10 50 36 0 41 6 59 63 10 32 35 19 38
-20z m-2369 -196 c8 -32 13 -37 37 -37 16 0 36 -3 45 -7 15 -5 11 -11 -20 -37
-36 -31 -37 -33 -26 -71 14 -52 0 -67 -34 -35 l-25 24 -39 -22 c-21 -12 -40
-19 -43 -16 -3 3 1 23 10 45 l15 40 -32 32 c-35 38 -32 47 16 47 23 0 35 5 39
18 23 73 43 79 57 19z m527 -7 c8 -31 17 -41 38 -46 58 -12 59 -14 23 -43 -32
-27 -34 -30 -28 -75 8 -53 -8 -62 -42 -25 l-20 21 -27 -21 c-28 -22 -54 -28
-54 -12 0 6 5 13 10 16 20 12 11 71 -15 95 -33 31 -33 54 0 46 37 -9 62 8 69
49 9 47 33 45 46 -5z m513 13 c3 -10 8 -30 11 -45 5 -22 12 -28 34 -28 15 0
34 -5 42 -10 13 -8 9 -15 -18 -41 -25 -23 -32 -37 -28 -53 18 -63 18 -66 4
-66 -8 0 -25 9 -37 19 -23 20 -44 19 -73 -6 -21 -18 -33 -1 -18 26 16 31 12
56 -15 81 -33 31 -29 54 10 55 29 0 44 18 59 68 3 9 10 17 15 17 5 0 12 -8 14
-17z m537 -44 c4 -29 10 -35 44 -44 51 -14 55 -29 15 -45 -31 -13 -31 -14 -26
-67 3 -29 2 -55 -3 -58 -4 -2 -19 4 -33 15 -30 24 -41 25 -57 5 -7 -8 -19 -15
-27 -15 -11 0 -13 9 -8 45 6 39 4 48 -19 76 -33 39 -33 49 3 49 35 0 61 9 61
20 0 5 5 21 10 35 13 35 34 27 40 -16z m526 -16 c8 -31 14 -38 42 -44 48 -10
50 -16 14 -49 -35 -32 -37 -37 -22 -76 16 -42 -3 -53 -41 -25 -27 20 -33 21
-47 8 -41 -34 -45 -32 -38 15 6 40 4 49 -20 77 -32 38 -27 59 14 53 26 -3 31
0 45 37 21 51 41 52 53 4z m-2375 -192 c8 -40 9 -40 48 -45 47 -5 50 -14 13
-44 -31 -26 -32 -30 -26 -74 8 -55 -5 -62 -43 -26 l-23 22 -20 -22 c-39 -41
-66 -26 -43 24 16 33 16 34 -15 73 -18 22 -32 42 -32 45 0 3 18 6 40 6 24 0
42 5 45 13 20 57 27 68 37 65 7 -3 15 -19 19 -37z m529 -24 c0 -29 7 -34 54
-40 40 -5 42 -18 5 -42 -29 -19 -30 -23 -24 -67 5 -41 3 -48 -12 -48 -9 0 -26
9 -38 20 l-22 20 -18 -20 c-32 -35 -45 -26 -38 25 5 41 3 49 -22 75 -32 33
-27 54 11 40 21 -9 27 -6 44 23 11 17 20 37 20 44 0 16 23 22 32 9 4 -6 8 -24
8 -39z m524 -10 c9 -33 14 -38 48 -43 40 -7 51 -28 20 -38 -31 -10 -47 -51
-34 -81 7 -14 12 -30 12 -35 0 -18 -36 -11 -55 10 -16 17 -20 18 -34 6 -9 -7
-27 -17 -40 -21 -22 -7 -23 -5 -17 16 19 70 19 77 -8 94 -14 10 -26 26 -26 36
0 15 7 19 40 19 28 0 40 4 40 14 0 28 20 68 33 64 6 -3 16 -21 21 -41z m511
23 c3 -5 8 -19 10 -31 7 -33 25 -49 56 -49 36 0 37 -13 3 -53 -22 -26 -25 -37
-19 -74 5 -35 3 -43 -9 -43 -9 0 -24 9 -33 20 -22 25 -28 25 -63 0 -29 -21
-46 -15 -29 10 17 28 10 72 -17 97 -32 30 -27 47 16 47 34 1 45 12 55 59 5 27
19 35 30 17z m541 -52 c8 -38 13 -43 39 -46 60 -6 62 -11 20 -46 -40 -34 -40
-34 -26 -71 18 -51 3 -63 -38 -29 l-32 27 -23 -22 c-30 -28 -50 -28 -41 2 17
54 16 63 -9 92 -36 41 -33 55 10 55 32 0 37 4 52 40 9 22 22 40 28 40 5 0 14
-19 20 -42z m527 -21 c8 -31 13 -37 35 -37 15 0 34 -5 42 -10 13 -9 11 -13
-10 -30 -14 -11 -29 -20 -34 -20 -5 0 -6 -22 -3 -50 3 -27 2 -52 -2 -55 -5 -2
-21 5 -36 16 l-27 22 -29 -22 c-26 -19 -30 -20 -35 -6 -4 9 -2 28 5 41 9 22 8
30 -14 58 -33 43 -32 54 7 58 27 2 36 10 51 41 21 46 38 44 50 -6z m-2379
-182 c5 -27 13 -36 34 -41 15 -3 33 -7 40 -10 14 -4 16 -34 2 -34 -5 0 -19 -9
-29 -19 -17 -17 -18 -25 -9 -61 13 -51 6 -59 -32 -32 -36 27 -36 27 -68 2 -32
-26 -47 -12 -27 26 18 34 11 61 -21 87 -33 26 -30 35 12 39 38 3 46 11 64 61
12 35 26 28 34 -18z m530 -16 c11 -40 22 -49 58 -49 39 0 43 -16 8 -36 -36
-22 -43 -39 -31 -82 12 -42 -2 -51 -39 -24 -28 21 -28 21 -53 2 -42 -33 -60
-22 -36 21 13 25 5 51 -27 88 -27 33 -19 47 22 37 21 -6 27 -1 46 39 25 52 39
53 52 4z m517 21 c1 -5 2 -13 4 -17 16 -61 18 -63 45 -63 41 0 48 -20 16 -45
-26 -21 -28 -26 -21 -74 8 -57 -1 -64 -37 -31 -26 24 -41 25 -58 5 -13 -16
-40 -21 -40 -7 0 4 4 22 9 40 9 28 6 36 -20 64 -40 44 -38 61 5 52 31 -5 36
-3 50 25 9 16 16 37 16 46 0 16 29 21 31 5z m527 -27 c0 -10 4 -30 10 -45 10
-23 18 -28 47 -28 44 0 45 -15 4 -50 -31 -25 -31 -27 -19 -64 6 -20 9 -40 5
-44 -3 -4 -23 3 -44 14 -38 21 -38 21 -65 1 -15 -11 -29 -17 -32 -14 -3 3 0
24 7 47 13 41 12 43 -14 64 -42 34 -31 56 29 56 14 0 24 6 24 14 0 8 4 26 10
40 11 29 39 35 38 9z m528 -30 c11 -50 13 -53 49 -53 42 0 46 -17 9 -51 -23
-21 -25 -29 -20 -71 7 -53 1 -58 -37 -28 -31 25 -36 25 -63 -1 -31 -29 -48
-16 -29 21 21 41 19 52 -15 85 -16 16 -30 32 -30 37 0 4 18 8 40 8 37 0 40 2
51 40 14 46 36 52 45 13z m-1848 -199 c9 -62 11 -64 52 -64 44 0 55 -21 20
-40 -32 -17 -43 -47 -31 -83 15 -41 1 -52 -34 -25 -27 21 -29 21 -57 5 -16 -9
-36 -17 -44 -17 -12 0 -12 4 1 30 22 43 19 64 -15 88 -39 29 -38 42 3 42 42 0
54 9 63 45 4 17 9 34 11 38 8 14 28 1 31 -19z m527 -21 c10 -47 21 -58 60 -63
l37 -5 -36 -37 c-32 -33 -34 -39 -26 -69 6 -19 10 -38 10 -42 0 -12 -44 4 -53
19 -9 16 -37 19 -37 4 0 -13 -38 -32 -50 -25 -5 3 -3 19 4 38 16 38 12 54 -22
85 -19 18 -22 26 -12 32 7 4 20 6 30 3 22 -6 49 22 57 58 7 37 31 38 38 2z
m532 -33 c8 -29 14 -36 39 -38 48 -6 53 -20 15 -51 -32 -26 -33 -29 -22 -66
13 -50 2 -62 -33 -34 -27 21 -29 21 -63 5 -43 -21 -50 -16 -33 24 15 35 1 73
-32 91 -27 15 -22 29 11 29 40 0 61 9 61 26 0 22 32 66 41 57 4 -4 11 -24 16
-43z m522 -10 c6 -22 15 -40 19 -41 4 0 17 -2 30 -3 42 -5 46 -22 12 -46 -31
-22 -32 -25 -26 -71 8 -56 -8 -65 -43 -28 l-20 21 -35 -21 c-20 -13 -37 -18
-40 -12 -4 5 -2 12 4 16 5 3 10 24 10 45 0 29 -5 42 -20 50 -11 6 -20 20 -20
30 0 16 7 20 35 20 31 0 35 3 46 40 7 22 17 40 24 40 7 0 17 -18 24 -40z m566
-58 c44 -5 54 -20 29 -41 -34 -28 -45 -56 -34 -86 15 -40 3 -49 -36 -26 l-34
20 -37 -21 -36 -22 7 25 c20 62 19 78 -8 102 -35 33 -33 45 11 49 33 3 38 7
47 38 15 52 29 55 46 7 13 -35 21 -43 45 -45z"/>
<path d="M3590 6126 c0 -8 5 -16 11 -18 9 -3 9 -10 0 -27 -17 -32 -7 -51 28
-51 20 0 35 8 45 22 27 38 20 55 -31 72 -56 19 -53 19 -53 2z"/>
<path d="M9073 5297 c-12 -7 -31 -24 -43 -39 -13 -17 -31 -28 -46 -28 -31 0
-336 -75 -363 -89 -26 -14 -81 -108 -81 -138 0 -15 7 -24 23 -28 12 -2 159 -9
326 -15 248 -9 307 -9 316 2 7 7 24 41 37 76 14 35 28 62 31 60 3 -2 22 13 42
32 31 30 35 40 30 66 -5 31 -4 31 38 36 39 5 117 44 117 59 0 22 -389 27 -427
6z"/>
<path d="M7527 5103 c-4 -21 -7 -53 -7 -70 l0 -33 95 0 c93 0 96 1 107 26 15
32 2 56 -38 67 -16 5 -49 15 -74 24 -81 27 -77 28 -83 -14z"/>
<path d="M4005 3241 l-30 -7 25 -15 c154 -96 188 -109 348 -139 175 -33 212
-36 212 -17 0 7 6 20 13 29 11 15 20 15 108 -2 162 -31 217 -63 275 -163 20
-34 41 -65 46 -68 6 -4 144 -10 307 -13 163 -4 409 -11 546 -16 138 -5 506
-17 820 -25 536 -15 571 -15 582 1 12 16 14 16 32 0 16 -15 68 -19 417 -31
220 -8 414 -15 432 -15 l32 0 0 79 c0 59 4 82 16 92 27 22 77 101 62 98 -23
-5 -68 11 -68 25 0 23 12 26 43 10 30 -16 46 -9 47 22 0 6 12 9 28 6 18 -2 33
2 41 12 12 14 10 16 -15 16 -16 0 -36 -4 -44 -10 -8 -5 -19 -5 -25 -1 -12 10
-332 21 -1745 61 -201 6 -570 17 -820 25 -250 8 -709 22 -1020 30 -311 8 -581
17 -600 19 -19 2 -48 0 -65 -3z"/>
<path d="M5590 2429 c0 -10 25 -37 57 -61 71 -54 81 -78 63 -153 -15 -63 -11
-76 33 -109 21 -15 47 -20 132 -24 102 -5 105 -4 105 17 0 12 -12 44 -26 72
-28 55 -26 79 6 79 18 0 20 4 14 39 -5 34 -3 41 17 52 13 7 42 15 64 18 36 5
40 9 40 35 0 41 -16 43 -282 49 -209 4 -223 3 -223 -14z"/>
<path d="M6130 2426 c0 -9 30 -14 35 -6 4 6 -3 10 -14 10 -12 0 -21 -2 -21 -4z"/>
<path d="M8032 2374 c-15 -4 -22 -11 -19 -22 2 -9 10 -15 18 -13 60 16 80 -21
33 -64 -24 -22 -26 -28 -16 -50 9 -20 20 -24 58 -27 57 -4 67 -22 25 -45 -37
-21 -42 -53 -8 -53 12 0 31 7 41 15 11 8 26 15 33 15 18 0 16 -45 -2 -60 -8
-7 -15 -16 -15 -21 0 -18 74 -39 135 -39 61 0 65 1 94 37 38 46 39 79 5 151
-14 30 -32 76 -40 101 -8 25 -17 51 -22 58 -8 13 -275 26 -320 17z"/>
</g>
</svg>
