<?xml version="1.0" encoding="iso-8859-1"?>
<!-- Uploaded to: SVG Repo, www.svgrepo.com, Generator: SVG Repo Mixer Tools -->
<svg fill="#000000" height="800px" width="800px" version="1.1" id="Layer_1" xmlns="http://www.w3.org/2000/svg" xmlns:xlink="http://www.w3.org/1999/xlink" 
	 viewBox="0 0 504.32 504.32" xml:space="preserve">
<g transform="translate(2 1)">
	<g>
		<g>
			<path d="M220.72,281.24c-4.267,0-8.533,3.413-8.533,8.533c0,4.267,3.413,8.533,8.533,8.533c4.267,0,8.533-3.413,8.533-8.533
				C229.253,285.507,225.84,281.24,220.72,281.24z"/>
			<path d="M263.387,281.24c-4.267,0-8.533,3.413-8.533,8.533c0,4.267,3.413,8.533,8.533,8.533c4.267,0,8.533-3.413,8.533-8.533
				C271.92,285.507,268.507,281.24,263.387,281.24z"/>
			<path d="M306.053,281.24c-4.267,0-8.533,3.413-8.533,8.533c0,4.267,3.413,8.533,8.533,8.533c4.267,0,8.533-3.413,8.533-8.533
				C314.587,285.507,311.173,281.24,306.053,281.24z"/>
			<path d="M459.653,315.373h-76.8v-28.16c0-22.187-17.92-40.107-40.107-40.107H271.92v-20.452l72.533-35.868
				c17.92-9.387,29.867-27.307,30.72-47.787c0.853-21.333-8.533-39.253-26.453-50.347L267.653,43.16
				c-2.56-1.707-5.973-1.707-8.533,0c-0.219,0.146-0.422,0.307-0.628,0.465c-1.978,1.252-3.253,3.335-3.559,5.968
				c-0.001,0.005-0.001,0.01-0.002,0.015c-0.046,0.4-0.078,0.808-0.078,1.232v170.667v25.6h-71.68L97.84,315.373H-2l0.853,9.387
				c0,1.707,16.213,135.68,119.467,135.68h281.6h9.387l-0.853-9.387c0,0-1.707-21.333,11.093-35.84
				c8.533-9.387,22.187-14.507,40.107-14.507c23.893,0,42.667-18.773,42.667-42.667C502.32,334.147,483.547,315.373,459.653,315.373
				z M358.107,142.147c-0.853,14.507-8.533,27.307-21.333,33.28l-64.853,32.427V66.2l68.267,40.96
				C352.133,114.84,358.96,127.64,358.107,142.147z M189.147,264.173h153.6c12.8,0,23.04,10.24,23.04,23.04v28.16H126
				L189.147,264.173z M459.653,383.64c-23.04,0-40.96,6.827-52.907,20.48c-11.947,12.8-14.507,29.013-15.36,39.253H118.32
				c-24.193,0-44.673-8.537-61.202-25.6h283.069c5.12,0,8.533-3.413,8.533-8.533c0-5.12-3.413-8.533-8.533-8.533H43.702
				c-3.207-4.973-6.215-10.371-9.009-16.213c-1.58-3.159-3.002-6.293-4.313-9.387h275.673c5.12,0,8.533-3.413,8.533-8.533
				s-3.413-8.533-8.533-8.533h-281.6c-0.108,0-0.211,0.01-0.318,0.013c-3.162-10.106-5.098-19.03-6.509-25.613h58.88h306.347h0h76.8
				c14.507,0,25.6,11.093,25.6,25.6C485.253,372.547,474.16,383.64,459.653,383.64z"/>
		</g>
	</g>
</g>
</svg>