<svg width="200" height="90" viewBox="0 0 200 90" fill="none" xmlns="http://www.w3.org/2000/svg">
<path d="M7.59892 75.6649V6.99606C7.59315 5.32277 8.24564 3.7157 9.41287 2.52838C10.5801 1.34106 12.1665 0.670744 13.8229 0.664903H121.24C122.896 0.670744 124.483 1.34106 125.65 2.52838C126.817 3.7157 127.47 5.32277 127.464 6.99606V22.0056H143.274C147.595 22.0053 151.78 23.5373 155.098 26.3344C161.178 31.4541 170.813 39.5939 173.551 42.0636C174.079 42.5434 174.691 42.9207 175.354 43.1765L191.705 49.4165C192.792 49.8344 193.727 50.5767 194.387 51.5448C195.046 52.5128 195.398 53.6607 195.396 54.8358V69.8768C195.401 71.4065 194.805 72.8757 193.738 73.9612C192.67 75.0467 191.22 75.6595 189.706 75.6649L7.59892 75.6649Z" fill="#F3F9FB"/>
<path d="M6.94057 76.3324H189.706C191.395 76.3248 193.011 75.6409 194.202 74.4308C195.392 73.2206 196.059 71.583 196.055 69.8771V54.8368C196.053 53.5275 195.659 52.2495 194.924 51.1709C194.19 50.0923 193.149 49.2636 191.939 48.7938L175.585 42.5544C174.998 42.3274 174.458 41.9931 173.991 41.5683C171.152 39.0093 161.2 30.6051 155.52 25.8241C152.082 22.9313 147.749 21.3452 143.275 21.341H128.124V6.99661C128.127 5.14757 127.405 3.3726 126.114 2.06099C124.824 0.749376 123.072 0.00819418 121.241 0H13.8231C11.9926 0.00819418 10.2401 0.749376 8.94986 2.06099C7.65964 3.3726 6.93703 5.14757 6.94054 6.99661L6.94057 76.3324ZM143.275 22.6731C147.441 22.677 151.474 24.1535 154.675 26.8466C159.245 30.6922 170.184 39.9212 173.113 42.5609C173.7 43.0955 174.38 43.5158 175.119 43.8007L191.473 50.0401C192.433 50.4133 193.258 51.0713 193.841 51.9274C194.423 52.7836 194.735 53.7978 194.736 54.8367V69.877C194.74 71.2298 194.213 72.5288 193.27 73.4893C192.327 74.4497 191.045 74.9931 189.706 75.0002H8.25935V6.99661C8.25519 5.5007 8.83864 4.0642 9.88167 3.00228C10.9247 1.94035 12.3421 1.33973 13.823 1.33218H121.241C122.722 1.33973 124.14 1.94035 125.183 3.00228C126.226 4.0642 126.809 5.5007 126.805 6.99661V22.6731L143.275 22.6731Z" fill="#323232"/>
<path d="M165.438 42.9438L150.651 30.0047C148.044 27.7229 144.709 26.4669 141.259 26.4669H133.157C132.944 26.4669 132.734 26.5092 132.537 26.5914C132.341 26.6736 132.162 26.7942 132.012 26.9461C131.861 27.098 131.742 27.2784 131.66 27.4769C131.579 27.6754 131.537 27.8882 131.537 28.1031V44.1805C131.537 44.3954 131.579 44.6081 131.66 44.8067C131.742 45.0052 131.861 45.1856 132.012 45.3375C132.162 45.4894 132.341 45.61 132.537 45.6922C132.734 45.7744 132.944 45.8167 133.157 45.8167H164.378C164.708 45.8167 165.03 45.7148 165.302 45.5245C165.573 45.3342 165.78 45.0648 165.895 44.7522C166.011 44.4396 166.029 44.0989 165.947 43.7757C165.865 43.4524 165.688 43.1622 165.438 42.9438Z" fill="#F3F9FB"/>
<path d="M133.157 46.4818H164.378C164.842 46.4815 165.296 46.3379 165.677 46.0703C166.059 45.8027 166.35 45.4237 166.513 44.9841C166.675 44.5445 166.701 44.0653 166.586 43.6106C166.472 43.1559 166.222 42.7474 165.872 42.4397L151.084 29.5003C148.356 27.115 144.869 25.8016 141.26 25.8005H133.157C132.553 25.8011 131.973 26.0437 131.546 26.4751C131.119 26.9065 130.878 27.4915 130.877 28.1018V44.1803C130.878 44.7906 131.119 45.3756 131.546 45.8071C131.973 46.2385 132.553 46.4811 133.157 46.4818ZM141.26 27.1326C144.551 27.1331 147.731 28.3311 150.219 30.5073L165.006 43.4466C165.154 43.5762 165.259 43.7483 165.307 43.9398C165.356 44.1312 165.345 44.333 165.277 44.5182C165.208 44.7033 165.086 44.863 164.925 44.9758C164.764 45.0887 164.574 45.1493 164.378 45.1496H133.157C132.902 45.1497 132.658 45.0476 132.478 44.8659C132.298 44.6841 132.196 44.4376 132.196 44.1804V28.1018C132.196 27.8447 132.298 27.5981 132.478 27.4163C132.658 27.2346 132.902 27.1326 133.157 27.1326H141.26Z" fill="#323232"/>
<path d="M162.013 40.5226H163.332V75.8566H162.013V40.5226Z" fill="#323232"/>
<path d="M194.309 75.6655H183.732L182.419 66.4462H196.181C196.894 66.4462 197.579 66.7327 198.084 67.2427C198.589 67.7527 198.873 68.4444 198.873 69.1656V71.0558C198.873 71.6612 198.755 72.2606 198.525 72.8199C198.296 73.3792 197.96 73.8873 197.536 74.3154C197.112 74.7434 196.609 75.083 196.055 75.3146C195.502 75.5463 194.908 75.6655 194.309 75.6655Z" fill="#323232"/>
<path d="M183.732 76.3322H194.309C195.693 76.3304 197.021 75.7739 198 74.7848C198.98 73.7956 199.53 72.4545 199.532 71.0556V69.1653C199.531 68.2679 199.178 67.4075 198.55 66.7729C197.921 66.1383 197.07 65.7813 196.181 65.7802H182.419C182.324 65.7805 182.231 65.8012 182.145 65.841C182.059 65.8807 181.983 65.9387 181.921 66.0108C181.859 66.0829 181.814 66.1676 181.787 66.2591C181.761 66.3506 181.754 66.4468 181.767 66.5412L183.081 75.7611C183.103 75.9196 183.181 76.0646 183.301 76.1695C183.421 76.2744 183.574 76.3321 183.732 76.3322ZM196.181 67.1124C196.72 67.113 197.236 67.3295 197.617 67.7144C197.998 68.0992 198.213 68.621 198.213 69.1653V71.0556C198.212 72.1014 197.801 73.1041 197.068 73.8436C196.336 74.5831 195.344 74.999 194.309 75.0001H184.304L183.178 67.1124L196.181 67.1124Z" fill="#323232"/>
<path d="M184.82 76.2412C184.82 71.5942 182.993 67.1374 179.74 63.8515C176.487 60.5655 172.075 58.7194 167.474 58.7194C162.874 58.7194 158.462 60.5655 155.209 63.8515C151.956 67.1374 150.129 71.5942 150.129 76.2412H184.82Z" fill="#323232"/>
<path d="M167.474 90.0001C159.952 90.0001 153.854 83.84 153.854 76.2412C153.854 68.6424 159.952 62.4823 167.474 62.4823C174.997 62.4823 181.095 68.6424 181.095 76.2412C181.095 83.84 174.997 90.0001 167.474 90.0001Z" fill="#323232"/>
<path d="M167.474 85.9846C162.147 85.9846 157.829 81.6225 157.829 76.2415C157.829 70.8605 162.147 66.4983 167.474 66.4983C172.801 66.4983 177.12 70.8605 177.12 76.2415C177.12 81.6225 172.801 85.9846 167.474 85.9846Z" fill="#323232"/>
<path d="M167.475 83.1546C163.641 83.1546 160.533 80.0593 160.533 76.2412C160.533 72.4231 163.641 69.3279 167.475 69.3279C171.308 69.3279 174.416 72.4231 174.416 76.2412C174.416 80.0593 171.308 83.1546 167.475 83.1546Z" fill="#F3F9FB"/>
<path d="M189.995 52.1514V60.5285H196.222V55.0792C196.222 54.6947 196.147 54.314 196.002 53.9587C195.856 53.6035 195.642 53.2808 195.373 53.0089C195.104 52.737 194.785 52.5214 194.433 52.3742C194.081 52.2271 193.704 52.1514 193.324 52.1514H189.995Z" fill="#323232"/>
<path d="M189.994 61.1948H196.222C196.397 61.1946 196.565 61.1244 196.689 60.9995C196.812 60.8746 196.882 60.7053 196.882 60.5287V55.079C196.881 54.1264 196.505 53.2132 195.839 52.5396C195.172 51.866 194.268 51.487 193.325 51.4857H189.994C189.819 51.4858 189.652 51.556 189.528 51.6809C189.404 51.8058 189.335 51.9752 189.335 52.1518V60.5286C189.335 60.7052 189.404 60.8746 189.528 60.9995C189.652 61.1244 189.819 61.1946 189.994 61.1948ZM195.563 59.8626H190.654V52.818H193.325C193.918 52.8188 194.487 53.0573 194.907 53.4812C195.326 53.905 195.562 54.4796 195.563 55.0791V59.8626Z" fill="#323232"/>
<path d="M189.995 60.2005H196.222V66.1609H189.995V60.2005Z" fill="#323232"/>
<path d="M189.994 66.8264H196.222C196.397 66.8262 196.565 66.756 196.689 66.6311C196.812 66.5062 196.882 66.3369 196.882 66.1603V60.2006C196.882 60.024 196.812 59.8546 196.689 59.7297C196.565 59.6048 196.397 59.5346 196.222 59.5345H189.994C189.819 59.5346 189.652 59.6048 189.528 59.7297C189.404 59.8546 189.335 60.024 189.335 60.2006V66.1603C189.335 66.3369 189.404 66.5063 189.528 66.6311C189.652 66.756 189.819 66.8262 189.994 66.8264ZM195.563 65.4942H190.654V60.8667H195.563L195.563 65.4942Z" fill="#323232"/>
<path d="M8.01176 42.731H124.765V44.0619H8.01176V42.731Z" fill="#323232"/>
<path d="M76.2804 67.1632H119.306C119.481 67.1632 119.649 67.093 119.773 66.9683C119.896 66.8435 119.966 66.6742 119.966 66.4977C119.966 66.3212 119.896 66.152 119.773 66.0272C119.649 65.9024 119.481 65.8323 119.306 65.8323H76.2804C76.1055 65.8323 75.9378 65.9024 75.8141 66.0272C75.6905 66.152 75.621 66.3212 75.621 66.4977C75.621 66.6742 75.6905 66.8435 75.8141 66.9683C75.9378 67.093 76.1055 67.1632 76.2804 67.1632Z" fill="#323232"/>
<path d="M11.6594 67.1632H36.387C36.5619 67.1632 36.7296 67.093 36.8532 66.9683C36.9769 66.8435 37.0464 66.6742 37.0464 66.4977C37.0464 66.3212 36.9769 66.152 36.8532 66.0272C36.7296 65.9024 36.5619 65.8323 36.387 65.8323H11.6594C11.4845 65.8323 11.3168 65.9024 11.1931 66.0272C11.0694 66.152 11 66.3212 11 66.4977C11 66.6742 11.0694 66.8435 11.1931 66.9683C11.3168 67.093 11.4845 67.1632 11.6594 67.1632Z" fill="#323232"/>
<path d="M106.564 59.7607C107.234 59.7606 107.889 59.5598 108.446 59.1838C109.002 58.8078 109.436 58.2735 109.693 57.6483C109.949 57.0232 110.016 56.3354 109.885 55.6718C109.754 55.0082 109.432 54.3988 108.958 53.9204C108.484 53.4421 107.881 53.1164 107.224 52.9845C106.567 52.8527 105.886 52.9205 105.267 53.1796C104.648 53.4386 104.12 53.8772 103.748 54.4398C103.376 55.0024 103.177 55.6639 103.177 56.3404C103.178 57.2474 103.536 58.1169 104.171 58.7581C104.806 59.3993 105.666 59.7599 106.564 59.7607ZM106.564 54.2511C106.973 54.2513 107.373 54.3738 107.713 54.6034C108.053 54.833 108.318 55.1592 108.474 55.5408C108.631 55.9225 108.671 56.3424 108.592 56.7475C108.512 57.1526 108.315 57.5247 108.026 57.8168C107.737 58.1088 107.368 58.3078 106.967 58.3884C106.566 58.469 106.15 58.4277 105.773 58.2697C105.395 58.1116 105.072 57.844 104.845 57.5006C104.617 57.1573 104.496 56.7535 104.496 56.3405C104.496 55.7865 104.714 55.2553 105.102 54.8636C105.49 54.4718 106.016 54.2516 106.564 54.2511Z" fill="#323232"/>
<path d="M124.106 2.03729H125.424V75.6663H124.106V2.03729Z" fill="#323232"/>
<path d="M8.20495 5.27285H124.765V6.60373H8.20495V5.27285Z" fill="#323232"/>
<path d="M131.538 50.2262L133.791 50.9376V56.4875H131.538V50.2262Z" fill="#323232"/>
<path d="M130.877 57.1536H134.45V50.4471L130.877 49.3218L130.877 57.1536ZM133.131 55.8214H132.196V51.1328L133.131 51.4281V55.8214Z" fill="#323232"/>
<path d="M0.779443 71.8757H7.59912V75.6502H0.779443V71.8757Z" fill="#323232"/>
<path d="M0.779175 76.3169H7.59987C7.77472 76.3167 7.94238 76.2465 8.06601 76.1216C8.18965 75.9967 8.25916 75.8274 8.25928 75.6508V71.8754C8.25916 71.6987 8.18965 71.5294 8.06601 71.4045C7.94238 71.2796 7.77472 71.2094 7.59987 71.2093H0.779175C0.604327 71.2094 0.436673 71.2796 0.313037 71.4045C0.189401 71.5294 0.119891 71.6987 0.119772 71.8754V75.6508C0.119891 75.8274 0.189401 75.9967 0.313037 76.1216C0.436673 76.2465 0.604327 76.3167 0.779175 76.3169ZM6.94047 74.9847H1.43858V72.5415H6.94047V74.9847Z" fill="#323232"/>
<path d="M38.5356 76.2404L44.1564 60.7818H68.5753L74.1987 76.2404H38.5356Z" fill="#323232"/>
<path d="M56.8529 90.0001C49.3303 90.0001 43.2321 83.84 43.2321 76.2412C43.2321 68.6424 49.3303 62.4823 56.8529 62.4823C64.3754 62.4823 70.4736 68.6424 70.4736 76.2412C70.4736 83.84 64.3754 90.0001 56.8529 90.0001Z" fill="#323232"/>
<path d="M56.8527 85.9846C51.5257 85.9846 47.2074 81.6225 47.2074 76.2415C47.2074 70.8605 51.5257 66.4983 56.8527 66.4983C62.1797 66.4983 66.498 70.8605 66.498 76.2415C66.498 81.6225 62.1797 85.9846 56.8527 85.9846Z" fill="#323232"/>
<path d="M56.8529 83.681C52.7275 83.681 49.3831 80.3502 49.3831 76.2414C49.3831 72.1326 52.7275 68.8017 56.8529 68.8017C60.9784 68.8017 64.3228 72.1326 64.3228 76.2414C64.3228 80.3502 60.9784 83.681 56.8529 83.681Z" fill="#F3F9FB"/>
<path d="M153.858 40.7378H158.295C158.849 40.7378 159.297 41.1909 159.297 41.7499V49.8831C159.297 50.4421 158.849 50.8952 158.295 50.8952H153.858C153.304 50.8952 152.856 50.4421 152.856 49.8831V41.7499C152.856 41.1909 153.304 40.7378 153.858 40.7378Z" fill="#323232"/>
<path d="M153.858 51.561H158.297C158.737 51.5606 159.159 51.3836 159.471 51.069C159.782 50.7544 159.958 50.3277 159.958 49.8828V41.7492C159.958 41.3042 159.782 40.8776 159.471 40.563C159.159 40.2483 158.737 40.0714 158.297 40.071H153.859C153.418 40.0714 152.996 40.2483 152.684 40.563C152.373 40.8776 152.198 41.3042 152.197 41.7492V49.8828C152.198 50.3277 152.373 50.7543 152.684 51.069C152.996 51.3836 153.418 51.5606 153.858 51.561ZM158.297 41.4031C158.387 41.4044 158.473 41.4413 158.537 41.5059C158.601 41.5705 158.638 41.6578 158.639 41.7492V49.8827C158.638 49.9741 158.601 50.0614 158.537 50.126C158.473 50.1906 158.387 50.2275 158.297 50.2288H153.859C153.768 50.2275 153.682 50.1906 153.618 50.126C153.554 50.0614 153.517 49.9741 153.516 49.8827V41.7492C153.517 41.6578 153.554 41.5705 153.618 41.5059C153.682 41.4413 153.768 41.4044 153.859 41.4032L158.297 41.4031Z" fill="#323232"/>
<path d="M159.339 46.3596H162.843C163.017 46.3596 163.185 46.2895 163.309 46.1647C163.432 46.0399 163.502 45.8706 163.502 45.6941C163.502 45.5176 163.432 45.3484 163.309 45.2236C163.185 45.0988 163.017 45.0287 162.843 45.0287H159.339C159.165 45.0287 158.997 45.0988 158.873 45.2236C158.75 45.3484 158.68 45.5176 158.68 45.6941C158.68 45.8706 158.75 46.0399 158.873 46.1647C158.997 46.2895 159.165 46.3596 159.339 46.3596H159.339Z" fill="#323232"/>
<path d="M152.856 46.2866H159.298V47.6175H152.856V46.2866Z" fill="#323232"/>
<path d="M127.464 75.9615C127.639 75.9613 127.807 75.8911 127.93 75.7662C128.054 75.6413 128.123 75.472 128.124 75.2954V21.372C128.124 21.1953 128.054 21.0259 127.93 20.901C127.807 20.7761 127.639 20.7059 127.464 20.7059C127.289 20.7059 127.122 20.7761 126.998 20.901C126.874 21.0259 126.805 21.1953 126.805 21.372V75.2954C126.805 75.472 126.874 75.6413 126.998 75.7662C127.122 75.8911 127.289 75.9613 127.464 75.9615Z" fill="#323232"/>
</svg>
