<svg width="240" height="90" viewBox="0 0 240 90" fill="none" xmlns="http://www.w3.org/2000/svg">
<path d="M236.847 58.7885V52.3379C236.847 51.4649 236.594 50.6109 236.12 49.8808C235.646 49.1506 234.971 48.5759 234.178 48.2274L211.044 38.0613C211.044 38.0613 186.281 14.7535 182.744 11.1839C179.538 7.90316 175.714 5.30278 171.497 3.53577C167.28 1.76876 162.755 0.870823 158.189 0.894818C144.456 0.474842 27.9263 0.894818 24.5969 0.894818H13.1522C11.0713 0.894818 7.42697 2.78471 6.12784 11.1839C4.82869 19.583 3.20042 35.265 2.6958 41.6835C2.19116 48.102 2.44664 64.5187 2.44664 64.5187L12.3719 74.8152H229.98L236.847 58.7885Z" fill="#F3F9FB"/>
<path d="M12.0752 75.5247H230.442L237.549 58.7882V52.3383C237.549 51.3268 237.257 50.3373 236.708 49.4912C236.158 48.6452 235.376 47.9795 234.457 47.5761L211.435 37.4599C209.807 35.9289 186.623 14.0962 183.24 10.6821C179.977 7.33028 176.081 4.67402 171.781 2.87103C167.482 1.06804 162.867 0.155067 158.211 0.186297C150.264 -0.0561823 107.481 -0.0617159 31.0377 0.168278C27.3248 0.179373 25.0262 0.186297 24.5979 0.186297H13.1518C10.2354 0.186297 6.67354 3.04614 5.43225 11.0742C4.16077 19.2935 2.52127 34.9077 1.99677 41.6277C1.49422 48.0056 1.74135 64.3652 1.74411 64.5301L1.74973 64.8113L1.94199 65.0136L12.0752 75.5247ZM229.519 74.1058H12.6684L3.14455 64.2266C3.11433 62.0277 2.93584 47.5926 3.39719 41.7399C3.92171 35.0406 5.55569 19.4805 6.82167 11.2931C8.24696 2.07205 12.3443 1.60511 13.1517 1.60511H24.5978C25.0262 1.60511 27.3275 1.59818 31.0403 1.58709C107.464 1.35846 150.233 1.36263 158.167 1.60511C162.645 1.57114 167.084 2.44598 171.221 4.17764C175.357 5.90929 179.107 8.46241 182.246 11.6852C185.75 15.224 210.315 38.3467 210.562 38.5794L210.762 38.7111L233.896 48.8771C234.564 49.1706 235.133 49.6544 235.532 50.2693C235.931 50.8842 236.143 51.6033 236.143 52.3383V58.6413L229.519 74.1058Z" fill="#131313"/>
<path d="M194.321 35.8237H195.727V74.9346H194.321V35.8237Z" fill="#131313"/>
<path d="M233.361 74.7234H221.64L210.966 59.4162H238.417V69.621C238.417 70.2911 238.286 70.9545 238.032 71.5736C237.778 72.1926 237.406 72.7551 236.936 73.2289C236.467 73.7027 235.909 74.0785 235.296 74.335C234.682 74.5914 234.025 74.7234 233.361 74.7234Z" fill="#131313"/>
<path d="M221.64 75.4333H233.361C234.888 75.4315 236.351 74.8187 237.431 73.7293C238.511 72.6399 239.118 71.1628 239.12 69.6222V59.4175C239.12 59.2294 239.045 59.049 238.914 58.916C238.782 58.783 238.603 58.7082 238.417 58.708H210.966C210.837 58.7082 210.711 58.744 210.601 58.8115C210.491 58.8791 210.401 58.9758 210.342 59.0912C210.283 59.2065 210.256 59.336 210.265 59.4656C210.274 59.5952 210.318 59.7199 210.392 59.8261L221.066 75.1325C221.131 75.2253 221.217 75.3011 221.317 75.3535C221.417 75.4058 221.527 75.4332 221.64 75.4333ZM237.713 60.1269V69.6223C237.712 70.7868 237.253 71.9032 236.437 72.7266C235.621 73.55 234.515 74.0132 233.361 74.0145H222.005L212.319 60.1269H237.713Z" fill="#131313"/>
<path d="M229.946 50.1441V52.4534C229.946 54.3001 230.673 56.0712 231.967 57.3771C233.261 58.6829 235.017 59.4166 236.847 59.4166V53.3848C236.847 52.5253 236.508 51.7011 235.906 51.0933C235.304 50.4856 234.487 50.1442 233.635 50.1442L229.946 50.1441Z" fill="#131313"/>
<path d="M236.846 60.1273C237.032 60.1272 237.211 60.0524 237.343 59.9194C237.475 59.7863 237.549 59.606 237.549 59.4179V53.385C237.548 52.3378 237.135 51.3337 236.402 50.5932C235.668 49.8526 234.673 49.4359 233.636 49.4347H229.947C229.761 49.4348 229.582 49.5096 229.45 49.6426C229.319 49.7756 229.244 49.956 229.244 50.1441V52.4539C229.246 54.488 230.048 56.4381 231.473 57.8767C232.898 59.3152 234.83 60.1246 236.846 60.1273ZM233.636 50.8536C234.3 50.8548 234.938 51.122 235.408 51.5965C235.878 52.071 236.142 52.7141 236.143 53.385V58.6682C234.632 58.4917 233.237 57.7613 232.225 56.6157C231.212 55.47 230.652 53.9889 230.65 52.4538V50.8534L233.636 50.8536Z" fill="#131313"/>
<path d="M170.722 46.566L171.503 44.0474H175.92C176.438 44.0474 176.948 44.1698 177.411 44.4048C177.874 44.6398 178.275 44.9808 178.584 45.4006L179.44 46.566H170.722Z" fill="#131313"/>
<path d="M170.723 47.2754H179.439C179.569 47.2758 179.697 47.2396 179.808 47.1709C179.919 47.1021 180.009 47.0036 180.068 46.8863C180.126 46.7689 180.152 46.6374 180.14 46.5065C180.129 46.3755 180.082 46.2503 180.005 46.1447L179.151 44.9795C178.775 44.4715 178.287 44.0587 177.726 43.7737C177.165 43.4887 176.546 43.3394 175.918 43.3376H171.502C171.353 43.3375 171.207 43.3858 171.087 43.4753C170.966 43.5648 170.877 43.6908 170.832 43.835L170.053 46.354C170.02 46.4601 170.012 46.5726 170.03 46.6823C170.048 46.7921 170.091 46.8959 170.157 46.9856C170.222 47.0753 170.307 47.1483 170.405 47.1986C170.504 47.2489 170.612 47.2752 170.723 47.2754L170.723 47.2754ZM178.044 45.8565H171.678L172.019 44.7564H175.918C176.327 44.7574 176.729 44.8543 177.094 45.0395C177.458 45.2247 177.775 45.4931 178.019 45.8233L178.044 45.8565Z" fill="#131313"/>
<path d="M28.0995 37.9962H154.365C155.461 37.9961 156.517 37.578 157.321 36.8255C158.126 36.073 158.618 35.0418 158.701 33.9383L159.709 20.4665C159.754 19.8641 159.675 19.2588 159.478 18.6885C159.28 18.1182 158.968 17.5952 158.561 17.1522C158.154 16.7093 157.661 16.3559 157.112 16.1142C156.563 15.8725 155.971 15.7478 155.373 15.7478H30.7534C29.6592 15.7478 28.5981 16.127 27.7478 16.8219C26.8975 17.5169 26.3095 18.4854 26.0822 19.5655L23.4284 32.1765C23.2806 32.8786 23.2902 33.6051 23.4563 34.303C23.6225 35.0009 23.941 35.6526 24.3887 36.2103C24.8364 36.7681 25.4019 37.2179 26.0439 37.5268C26.6859 37.8358 27.3882 37.9962 28.0995 37.9962Z" fill="#F3F9FB"/>
<path d="M28.0988 38.7055H154.363C155.636 38.7008 156.861 38.2133 157.794 37.3398C158.727 36.4663 159.3 35.2707 159.4 33.9904L160.408 20.5197C160.461 19.8199 160.37 19.1166 160.14 18.454C159.911 17.7913 159.549 17.1836 159.076 16.669C158.603 16.1543 158.03 15.7438 157.392 15.4632C156.755 15.1826 156.067 15.038 155.371 15.0383H30.7544C29.5002 15.0422 28.2851 15.4787 27.3105 16.2754C26.336 17.072 25.6607 18.181 25.3966 19.4182L22.7411 32.0298C22.5711 32.8352 22.5817 33.6687 22.7721 34.4695C22.9624 35.2702 23.3278 36.0179 23.8414 36.6578C24.355 37.2977 25.0038 37.8137 25.7404 38.168C26.4771 38.5223 27.2829 38.7059 28.0989 38.7055H28.0988ZM155.371 16.4572C155.873 16.4572 156.369 16.5618 156.829 16.7643C157.289 16.9668 157.703 17.2629 158.044 17.6341C158.385 18.0052 158.647 18.4435 158.813 18.9214C158.979 19.3994 159.045 19.9067 159.007 20.4116L157.999 33.8837C157.927 34.8078 157.513 35.6708 156.839 36.3012C156.166 36.9316 155.282 37.2833 154.363 37.2867H28.0988C27.4922 37.2866 26.8932 37.1499 26.3457 36.8864C25.7981 36.6229 25.3158 36.2393 24.9339 35.7637C24.5521 35.2881 24.2803 34.7324 24.1384 34.1372C23.9966 33.542 23.9883 32.9224 24.1141 32.3236L26.7697 19.712C26.9674 18.7927 27.4702 17.9691 28.1947 17.3773C28.9193 16.7855 29.8223 16.4609 30.7544 16.4571L155.371 16.4572Z" fill="#131313"/>
<path d="M2.69589 41.6836H8.47021C8.47021 41.6836 8.08006 55.263 8.47021 58.7886C8.69417 61.2356 8.69417 63.6981 8.47021 66.1451H2.38201C2.38201 66.1451 1.90431 58.7741 1.91278 54.441C1.92124 50.1079 2.69589 41.6836 2.69589 41.6836Z" fill="#131313"/>
<path d="M2.38123 66.8551H8.46941C8.64345 66.8546 8.81117 66.7893 8.9404 66.6717C9.06963 66.554 9.15126 66.3924 9.16962 66.2177C9.40077 63.7203 9.39983 61.2065 9.16681 58.7092C8.78783 55.2744 9.16681 41.8384 9.17243 41.704C9.17543 41.609 9.15945 41.5144 9.12545 41.4258C9.09144 41.3372 9.0401 41.2564 8.97449 41.1883C8.90889 41.1202 8.83035 41.066 8.74358 41.0292C8.6568 40.9923 8.56356 40.9735 8.46941 40.9738H2.69695C2.52165 40.9737 2.35265 41.0398 2.22311 41.159C2.09357 41.2782 2.01283 41.4419 1.99674 41.6181C1.96654 41.9631 1.21955 50.1228 1.20859 54.4402C1.20035 58.7466 1.67539 66.1179 1.68102 66.1914C1.69177 66.3713 1.77028 66.5402 1.90045 66.6636C2.03063 66.787 2.20263 66.8555 2.38123 66.8551ZM7.82419 65.4363H3.04033C2.92504 63.5297 2.60919 57.9486 2.61468 54.4431C2.62291 50.8822 3.16116 44.442 3.33965 42.3927H7.74729C7.67041 45.29 7.42874 55.7663 7.77201 58.8673C7.97375 61.0515 7.99122 63.2491 7.82419 65.4363Z" fill="#131313"/>
<path d="M12.3716 66.1454H2.95949C2.77352 66.1263 2.58567 66.1493 2.40963 66.2127C2.2336 66.2762 2.07385 66.3786 1.94203 66.5124C1.81022 66.6461 1.70967 66.8079 1.64774 66.9859C1.58581 67.1639 1.56404 67.3536 1.58406 67.5411L2.36778 71.2731C2.67931 72.3442 3.34097 73.2773 4.24503 73.9205C5.14909 74.5638 6.2423 74.8793 7.3467 74.8156H12.3716V66.1454Z" fill="#131313"/>
<path d="M7.34616 75.5248H12.3717C12.5581 75.5247 12.7368 75.4499 12.8687 75.3169C13.0005 75.1839 13.0746 75.0035 13.0747 74.8154V66.1458C13.0746 65.9577 13.0005 65.7774 12.8687 65.6443C12.7368 65.5113 12.5581 65.4366 12.3717 65.4364H2.9605C2.63705 65.4321 2.31667 65.5001 2.02231 65.6355C1.72795 65.7708 1.4669 65.9702 1.25786 66.2193C1.09232 66.4213 0.974014 66.6584 0.911734 66.9129C0.849453 67.1674 0.844802 67.4328 0.89811 67.6894L1.68077 71.4194C2.02435 72.6502 2.77205 73.7268 3.80137 74.4727C4.83068 75.2186 6.08055 75.5896 7.34616 75.5248ZM11.6687 74.106H7.34616C6.40263 74.1696 5.46547 73.9099 4.68645 73.369C3.90744 72.828 3.33219 72.0376 3.05389 71.1256L2.2712 67.3942C2.26243 67.3441 2.26503 67.2926 2.27882 67.2437C2.29261 67.1947 2.31725 67.1496 2.35084 67.1116C2.42787 67.0267 2.52233 66.9598 2.62763 66.9155C2.73293 66.8712 2.84652 66.8507 2.9605 66.8553H11.6687V74.106Z" fill="#131313"/>
<path d="M209.598 43.863C209.62 43.867 209.643 43.8636 209.663 43.8533C209.683 43.843 209.699 43.8264 209.709 43.806C209.718 43.7857 209.721 43.7626 209.717 43.7405C209.712 43.7184 209.7 43.6984 209.684 43.6836C207.057 41.0793 189.367 19.698 185.865 18.3238C181.163 17.0521 176.358 16.2088 171.507 15.804C170.571 15.699 167.449 15.384 168.281 18.9538C169.114 22.5236 170.154 30.0827 170.571 31.5526C170.882 33.2482 171.73 34.7964 172.986 35.9649C174.243 37.1335 175.841 37.8596 177.541 38.0344C182.561 38.6444 206.209 43.2072 209.598 43.863Z" fill="#F3F9FB"/>
<path d="M209.983 44.6549L210.57 43.6726L210.175 43.1779C209.453 42.4588 207.5 40.2142 205.026 37.3723C196.471 27.5374 188.587 18.6309 186.121 17.6624C181.485 16.3065 176.717 15.4578 171.901 15.1309L171.585 15.0976C170.972 14.9636 170.335 14.974 169.726 15.128C169.117 15.2821 168.551 15.5756 168.073 15.9858C167.745 16.4282 167.531 16.9451 167.448 17.4909C167.365 18.0368 167.417 18.5948 167.598 19.1158C168.043 21.0237 168.545 24.0776 168.99 26.7698C169.383 29.153 169.693 31.0332 169.896 31.7468C170.248 33.5756 171.173 35.2419 172.534 36.5004C173.895 37.7589 175.621 38.543 177.457 38.7371C182.353 39.333 204.979 43.6919 209.466 44.5593L209.472 44.5607L209.983 44.6549ZM170.641 16.457C170.905 16.4593 171.169 16.4764 171.431 16.5082L171.753 16.5429C176.444 16.8673 181.088 17.6855 185.61 18.9843C187.961 19.9071 198.374 31.8771 203.968 38.3076C205.558 40.1338 206.932 41.7134 207.917 42.8163C200.961 41.4765 182.084 37.8712 177.627 37.3294C176.077 37.1712 174.619 36.5104 173.473 35.446C172.326 34.3817 171.552 32.971 171.267 31.4254C171.066 30.7202 170.731 28.6889 170.377 26.5371C169.929 23.8227 169.421 20.7454 168.965 18.7917C168.857 18.4876 168.815 18.1635 168.843 17.8416C168.87 17.5197 168.967 17.2076 169.125 16.9267C169.334 16.7512 169.576 16.6193 169.836 16.5386C170.096 16.458 170.37 16.4302 170.64 16.4569L170.641 16.457Z" fill="#131313"/>
<path d="M206.67 40.6748L211.315 38.7168L210.77 37.4087L206.127 39.3667L206.67 40.6748Z" fill="#131313"/>
<path d="M187.046 19.9999L187.897 18.8693L179.607 12.508C175.04 9.01949 169.475 7.12079 163.747 7.09733L6.96979 6.78141L6.96417 8.20025L163.742 8.51617C169.164 8.53824 174.432 10.3358 178.755 13.6387L187.046 19.9999Z" fill="#131313"/>
<path d="M183.526 18.3527L183.976 17.0086L168.836 11.8529C166.825 11.1539 164.708 10.8158 162.58 10.8539L6.12967 10.4742L6.12404 11.8931L162.586 12.2727C164.558 12.2358 166.521 12.5486 168.386 13.1969L183.526 18.3527Z" fill="#131313"/>
<path d="M164.978 11.7948H166.384V74.9345H164.978V11.7948Z" fill="#131313"/>
<path d="M112.33 0.70944H113.736V75.3592H112.33V0.70944Z" fill="#131313"/>
<path d="M210.967 59.4174L65.1901 58.7902H8.46997V66.1455L206.119 65.2403L210.967 59.4174Z" fill="#131313"/>
<path d="M8.46947 66.855H8.47227L206.121 65.9502C206.224 65.9495 206.324 65.9265 206.417 65.8827C206.509 65.8389 206.591 65.7754 206.657 65.6966L211.504 59.873C211.59 59.7697 211.644 59.6439 211.662 59.5104C211.679 59.3769 211.659 59.2411 211.603 59.1189C211.547 58.9967 211.457 58.8931 211.345 58.8203C211.232 58.7475 211.102 58.7085 210.968 58.7077L65.1922 58.0787H8.46953C8.28311 58.0788 8.1044 58.1536 7.97258 58.2866C7.84076 58.4196 7.76663 58.6 7.76651 58.7881V66.1455C7.76622 66.2388 7.78423 66.3312 7.81946 66.4174C7.85469 66.5036 7.90645 66.5819 7.97179 66.6478C8.03712 66.7137 8.11475 66.766 8.20016 66.8015C8.2856 66.8371 8.37714 66.8552 8.46953 66.855H8.46947ZM205.789 64.5327L9.1725 65.4333V59.4975H65.1894L209.464 60.1196L205.789 64.5327Z" fill="#131313"/>
<path d="M228.211 75.3456C228.211 70.3963 226.263 65.6496 222.794 62.1499C219.326 58.6502 214.622 56.6841 209.718 56.6841C204.813 56.6841 200.109 58.6502 196.641 62.1499C193.172 65.6496 191.224 70.3963 191.224 75.3456H228.211Z" fill="#131313"/>
<path d="M209.718 89.9999C201.698 89.9999 195.196 83.4391 195.196 75.346C195.196 67.2528 201.698 60.692 209.718 60.692C217.738 60.692 224.24 67.2528 224.24 75.346C224.24 83.4391 217.738 89.9999 209.718 89.9999Z" fill="#131313"/>
<path d="M209.718 85.7226C204.038 85.7226 199.434 81.0767 199.434 75.3456C199.434 69.6146 204.038 64.9687 209.718 64.9687C215.397 64.9687 220.001 69.6146 220.001 75.3456C220.001 81.0767 215.397 85.7226 209.718 85.7226Z" fill="#131313"/>
<path d="M209.718 82.7088C205.63 82.7088 202.317 79.4123 202.317 75.3458C202.317 71.2793 205.63 67.9827 209.718 67.9827C213.805 67.9827 217.118 71.2793 217.118 75.3458C217.118 79.4123 213.805 82.7088 209.718 82.7088Z" fill="#F3F9FB"/>
<path d="M79.9932 75.3456C79.9932 70.3963 78.0448 65.6496 74.5766 62.1499C71.1084 58.6502 66.4045 56.6841 61.4998 56.6841C56.595 56.6841 51.8911 58.6502 48.4229 62.1499C44.9547 65.6496 43.0063 70.3963 43.0063 75.3456H79.9932Z" fill="#131313"/>
<path d="M61.4996 89.9999C53.4794 89.9999 46.9777 83.4391 46.9777 75.346C46.9777 67.2528 53.4794 60.692 61.4996 60.692C69.5198 60.692 76.0215 67.2528 76.0215 75.346C76.0215 83.4391 69.5198 89.9999 61.4996 89.9999Z" fill="#131313"/>
<path d="M61.4998 85.7226C55.8204 85.7226 51.2163 81.0767 51.2163 75.3456C51.2163 69.6146 55.8204 64.9687 61.4998 64.9687C67.1791 64.9687 71.7832 69.6146 71.7832 75.3456C71.7832 81.0767 67.1791 85.7226 61.4998 85.7226Z" fill="#131313"/>
<path d="M61.4999 83.27C57.1015 83.27 53.5359 79.7225 53.5359 75.3464C53.5359 70.9703 57.1015 67.4227 61.4999 67.4227C65.8983 67.4227 69.4639 70.9703 69.4639 75.3464C69.4639 79.7225 65.8983 83.27 61.4999 83.27Z" fill="#F3F9FB"/>
</svg>
