<?xml version="1.0" standalone="no"?>
<!DOCTYPE svg PUBLIC "-//W3C//DTD SVG 20010904//EN"
 "http://www.w3.org/TR/2001/REC-SVG-20010904/DTD/svg10.dtd">
<svg version="1.0" xmlns="http://www.w3.org/2000/svg"
 width="831.000000pt" height="300.000000pt" viewBox="0 0 831.000000 300.000000"
 preserveAspectRatio="xMidYMid meet">

<g transform="translate(0.000000,300.000000) scale(0.100000,-0.100000)"
fill="#3E4095" stroke="none">
<path d="M3141 2938 c24 -17 46 -34 49 -38 3 -3 23 -19 45 -35 22 -17 42 -32
45 -35 3 -4 23 -19 45 -36 22 -16 45 -33 52 -39 28 -23 45 -36 196 -150 87
-66 211 -160 275 -209 l117 -88 -195 6 c-182 6 -362 13 -1402 51 -460 17 -815
25 -778 19 14 -2 75 -11 135 -20 61 -8 151 -22 200 -29 50 -8 140 -21 200 -30
61 -9 154 -22 208 -30 53 -8 143 -22 200 -30 230 -34 308 -46 437 -65 188 -29
307 -47 435 -65 61 -9 151 -22 200 -30 50 -8 129 -19 178 -26 48 -7 85 -14 83
-17 -3 -2 -191 3 -418 12 -227 9 -604 23 -838 31 -234 8 -612 22 -840 30 -228
8 -534 20 -679 26 -254 9 -336 8 -214 -6 32 -3 99 -12 148 -20 84 -13 150 -23
403 -60 56 -8 148 -22 205 -30 56 -9 149 -22 207 -31 58 -8 146 -21 195 -29
50 -8 142 -21 205 -30 63 -9 156 -22 205 -30 50 -8 137 -21 195 -29 151 -22
356 -54 420 -64 l55 -10 -65 -1 c-36 -1 -182 3 -325 9 -249 10 -904 34 -1745
65 -217 8 -483 17 -590 20 -107 3 -226 8 -265 10 l-70 4 55 -9 c30 -6 100 -17
155 -25 55 -8 161 -24 235 -35 158 -24 283 -43 435 -65 61 -9 153 -23 205 -30
107 -17 242 -37 405 -60 200 -30 304 -45 405 -60 55 -8 144 -21 198 -29 53 -8
134 -20 180 -27 45 -7 79 -16 75 -20 -5 -4 -235 -82 -513 -174 -278 -92 -520
-172 -539 -179 -45 -17 973 -26 2976 -26 l1523 0 41 88 c22 48 59 129 81 181
22 52 44 101 48 110 10 18 28 59 115 261 32 74 61 140 65 145 4 6 39 84 78
175 39 91 82 189 96 217 31 62 32 71 9 52 -10 -8 -29 -21 -43 -29 -14 -8 -90
-54 -170 -102 -79 -48 -151 -88 -159 -88 -8 0 -28 4 -45 10 -38 12 -207 61
-296 85 -36 10 -130 37 -210 60 -80 23 -194 56 -255 74 -60 17 -157 45 -215
62 -58 17 -114 33 -125 36 -20 5 -166 47 -273 79 -30 9 -56 14 -58 12 -3 -4
202 -152 254 -183 18 -11 21 -13 84 -60 26 -19 50 -35 53 -35 4 0 13 -6 20
-12 7 -7 37 -29 65 -48 28 -19 80 -55 115 -80 35 -25 87 -61 115 -80 28 -19
57 -39 64 -45 6 -5 19 -14 28 -20 45 -27 189 -128 193 -135 3 -5 -30 -16 -72
-25 -184 -39 -267 -56 -423 -85 -280 -54 -462 -89 -540 -105 -41 -8 -111 -22
-155 -30 -44 -9 -114 -22 -155 -30 -41 -9 -145 -29 -230 -45 -165 -32 -261
-51 -405 -80 -49 -10 -130 -26 -180 -35 -49 -9 -119 -23 -155 -30 -36 -8 -139
-28 -230 -45 -262 -50 -459 -88 -540 -105 -41 -8 -147 -29 -235 -46 -88 -16
-180 -35 -204 -40 -24 -5 -46 -8 -48 -5 -3 3 8 8 23 12 16 4 108 33 204 64 96
32 411 136 700 231 289 94 671 220 850 279 377 124 1071 351 1083 354 5 1 -20
24 -55 51 -34 27 -65 52 -68 56 -3 3 -75 59 -160 124 -85 66 -157 122 -160
125 -3 3 -129 102 -280 219 -151 117 -288 224 -304 237 l-30 24 -329 0 -330 0
44 -32z m12 -1145 c-7 -2 -19 -2 -25 0 -7 3 -2 5 12 5 14 0 19 -2 13 -5z" />
<path d="M3865 2955 c22 -7 69 -21 105 -30 144 -39 169 -46 280 -79 63 -18
169 -48 235 -66 66 -17 140 -38 165 -45 25 -7 74 -21 110 -30 36 -10 108 -30
160 -45 52 -15 104 -30 115 -33 18 -4 65 -17 230 -63 28 -7 91 -25 140 -38 50
-13 145 -40 213 -60 l123 -36 327 111 c180 60 357 119 394 131 l67 21 51 119
c28 66 49 122 46 125 -5 5 -2273 32 -2631 32 -154 -1 -166 -2 -130 -14z" />
<path d="M6560 2438 c-18 -40 -50 -111 -70 -158 -21 -47 -51 -114 -68 -150
-56 -121 -142 -311 -142 -315 0 -3 -20 -48 -45 -101 -25 -52 -45 -97 -45 -99
0 -2 -15 -37 -34 -77 -55 -118 -96 -209 -96 -213 0 -3 -16 -37 -35 -77 l-34
-73 872 -3 c479 -2 944 0 1032 3 l160 7 49 116 c27 65 57 135 66 157 34 77
120 283 120 289 0 3 -30 20 -67 37 -38 17 -106 49 -153 71 -47 22 -103 48
-125 58 -22 10 -80 37 -128 59 -49 23 -90 41 -92 41 -3 0 -76 33 -212 97 -36
17 -33 5 -54 230 -7 73 -15 136 -18 141 -6 10 -505 32 -723 32 l-125 0 -33
-72z"/>
<path d="M1565 1051 c-199 -26 -314 -110 -354 -257 -14 -54 1 -97 42 -123 19
-12 83 -28 162 -41 239 -39 237 -38 233 -68 -5 -43 -59 -72 -134 -72 -50 0
-68 4 -84 20 -11 11 -17 26 -14 35 5 13 -15 15 -159 15 -186 0 -177 5 -177
-87 0 -60 33 -95 112 -119 90 -27 411 -27 508 1 142 40 222 100 270 200 35 74
38 113 9 149 -39 50 -64 57 -353 101 -49 7 -95 20 -103 27 -38 39 71 87 162
72 48 -7 65 -20 65 -45 0 -18 8 -19 158 -17 l157 3 3 52 c3 45 -1 56 -25 82
-46 51 -124 72 -282 76 -75 2 -163 0 -196 -4z" fill="#fff"/>
<path d="M2442 1010 c-27 -34 -89 -106 -112 -130 -8 -8 -31 -36 -50 -60 -19
-25 -37 -47 -41 -50 -3 -3 -32 -36 -64 -75 -32 -38 -62 -72 -65 -75 -5 -4 -72
-85 -175 -209 -11 -13 -29 -32 -39 -42 -19 -19 -16 -19 126 -19 l147 0 28 40
28 40 147 0 146 0 -5 -40 -6 -40 147 0 146 0 0 345 0 345 -167 0 -168 0 -23
-30z m92 -304 l-7 -116 -85 0 c-81 0 -84 1 -71 19 54 76 165 218 167 216 2 -2
0 -55 -4 -119z" fill="#fff"/>
<path d="M3107 992 c-11 -26 -25 -60 -32 -77 -35 -76 -235 -553 -235 -559 0
-3 60 -6 133 -6 l133 0 44 104 45 104 190 5 c208 5 241 12 324 66 140 91 213
300 130 372 -35 30 -135 39 -430 39 l-284 0 -18 -48z m431 -118 c39 -8 47 -30
28 -76 -25 -58 -37 -63 -174 -67 -142 -4 -134 -13 -86 95 l24 54 89 0 c49 0
102 -3 119 -6z" fill="#fff" />
<path d="M4031 1018 c-5 -13 -52 -124 -105 -248 -54 -124 -101 -234 -105 -245
-24 -55 -64 -151 -68 -162 -4 -10 26 -13 129 -13 l134 0 44 104 43 104 191 5
c149 3 202 8 241 22 57 21 118 60 157 102 57 60 106 194 94 256 -16 84 -77 97
-459 97 l-287 0 -9 -22z m429 -147 c34 -9 37 -47 8 -91 -29 -43 -47 -48 -180
-49 l-108 -1 25 66 c13 36 27 69 30 75 7 10 187 11 225 0z" fill="#fff"/>
<path d="M4930 993 c-42 -94 -100 -232 -100 -238 0 -3 -9 -24 -19 -48 -16 -34
-130 -300 -148 -344 -4 -10 26 -13 129 -13 l133 0 22 48 c12 26 36 83 54 127
18 44 36 86 42 92 7 10 51 13 158 13 82 0 149 -3 149 -6 0 -3 -25 -63 -55
-134 -30 -71 -55 -131 -55 -134 0 -3 60 -6 134 -6 l134 0 12 33 c7 17 18 46
26 62 38 86 233 553 239 573 l7 23 -133 -3 -133 -3 -42 -100 c-23 -55 -45
-108 -48 -117 -5 -16 -22 -18 -161 -18 -85 0 -155 2 -155 4 0 6 29 77 45 111
8 17 22 48 32 70 9 22 19 43 21 48 2 4 -57 7 -132 7 l-135 0 -21 -47z" fill="#fff" />
<path d="M5926 1013 c-7 -16 -44 -100 -81 -188 -36 -88 -73 -173 -80 -190 -28
-61 -115 -272 -115 -279 0 -3 59 -5 131 -4 105 2 134 6 140 18 5 8 52 119 104
245 53 127 100 239 105 250 44 100 70 164 70 169 0 3 -58 6 -130 6 l-129 0
-15 -27z" fill="#fff" />
<path d="M6335 1018 c-4 -13 -16 -41 -25 -63 -10 -22 -57 -132 -105 -245 -47
-113 -93 -218 -100 -235 -23 -49 -45 -107 -45 -117 0 -5 57 -7 132 -6 l131 3
43 100 42 100 119 0 118 0 3 -27 c2 -15 -8 -59 -22 -98 -14 -39 -26 -73 -26
-76 0 -2 67 -4 148 -4 l149 0 -4 28 c-4 26 2 50 46 176 26 73 26 91 2 115 -18
18 -18 19 7 31 104 47 176 173 151 264 -19 68 -34 70 -421 74 l-336 3 -7 -23z
m437 -159 c16 -9 19 -17 14 -42 -4 -17 -16 -41 -28 -54 -20 -22 -29 -23 -145
-23 -141 0 -133 -7 -92 86 l20 44 105 0 c58 0 114 -5 126 -11z" fill="#fff"/>
<path d="M7211 893 c-35 -82 -70 -164 -78 -183 -8 -19 -19 -44 -23 -55 -5 -11
-34 -81 -66 -155 -31 -74 -58 -138 -61 -143 -2 -4 160 -6 362 -5 l366 3 35 79
c19 44 34 81 34 83 0 2 -103 3 -230 3 l-229 0 18 43 18 42 215 3 215 2 32 75
c17 41 31 77 31 80 0 3 -94 5 -210 5 l-210 0 18 48 18 47 232 5 233 5 35 79
c19 44 34 81 34 83 0 2 -163 3 -363 3 l-363 0 -63 -147z " fill="#fff" />
<path d="M4985 254 c-11 -3 -29 -7 -41 -9 -30 -7 -74 -54 -74 -80 0 -31 16
-41 79 -49 66 -9 75 -14 60 -32 -13 -16 -69 -19 -69 -4 0 6 -25 10 -55 10 -52
0 -55 -1 -55 -25 0 -34 31 -45 122 -45 88 0 150 26 168 70 21 52 5 65 -112 85
-21 3 -38 10 -38 15 0 16 52 24 71 11 10 -6 39 -11 64 -11 41 0 45 2 45 24 0
13 -8 27 -17 30 -23 9 -124 16 -148 10z" fill="#fff"/>
<path d="M5615 254 c-11 -3 -30 -7 -42 -10 -60 -12 -133 -123 -119 -180 9 -35
48 -47 138 -42 88 5 134 29 166 88 52 94 33 138 -63 144 -33 3 -69 3 -80 0z
m73 -87 c3 -21 -5 -36 -31 -62 -59 -59 -120 -41 -97 30 15 45 46 66 90 63 30
-3 35 -7 38 -31z" fill="#fff"/>
<path d="M7139 251 c-76 -16 -139 -87 -142 -160 -1 -23 4 -46 11 -53 8 -8 46
-14 92 -16 66 -3 87 0 125 18 76 37 130 155 88 193 -22 20 -119 30 -174 18z
m89 -73 c6 -30 -28 -85 -59 -98 -40 -17 -79 -6 -79 23 0 24 23 64 49 85 23 18
85 11 89 -10z" fill="#fff"/>
<path d="M3710 231 c-17 -32 -12 -41 25 -41 41 0 42 -3 14 -67 -43 -100 -44
-93 4 -93 l43 0 33 80 33 80 43 0 c35 0 44 4 53 25 7 14 12 28 12 30 0 3 -56
5 -125 5 -113 0 -125 -2 -135 -19z" fill="#fff"/>
<path d="M3953 147 c-24 -57 -43 -106 -43 -110 0 -4 20 -7 44 -7 41 0 45 2 51
30 6 28 10 30 51 30 43 0 43 0 38 -30 -6 -30 -6 -30 39 -30 44 0 45 0 55 42 6
23 9 46 6 50 -3 5 8 21 25 37 32 30 39 59 19 79 -8 8 -51 12 -127 12 l-116 0
-42 -103z m187 23 c-8 -15 -21 -20 -56 -20 -42 0 -44 1 -34 20 8 15 21 20 56
20 42 0 44 -1 34 -20z" fill="#fff"/>
<path d="M4295 163 c-38 -47 -78 -93 -87 -102 -28 -24 -22 -31 27 -31 25 0 45
5 45 10 0 6 25 10 55 10 30 0 55 -4 55 -10 0 -5 20 -10 45 -10 l45 0 0 110 0
110 -57 -1 -58 0 -70 -86z m98 -26 c-5 -31 -10 -37 -29 -37 -13 0 -24 3 -24 7
0 9 51 75 56 71 2 -2 1 -21 -3 -41z" fill="#fff"/>
<path d="M4566 198 c-13 -29 -29 -70 -35 -90 -7 -21 -17 -40 -22 -43 -5 -4 -9
-13 -9 -21 0 -10 12 -14 40 -14 33 0 42 4 49 22 5 13 17 41 27 63 l17 40 20
-62 20 -63 51 0 51 0 47 110 46 110 -41 0 c-39 0 -43 -3 -59 -38 -9 -20 -20
-47 -23 -59 -10 -36 -19 -27 -38 37 l-17 60 -51 0 -50 0 -23 -52z" fill="#fff"/>
<path d="M5205 208 c-9 -24 -21 -51 -26 -60 -5 -10 -18 -40 -28 -68 l-19 -50
43 0 c37 0 44 3 54 29 12 27 16 29 85 33 44 3 82 11 96 21 30 21 60 67 60 93
0 38 -19 44 -135 44 l-112 0 -18 -42z m165 -28 c0 -25 -17 -32 -63 -28 -31 3
-34 5 -26 26 7 18 16 22 49 22 34 0 40 -3 40 -20z" fill="#fff" />
<path d="M5850 239 c0 -6 -6 -25 -14 -42 -23 -49 -66 -156 -66 -162 0 -3 18
-5 41 -5 36 0 42 3 52 30 10 27 16 30 55 30 43 0 44 0 37 -30 -7 -30 -6 -30
37 -30 43 0 44 1 57 44 7 25 10 49 7 55 -4 5 2 15 12 20 11 6 25 24 32 41 22
53 6 60 -131 60 -80 0 -119 -4 -119 -11z m148 -66 c-2 -14 -15 -19 -50 -21
-43 -3 -46 -1 -41 17 4 17 13 21 50 21 37 0 44 -3 41 -17z" fill="#fff"/>
<path d="M6130 231 c-17 -32 -12 -40 29 -43 l40 -3 -33 -75 -34 -75 40 -3 c47
-4 53 3 87 93 l25 65 41 0 c35 0 44 4 53 25 7 14 12 28 12 30 0 3 -56 5 -125
5 -113 0 -125 -2 -135 -19z" fill="#fff"/>
<path d="M6428 198 c-25 -29 -66 -78 -91 -108 l-46 -55 41 -3 c22 -2 46 2 51
7 14 14 107 14 107 1 0 -5 20 -10 45 -10 l45 0 0 110 0 110 -53 0 c-52 0 -55
-1 -99 -52z m72 -58 c0 -38 -2 -40 -30 -40 -16 0 -30 3 -30 6 0 7 51 74 56 74
2 0 4 -18 4 -40z" fill="#fff"/>
<path d="M6642 230 c-20 -32 -14 -40 28 -40 l39 0 -29 -69 c-17 -39 -30 -75
-30 -81 0 -7 16 -10 42 -8 l42 3 29 78 30 77 43 0 c33 0 46 5 54 19 20 39 14
41 -113 41 -111 0 -123 -2 -135 -20z" fill="#fff"/>
<path d="M6913 213 c-8 -21 -19 -47 -24 -58 -4 -11 -17 -42 -28 -69 -12 -27
-21 -50 -21 -52 0 -2 19 -4 43 -4 l43 0 42 100 c23 55 42 104 42 110 0 5 -18
10 -40 10 -37 0 -42 -3 -57 -37z" fill="#fff"/>
<path d="M7396 242 c-10 -17 -86 -196 -86 -204 0 -4 18 -8 40 -8 30 0 42 5 47
18 15 46 38 92 45 92 4 0 15 -25 23 -55 l16 -55 52 0 52 0 33 83 c19 45 38 90
43 99 16 31 10 38 -29 38 -36 0 -40 -3 -57 -42 -31 -77 -39 -90 -43 -76 -1 7
-10 37 -20 66 l-16 52 -47 0 c-27 0 -50 -4 -53 -8z" fill="#fff"/>
</g>
</svg>
