<?xml version="1.0" encoding="iso-8859-1"?>
<!-- Uploaded to: SVG Repo, www.svgrepo.com, Generator: SVG Repo Mixer Tools -->
<svg version="1.1" id="Layer_1" xmlns="http://www.w3.org/2000/svg" xmlns:xlink="http://www.w3.org/1999/xlink" 
	 viewBox="0 0 512 512" xml:space="preserve">
<path style="fill:#F7EDE3;" d="M512,115.876v224.879c0,2.382-1.93,4.311-4.311,4.311H92.217c-98.077,0-92.149-52.45-92.149-52.45
	v-7.545c0-54.627,52.072-106.387,102.486-134.046c11.016-6.047,22.344-11.404,33.942-16.072c38.405-15.49,79.591-23.39,121.23-23.39
	h249.962C510.07,111.564,512,113.493,512,115.876z"/>
<path style="fill:#DBD2CA;" d="M203.736,116.043c-23.019,3.851-45.572,10.173-67.239,18.912
	c-11.598,4.668-22.927,10.025-33.942,16.072C52.141,178.684,0.069,230.444,0.069,285.072v7.545c0,0-5.929,52.45,92.149,52.45h19.402
	c-98.077,0-92.148-52.45-92.148-52.45v-7.545c0-54.627,52.072-106.387,102.486-134.046c11.016-6.047,22.344-11.404,33.942-16.072
	c15.54-6.267,31.54-11.27,47.838-15.032L203.736,116.043L203.736,116.043z"/>
<path style="fill:#7FB2F0;" d="M204.242,115.961v18.529c0,14.594-9.873,27.389-24.026,30.978
	c-30.946,7.847-53.549,23.994-67.864,37.294c-14.584,13.539-33.857,20.89-53.754,20.89H20.689
	c19.79-29.954,51.135-55.769,81.866-72.628C134.32,133.596,168.726,121.836,204.242,115.961z"/>
<path style="fill:#362928;" d="M507.617,400.437H10.822c-2.381,0-4.311-1.93-4.311-4.311V349.38c0-2.381,1.93-4.311,4.311-4.311
	h496.795c2.381,0,4.311,1.93,4.311,4.311v46.746C511.927,398.507,509.997,400.437,507.617,400.437z"/>
<g>
	<circle style="fill:#7FB2F0;" cx="299.677" cy="190.882" r="40.453"/>
	<circle style="fill:#7FB2F0;" cx="414.678" cy="190.882" r="40.453"/>
</g>
<g>
	<path style="fill:#5F95D4;" d="M278.621,187.862c0-16.748,10.177-31.117,24.685-37.264c-1.197-0.107-2.407-0.17-3.633-0.17
		c-22.342,0-40.453,18.111-40.453,40.453s18.111,40.453,40.453,40.453c5.594,0,10.923-1.136,15.769-3.189
		C294.803,226.306,278.621,208.978,278.621,187.862z"/>
	<path style="fill:#5F95D4;" d="M393.625,187.862c0-16.748,10.177-31.117,24.685-37.264c-1.197-0.107-2.407-0.17-3.633-0.17
		c-22.342,0-40.453,18.111-40.453,40.453s18.111,40.453,40.453,40.453c5.594,0,10.923-1.136,15.769-3.189
		C409.807,226.306,393.625,208.978,393.625,187.862z"/>
	<path style="fill:#5F95D4;" d="M204.242,115.961v3.816c-16.47,3.784-32.638,8.849-48.343,15.176
		c-11.598,4.668-22.927,10.025-33.942,16.072c-30.73,16.858-62.075,42.674-81.866,72.628H20.689
		c19.79-29.954,51.135-55.769,81.866-72.628C134.32,133.596,168.726,121.836,204.242,115.961z"/>
</g>
<path style="fill:#A8A19C;" d="M512,283.616v16.169H123.207c-80.011,0-111.82-15.964-122.652-23.875
	c0.614-5.939,1.833-11.836,3.567-17.645c1.843,1.369,3.848,2.857,3.869,2.857c0.215,0.227,22.678,22.496,115.216,22.496H512V283.616
	z"/>
<rect x="6.515" y="364.67" style="fill:#241B1A;" width="505.407" height="16.169"/>
</svg>