<svg xmlns="http://www.w3.org/2000/svg" xmlns:xlink="http://www.w3.org/1999/xlink" xml:space="preserve" version="1.1" style="shape-rendering:geometricPrecision;text-rendering:geometricPrecision;image-rendering:optimizeQuality;" viewBox="0 0 13869 17336.25" x="0px" y="0px" fill-rule="evenodd" clip-rule="evenodd"><defs><style type="text/css">
   
    .fil0 {fill:black}
   
  </style></defs><g><path class="fil0" d="M0 4363l972 0 0 9506 1300 0 0 -7330 9325 0 0 7330 1300 0 0 -9506 972 0 0 -1350 -6934 -3013 -6935 3013 0 1350zm3115 38l759 0 0 976 -759 0 0 -976zm6881 0l758 0 0 976 -758 0 0 -976zm-1721 0l759 0 0 976 -759 0 0 -976zm-1720 0l759 0 0 976 -759 0 0 -976zm-1720 0l759 0 0 976 -759 0 0 -976zm297 7599l0 1869 -2515 0 0 -1869 2515 0zm-799 1390l480 0 0 206 -480 0 0 -206zm-1716 -2052l2515 0 0 447 -2515 0 0 -447zm5575 662l0 1869 -2515 0 0 -1869 2515 0zm-799 1390l480 0 0 206 -480 0 0 -206zm-1716 -2052l2515 0 0 447 -2515 0 0 -447zm5575 662l0 1869 -2514 0 0 -1869 2514 0zm-799 1390l480 0 0 206 -480 0 0 -206zm-1715 -2052l2514 0 0 447 -2514 0 0 -447zm-3606 -2142l0 1869 -2515 0 0 -1869 2515 0zm-799 1390l480 0 0 207 -480 0 0 -207zm-1716 -2051l2515 0 0 446 -2515 0 0 -446zm5575 661l0 1869 -2515 0 0 -1869 2515 0zm-799 1390l480 0 0 207 -480 0 0 -207zm-1716 -2051l2515 0 0 446 -2515 0 0 -446z"/></g><text x="0" y="13884" fill="#000000" font-size="5px" font-weight="bold" font-family="'Helvetica Neue', Helvetica, Arial-Unicode, Arial, Sans-serif">Created by popcornarts</text><text x="0" y="13889" fill="#000000" font-size="5px" font-weight="bold" font-family="'Helvetica Neue', Helvetica, Arial-Unicode, Arial, Sans-serif">from the Noun Project</text></svg>