<?xml version="1.0" ?>
<!DOCTYPE svg  PUBLIC '-//W3C//DTD SVG 1.1//EN'  'http://www.w3.org/Graphics/SVG/1.1/DTD/svg11.dtd'>
<!-- Uploaded to: SVG Repo, www.svgrepo.com, Generator: SVG Repo Mixer Tools -->
<svg fill="#000000" width="800px" height="800px" viewBox="0 0 512 512" version="1.1" xml:space="preserve" xmlns="http://www.w3.org/2000/svg" xmlns:xlink="http://www.w3.org/1999/xlink">
<g id="_x33_77_x2C__business_x2C__marketplace_x2C__organization_x2C__data_x2C__online_market">
<g>
<path d="M265.845,416.097c3.245,0,6.16,1.32,8.276,3.438    c2.117,2.145,3.438,5.06,3.438,8.277c0,3.244-1.321,6.159-3.411,8.276c-2.144,2.117-5.059,3.438-8.304,3.438    c-3.218,0-6.132-1.292-8.249-3.41c-2.146-2.145-3.465-5.06-3.465-8.304c0-3.218,1.319-6.133,3.437-8.249    C259.713,417.417,262.627,416.097,265.845,416.097 M95.353,401.165V204.66c0-1.87,1.513-3.383,3.382-3.383h45.785v-14.051H82.428    v213.938H95.353z M381.202,201.277h51.78c1.869,0,3.381,1.513,3.381,3.383v196.505h12.924V187.227h-68.085V201.277z     M359.862,136.931c0.771,2.173,2.255,4.207,3.987,5.939l0.192,0.192c3.493,3.438,7.838,5.637,10.313,5.72h0.109l0,0    c4.207,0,8.029-1.705,10.779-4.454c2.008-2.008,3.438-4.537,4.098-7.397H359.862z M322.382,136.931v0.056l0.028,0.082l0.027,0.109    l0,0l0.027,0.139l0.027,0.026l0.027,0.11v0.083l0.027,0.054l0.027,0.139l0.083,0.247l0.027,0.109v0.028l0.083,0.248l0.026,0.082    l0.028,0.055l0.274,0.77l0.028,0.028l0.027,0.083l0.055,0.109v0.027l0.055,0.11v0.026l0.055,0.083l0.027,0.083l0.028,0.055    l0.055,0.109l0,0l0.083,0.166l0.027,0.082l0.055,0.082l0.082,0.165l0,0l0.056,0.11l0.027,0.055l0.028,0.082l0.054,0.083    l0.083,0.138v0.027l0.11,0.165l0.027,0.028l0.056,0.137l0,0l0.082,0.11l0.027,0.027l0.027,0.082l0.055,0.083l0.028,0.027    l0.274,0.439l0,0l0.082,0.11l0.027,0.028l0.056,0.082l0.138,0.221l0,0l0.165,0.219l0.054,0.082l0.029,0.029l0.082,0.082v0.027    l0.082,0.082l0.056,0.056l0.027,0.054l0.192,0.221l0.055,0.082l0.055,0.056l0.027,0.056l0.083,0.082l0.027,0.027l0.083,0.082    l0.027,0.056l0.055,0.027l0.164,0.192l0.029,0.027l0.082,0.083l0.165,0.192h0.026l0.248,0.247l0,0l0.138,0.11l0,0l0.138,0.137l0,0    l0.109,0.111h0.027l0.139,0.137l0,0l0.275,0.22l0,0l0.137,0.138l0,0l0.137,0.109l0,0l0.139,0.11l0,0l0.302,0.22l0,0    c0.302,0.221,0.604,0.412,0.907,0.605l0,0l0.166,0.109l0,0l0.164,0.083l0,0l0.139,0.11h0.027l0.137,0.082l0,0l0.165,0.083l0,0    l0.165,0.083l0,0l0.33,0.164l0,0l0.494,0.248l0,0l0.33,0.137h0.027l0.165,0.082l0,0l0.166,0.056l0,0l0.165,0.083l0,0l0.192,0.055    l0,0l0.165,0.082l0,0l0.357,0.11l0,0l0.165,0.056l0.192,0.055l0.165,0.055l0.192,0.055l0,0l0.192,0.056l0.165,0.027l0.192,0.056    l0.192,0.026l0.192,0.056l0.165,0.027l0,0l0.192,0.027l0,0l0.192,0.027v0.027l0.193,0.027l0.192,0.027l0,0h0.192l0.164,0.027    h0.027l0.166,0.027h0.027l0.165,0.028h0.027h0.165h0.027l0.166,0.027h0.027h0.191l0,0l0.193,0.027l0,0h0.191l0,0h0.193l0,0h0.192    l0,0h0.192l0,0h0.193h0.026h0.165h0.027l0.193-0.027l0,0h0.191l0,0l0.193-0.027l0,0h0.192l0,0l0.192-0.028l0.192-0.027    l0.192-0.027h0.193l0.191-0.027l0.192-0.027v-0.027l0.165-0.027l0.193-0.027l0.385-0.083l0.165-0.026h0.027l0.165-0.056l0,0    l0.191-0.027l0,0l0.166-0.056h0.027l0.165-0.055l0,0l0.165-0.055h0.027l0.357-0.11l0,0l0.33-0.11h0.027l0.33-0.137l0,0    l0.357-0.139l0,0l0.166-0.082l0,0l0.329-0.137h0.027c1.678-0.771,3.19-1.815,4.482-3.107l0.55-0.578l0.056-0.082l0.027-0.027    l0.082-0.082l0.192-0.221l0.055-0.082H349l0.083-0.111v-0.027l0.083-0.082l0.027-0.055l0.109-0.137h0.027l0.083-0.111v-0.027    l0.056-0.082l0.055-0.082l0.109-0.139l0,0l0.082-0.109l0.029-0.027l0.054-0.083l0.056-0.083v-0.027l0.082-0.109l0,0l0.082-0.11    l0.027-0.054l0.028-0.056l0.083-0.083v-0.027l0.055-0.11l0.027-0.026l0.055-0.083l0.027-0.083l0.027-0.027l0.083-0.109v-0.027    l0.056-0.111l0.027-0.027l0.055-0.082l0.027-0.082l0.027-0.027l0.055-0.111l0.083-0.137v-0.027l0.056-0.083l0.026-0.082    l0.028-0.027l0.055-0.138l0,0l0.055-0.109l0.027-0.056l0.028-0.083l0.054-0.082v-0.027l0.056-0.138h0.027l0.028-0.109l0.027-0.056    l0.027-0.055l0.055-0.137l0,0l0.055-0.111l0.027-0.055l0.027-0.083l0.028-0.082l0.027-0.055l0.027-0.11l0,0l0.082-0.165    l0.028-0.083l0.027-0.109v-0.027l0.055-0.137l0,0l0.056-0.139v-0.027l0.027-0.082l0.027-0.11v-0.027l0.056-0.138l0,0l0.026-0.109    l0.028-0.083l0.027-0.056l0.027-0.109v-0.027l0.027-0.137v-0.027l0.027-0.111l0.027-0.055v-0.055l0.028-0.138l0,0H322.382z     M285.148,136.931L285.148,136.931l0.028,0.138v0.055l0.027,0.055l0.026,0.111v0.027l0.056,0.137v0.027l0.027,0.109l0.028,0.056    v0.083l0.026,0.109h0.027l0.028,0.138v0.027l0.027,0.11l0.027,0.082l0.028,0.027l0.054,0.139l0,0l0.028,0.137l0.027,0.027    l0.027,0.109l0.027,0.083l0.055,0.165l0,0l0.056,0.11l0.027,0.055l0.027,0.082l0.027,0.083v0.055l0.056,0.111l0,0l0.055,0.137    l0.027,0.055l0.027,0.056l0.056,0.109l0,0l0.055,0.138v0.027l0.055,0.082l0.028,0.083l0.027,0.056l0.055,0.109l0,0l0.027,0.027    l0.056,0.138l0.054,0.082l0.028,0.083l0.027,0.027l0.056,0.109v0.027l0.054,0.111l0.028,0.027l0.055,0.082l0.027,0.082    l0.027,0.027l0.083,0.111v0.027l0.055,0.109l0.027,0.027l0.056,0.083l0.027,0.083l0.027,0.026l0.083,0.11l0,0l0.055,0.11    l0.055,0.056l0.027,0.054l0.056,0.083l0.026,0.027l0.056,0.109l0.027,0.027l0.056,0.083l0.026,0.056l0.056,0.055l0.056,0.109l0,0    l0.082,0.111l0.027,0.027l0.109,0.137l0.028,0.055l0.082,0.111l0,0l0.083,0.082l0.027,0.055l0.055,0.055l0.056,0.082l0.027,0.027    l0.165,0.193l0.027,0.055l0.055,0.055l0.083,0.083l0.22,0.275l0.055,0.027l0.082,0.083v0.026l0.083,0.083l0.027,0.027l0.083,0.083    l0.055,0.054l0.027,0.028l0.083,0.11l0,0l0.055,0.027c1.787,1.787,4.042,3.135,6.572,3.85l0.055,0.027l0.11,0.027h0.082    l0.11,0.056h0.055l0.303,0.083h0.055l0.139,0.026l0.054,0.027l0.138,0.028h0.056l0.109,0.027l0.056,0.027h0.137l0.056,0.027h0.138    l0.054,0.027l0.138,0.027h0.028l0.165,0.027h0.027h0.165l0.027,0.027h0.165h0.027l0.165,0.027h0.027l0.165,0.028l0,0h0.193l0,0    l0.191,0.027l0,0h0.192l0,0l0.193,0.027l0,0h0.192l0,0h0.192l0,0h0.192h0.192h0.22h0.192l0.193-0.027l0,0h0.191l0.193-0.027h0.192    l0.192-0.028l0,0l0.192-0.027l0,0l0.192-0.027l0,0h0.193l0.164-0.027h0.027l0.165-0.027v-0.027l0.192-0.027l0.193-0.027    l0.191-0.027l0,0l0.193-0.056l0,0l0.165-0.026l0,0l0.192-0.056l0,0l0.191-0.027l0,0l0.166-0.056l0,0l0.192-0.055l0,0l0.192-0.055    l0.165-0.055l0,0l0.165-0.056h0.027l0.33-0.11l0,0l0.357-0.137l0,0l0.357-0.139l0,0l0.165-0.082l0,0l0.33-0.137l0,0    c1.705-0.771,3.218-1.843,4.51-3.107c1.98-2.008,3.438-4.537,4.098-7.397H285.148z M247.916,136.931l0.028,0.138l0.027,0.055    v0.055l0.027,0.111v0.027l0.055,0.137v0.027l0.027,0.109l0.028,0.056v0.083l0.027,0.109l0,0l0.055,0.138v0.027l0.027,0.11    l0.027,0.082l0.028,0.027l0.027,0.139l0,0l0.055,0.137l0.027,0.055l0.027,0.082l0.028,0.083v0.028l0.054,0.137l0,0l0.055,0.11    l0.027,0.055v0.082l0.055,0.083v0.055l0.055,0.111v0.027l0.055,0.109l0.028,0.055l0.027,0.056l0.055,0.109l0,0l0.056,0.138v0.027    l0.054,0.082l0.028,0.083l0.027,0.056l0.055,0.109l0,0l0.055,0.138l0.028,0.027l0.055,0.082l0.028,0.083l0.027,0.027l0.055,0.137    l0,0l0.054,0.111l0.028,0.027l0.11,0.191l0.082,0.111v0.027l0.056,0.109l0.027,0.055l0.056,0.056l0.027,0.083l0.027,0.026    l0.138,0.221l0.028,0.056l0.054,0.054c0.22,0.33,0.44,0.661,0.688,0.991l0,0c0.412,0.521,0.852,1.016,1.292,1.484l0.66,0.605    v0.027l0.274,0.22l0,0l0.166,0.109v0.027l0.137,0.11l0,0l0.138,0.109l0,0l0.138,0.11l0,0l0.165,0.11l0.137,0.109l0,0l0.138,0.111    l0.165,0.109l0,0l0.138,0.082l0,0l0.165,0.109l0,0l0.138,0.111h0.027l0.138,0.082l0,0l0.165,0.109l0,0l0.165,0.083l0.138,0.11l0,0    l0.165,0.082l0,0l0.165,0.083l0,0l0.165,0.083l0,0l0.165,0.082l0,0l0.165,0.082l0,0l0.165,0.083l0,0l0.33,0.165l0,0l0.165,0.082    l0,0l0.165,0.055h0.027l0.165,0.082l0,0l0.164,0.056l0,0l0.166,0.083l0,0l0.192,0.055l0,0l0.165,0.082l0,0l0.357,0.11l0,0    l0.164,0.056l0,0l0.193,0.055l0,0l0.165,0.055h0.027l0.165,0.055l0,0l0.192,0.056l0,0l0.165,0.027l0,0l0.192,0.056l0,0    l0.193,0.026l0,0l0.165,0.056h0.027l0.164,0.027l0.192,0.027l0.193,0.027v0.027l0.192,0.027l0,0l0.192,0.027h0.192l0,0    l0.165,0.027h0.027l0.165,0.027h0.027l0.192,0.028h0.193l0.192,0.027h0.191l0,0l0.193,0.027h0.192h0.192h0.192h0.192l0,0h0.193    h0.026h0.165h0.027l0.165-0.027h0.028h0.165h0.027l0.164-0.027h0.028h0.165h0.027l0.165-0.028h0.027l0.165-0.027h0.027h0.165    l0.027-0.027h0.138h0.056l0.137-0.027h0.056l0.138-0.027l0.054-0.027h0.138l0.027-0.027l0.138-0.027h0.056l0.138-0.027h0.055    l0.138-0.028l0.055-0.027l0.11-0.026h0.055l0.137-0.029l0.056-0.026l0.109-0.027h0.083l0.11-0.056h0.055l0.11-0.027l0.082-0.027    l0.11-0.027l0.055-0.027l0.109-0.028l0.083-0.026l0.11-0.027l0.083-0.028l0.082-0.027l0.083-0.027l0.082-0.028l0.082-0.027    l0.11-0.055l0.082-0.027l0.083-0.027l0.082-0.027l0.083-0.027l0.082-0.056l0.082-0.027l0.111-0.028l0.082-0.027l0.083-0.055    l0.082-0.027l0.082-0.027l0.083-0.027l0.082-0.055l0.083-0.028l0.082-0.054l0.083-0.029l0.082-0.054l0.192-0.083l0.056-0.027    l0.082-0.055l0.165-0.082l0.055-0.028l0.11-0.055l0.055-0.028l0.11-0.055l0.055-0.027l0.274-0.165l0.028-0.027l0.274-0.165h0.027    c0.303-0.193,0.605-0.412,0.88-0.605h0.028c0.633-0.467,1.237-0.989,1.787-1.539l0,0l0.083-0.11l0.055-0.028l0.055-0.054    l0.056-0.083l0.026-0.027l0.083-0.083h0.028l0.082-0.109l0.027-0.027l0.056-0.056l0.054-0.082l0.028-0.027l0.165-0.193    l0.056-0.055l0.054-0.055l0.248-0.303l0.027-0.055l0.055-0.055l0.165-0.193v-0.055l0.056-0.055l0.055-0.082l0.027-0.027    l0.082-0.111l0,0l0.083-0.109l0.027-0.027l0.055-0.083l0.056-0.083v-0.027l0.082-0.109l0,0l0.11-0.164l0.028-0.056l0.054-0.083    l0.028-0.027l0.082-0.137l0.055-0.083l0.028-0.083l0.055-0.027l0.055-0.109v-0.027l0.056-0.111l0.027-0.027l0.055-0.082    l0.027-0.082l0.083-0.139v-0.027l0.082-0.109v-0.027l0.056-0.083l0.026-0.082l0.083-0.165l0,0l0.055-0.109l0.027-0.056    l0.028-0.083l0.055-0.082v-0.027l0.055-0.138h0.027l0.056-0.109v-0.056l0.027-0.055l0.055-0.137l0,0l0.056-0.111l0.027-0.055    l0.027-0.083l0.027-0.082l0.027-0.055l0.027-0.11h0.028l0.054-0.165l0.028-0.083l0.027-0.109v-0.027l0.056-0.137l0,0l0.054-0.139    v-0.027l0.028-0.082l0.027-0.11l0.027-0.027l0.028-0.138l0,0l0.026-0.109l0.028-0.083l0.027-0.056l0.027-0.109v-0.027l0.028-0.137    v-0.027l0.027-0.111l0.026-0.055l0.028-0.055l0.027-0.138l0,0H247.916z M210.682,136.931L210.682,136.931l0.028,0.138v0.055    l0.027,0.055l0.027,0.111v0.027l0.055,0.137v0.027l0.027,0.109v0.056l0.028,0.083l0.027,0.109l0,0l0.056,0.138v0.027l0.027,0.11    l0.027,0.082l0.028,0.027l0.027,0.139l0,0l0.055,0.137v0.055l0.055,0.082l0.028,0.083v0.028l0.11,0.247v0.055l0.027,0.082    l0.165,0.386l0.028,0.055l0.027,0.056l0.33,0.742l0.028,0.027c0.742,1.457,1.705,2.777,2.832,3.933l0.138,0.137h0.027l0.109,0.11    v0.028l0.138,0.109l0,0l0.11,0.109l0.028,0.028l0.384,0.33h0.028l0.413,0.356l0,0l0.138,0.11l0,0l0.137,0.11l0,0l0.303,0.192    v0.028l0.138,0.082l0.027,0.027l0.275,0.164l0.027,0.027l0.138,0.083v0.028l0.137,0.082l0.165,0.082l0.028,0.027l0.275,0.166    l0.027,0.027c0.302,0.165,0.605,0.33,0.935,0.467l0.055,0.028l0.439,0.22l0.056,0.027l0.109,0.027l0.055,0.027l0.11,0.055    l0.33,0.139l0.083,0.027l0.11,0.027l0.165,0.055l0.083,0.055l0.083,0.027l0.165,0.056l0.11,0.027l0.083,0.028l0.083,0.027    l0.083,0.026l0.11,0.028l0.083,0.027l0.083,0.027l0.083,0.027l0.109,0.027h0.083l0.111,0.056h0.054l0.111,0.027l0.082,0.026    l0.11,0.029h0.055l0.138,0.026l0.055,0.027l0.138,0.028h0.027l0.138,0.027h0.055l0.137,0.027l0.055,0.027l0.138,0.027h0.054    l0.138,0.027h0.027l0.166,0.027h0.027h0.165l0.027,0.027h0.165h0.028l0.165,0.027h0.027l0.165,0.028h0.027h0.166l0,0l0.192,0.027    l0,0h0.192l0,0l0.193,0.027l0,0h0.192l0,0h0.192l0,0h0.193h0.192h0.22h0.192l0.193-0.027l0,0h0.192l0,0l0.193-0.027h0.192l0,0    l0.192-0.028l0,0l0.193-0.027l0,0l0.192-0.027l0,0h0.193l0,0l0.192-0.027l0,0l0.357-0.082h0.028l0.165-0.027l0,0l0.385-0.083l0,0    l0.165-0.026h0.027l0.165-0.056l0,0l0.192-0.027l0,0l0.165-0.056h0.028l0.165-0.055l0,0l0.165-0.055h0.027l0.358-0.11l0,0    l0.33-0.11h0.027l0.33-0.137l0,0l0.358-0.139l0,0l0.165-0.082l0,0l0.33-0.137h0.027c1.678-0.771,3.163-1.815,4.483-3.107    c1.98-2.008,3.438-4.537,4.097-7.397H210.682z M206.337,218.821h-17.571h-0.11h-0.083h-17.571c-1.871,0-3.382-1.512-3.382-3.382    v-17.6v-0.082v-0.083v-17.571c0-1.869,1.512-3.383,3.382-3.383h17.571h0.083h0.11h17.571c1.87,0,3.382,1.514,3.382,3.383v17.571    v0.083v0.082v17.6C209.72,217.31,208.207,218.821,206.337,218.821z M354.803,218.821h-17.599h-0.083h-0.082h-17.6    c-1.842,0-3.382-1.512-3.382-3.382v-17.6v-0.082v-0.083v-17.571c0-1.869,1.54-3.383,3.382-3.383h17.6h0.082h0.083h17.599    c1.87,0,3.383,1.514,3.383,3.383v17.571v0.083v0.082v17.6C358.186,217.31,356.673,218.821,354.803,218.821z M206.915,145.264    c-0.88,1.401-1.897,2.666-3.053,3.85c-3.987,3.959-9.487,6.434-15.563,6.434h-0.276h-0.274l-0.303-0.027h-0.274l0,0l-0.276-0.027    l0,0l-0.274-0.027l0,0h-0.274l0,0l-0.55-0.055h-0.028l-0.248-0.056h-0.027l-0.523-0.054h-0.027l-0.247-0.057l0,0l-0.275-0.055l0,0    l-0.275-0.055l0,0l-0.274-0.027l0,0l-0.248-0.056h-0.028l-0.247-0.083l0,0l-0.275-0.054l0,0l-0.247-0.056h-0.028l-0.248-0.082l0,0    l-0.247-0.082h-0.027l-0.248-0.056l0,0l-0.247-0.083h-0.028c-3.437-1.072-6.517-2.97-8.991-5.443    c-1.183-1.184-2.201-2.448-3.081-3.85l-0.027,0.054l-0.055,0.083l0,0l-0.027,0.055l-0.055,0.082l-0.027,0.056l-0.027,0.027    l-0.055,0.11l-0.056,0.055l-0.027,0.055h-0.027l-0.028,0.083l-0.055,0.056l-0.028,0.054l-0.027,0.028l-0.028,0.027l-0.054,0.082    l-0.028,0.056l-0.027,0.054h-0.027l-0.028,0.083l-0.055,0.056l-0.055,0.055v0.027l-0.027,0.027l-0.055,0.082l-0.055,0.056    l-0.027,0.027v0.028l-0.055,0.055l-0.054,0.082l-0.028,0.055h-0.027l-0.027,0.056l-0.056,0.056l-0.027,0.082l-0.028,0.027    l-0.027,0.027l-0.056,0.055l-0.054,0.056l-0.028,0.054l-0.054,0.056l-0.055,0.083l-0.111,0.109l-0.027,0.055l-0.055,0.056    l-0.055,0.055l0,0l-0.055,0.083l-0.055,0.055l-0.027,0.055h-0.027l-0.028,0.056l-0.055,0.055l-0.055,0.056l-0.027,0.055h-0.028    l-0.054,0.055l-0.028,0.055l-0.054,0.056l-0.028,0.027l-0.027,0.026l-0.055,0.056l-0.054,0.056l-0.028,0.055l-0.027,0.027    l-0.056,0.055l-0.055,0.055l-0.054,0.056l0,0l-0.055,0.055l-0.027,0.056l-0.055,0.055l-0.027,0.027l-0.028,0.027l-0.055,0.055    l-0.055,0.056l-0.055,0.056l0,0l-0.192,0.164l-0.192,0.192l0,0l-0.193,0.165v0.027l-0.192,0.165l0,0l-0.193,0.165v0.027    l-0.192,0.139v0.027l-0.192,0.164h-0.028l-0.165,0.166h-0.027l-0.193,0.164l0,0l-0.192,0.165h-0.027l-0.193,0.138l-0.027,0.027    l-0.413,0.33l-0.165,0.11l-0.056,0.027l-0.439,0.303l-0.165,0.109l-0.055,0.056l-0.165,0.109l-0.055,0.028l-0.165,0.109    l-0.055,0.027l-0.604,0.386l-0.083,0.026c-0.44,0.247-0.88,0.496-1.32,0.716l-0.083,0.027l-0.384,0.192l-0.11,0.027l-0.495,0.22    l-0.138,0.056l-0.109,0.054l-0.248,0.083l-0.138,0.056l-0.11,0.055l-0.138,0.055l-0.11,0.027l-0.632,0.221l-0.138,0.055    l-0.137,0.055l-0.11,0.027l-0.274,0.083l-0.111,0.028l-0.137,0.027l-0.138,0.055l-0.138,0.027l-0.522,0.138l-0.11,0.027    l-0.137,0.026l-0.111,0.029l-0.165,0.054h-0.11l-0.165,0.056h-0.11l-0.165,0.027l-0.083,0.027l-0.165,0.027l-0.109,0.027    l-0.165,0.027l-0.11,0.027l-0.165,0.029l-0.248,0.026h-0.027l-0.109,0.027h-0.165l-0.111,0.028l-0.165,0.027h-0.083l-0.192,0.027    h-0.083l-0.193,0.027h-0.083h-0.192l-0.082,0.027h-0.22h-0.055l-0.22,0.027h-0.083h-0.193h-0.083l-0.192,0.027h-0.082h-0.192    h-0.083v28.187v0.109v20.734v0.083v40.726h223.152V204.66v-0.083v-20.734v-0.109v-28.187c-5.939,0-11.33-2.393-15.289-6.242    l-0.248-0.191c-1.155-1.184-2.173-2.448-3.053-3.85l-0.027,0.054l-0.055,0.083v0.027l-0.027,0.027l-0.221,0.33l-0.055,0.055v0.027    l-0.027,0.028l-0.055,0.083l-0.248,0.384l-0.055,0.056l-0.055,0.055v0.027l-0.027,0.027l-0.248,0.33l-0.027,0.055l-0.027,0.028    l-0.027,0.027l-0.056,0.056l-0.056,0.054l-0.33,0.44l-0.026,0.027v0.027l-0.056,0.055l-0.109,0.11l0,0l-0.056,0.056l-0.026,0.055    l-0.056,0.082l-0.027,0.027l-0.027,0.028l-0.056,0.055l-0.082,0.11h-0.027l-0.303,0.33l-0.027,0.055h-0.027l-0.056,0.055    l-0.054,0.055l-0.056,0.055v0.028l-0.056,0.055l-0.027,0.056l-0.055,0.027l-0.027,0.055h-0.027l-0.055,0.082l-0.056,0.028    l-0.055,0.055v0.028l-0.192,0.164l0,0l-0.193,0.192l0,0l-0.192,0.165v0.027l-0.384,0.33v0.027    c-1.32,1.155-2.778,2.173-4.346,2.998l0,0c-0.962,0.494-1.924,0.906-2.942,1.292l-0.247,0.083h-0.027l-0.496,0.164l0,0    l-0.247,0.083h-0.027l-0.247,0.056l0,0l-0.248,0.082h-0.027l-0.248,0.082l0,0l-0.247,0.056h-0.027l-0.247,0.054l0,0l-0.275,0.083    l0,0l-0.248,0.056h-0.027l-0.247,0.027h-0.027l-0.247,0.055l0,0l-0.275,0.055l0,0l-0.275,0.057l0,0l-0.55,0.054l0,0l-0.275,0.056    l0,0l-0.55,0.055l0,0h-0.275l0,0l-0.273,0.027l0,0l-0.303,0.027l0,0h-0.275l-0.275,0.027h-0.274h-0.303h-0.274h-0.275    l-0.303-0.027h-0.275l0,0l-0.274-0.027l0,0l-0.275-0.027l0,0h-0.274l0,0l-0.551-0.055h-0.027l-0.248-0.056h-0.027l-0.521-0.054    h-0.027l-0.248-0.057l0,0l-0.274-0.055l0,0l-0.276-0.055l0,0l-0.273-0.027l0,0l-0.248-0.056h-0.027l-0.248-0.083l0,0l-0.274-0.054    l0,0l-0.247-0.056h-0.027l-0.249-0.082l0,0l-0.247-0.082h-0.027l-0.248-0.056l0,0l-0.246-0.083h-0.027l-0.496-0.164l0,0    l-0.248-0.083c-3.135-1.099-5.939-2.888-8.248-5.196c-0.495-0.496-0.963-1.018-1.403-1.541l-0.027-0.027l-0.165-0.221l0,0    l-0.055-0.054l-0.055-0.056l-0.028-0.055l-0.027-0.027l-0.026-0.056l-0.139-0.165l0,0l-0.138-0.191l-0.026-0.028l-0.029-0.027    l-0.054-0.056l-0.028-0.082l-0.027-0.027l-0.027-0.027l-0.027-0.055l-0.055-0.083l-0.082-0.109l-0.056-0.056l-0.056-0.082v-0.027    l-0.027-0.028l-0.055-0.054l-0.027-0.083L319,145.84l0,0l-0.083-0.137l-0.054-0.056v-0.027l-0.029-0.027l-0.055-0.083    l-0.027-0.055l-0.027-0.055h-0.027l-0.027-0.083l-0.056-0.054l-0.274,0.439l-0.056,0.082l-0.026,0.055h-0.027l-0.028,0.056    l-0.055,0.083l-0.028,0.054l-0.027,0.028l-0.027,0.027l-0.027,0.082l-0.055,0.056l-0.027,0.054h-0.027l-0.027,0.056l-0.056,0.083    l-0.056,0.055v0.027l-0.082,0.109l-0.027,0.056l-0.055,0.056l0,0l-0.056,0.055l-0.054,0.082l-0.029,0.055h-0.026l-0.027,0.056    l-0.056,0.056l-0.027,0.054l-0.027,0.056l-0.027,0.027l-0.056,0.055l-0.054,0.056l-0.028,0.054l0,0l-0.055,0.056l-0.056,0.056    l-0.055,0.082v0.027l-0.027,0.027l-0.055,0.055l-0.055,0.056l-0.056,0.055l0,0l-0.056,0.056l-0.027,0.082l-0.055,0.055h-0.027    l-0.027,0.056l-0.055,0.055l-0.056,0.056l-0.026,0.055h-0.029l-0.027,0.055l-0.055,0.055l-0.055,0.056l-0.027,0.027l-0.027,0.026    l-0.056,0.056l-0.054,0.056l-0.028,0.055l-0.027,0.027l-0.056,0.055l-0.055,0.055l-0.027,0.056h-0.027l-0.082,0.083v0.027    l-0.056,0.055l-0.027,0.027l-0.027,0.027l-0.056,0.055l-0.055,0.056l-0.055,0.056l-0.193,0.164l-0.191,0.192l-0.193,0.192    l-0.191,0.165l0,0l-0.192,0.192l0,0l-0.413,0.33l0,0l-0.385,0.33h-0.027c-1.348,1.101-2.859,2.063-4.482,2.805l0,0l-0.248,0.11    l0,0l-0.248,0.11l0,0l-0.467,0.219h-0.027l-0.495,0.193l0,0l-0.247,0.082l0,0l-0.248,0.11l0,0l-0.247,0.083h-0.028l-0.247,0.082    l0,0l-0.248,0.082l0,0l-0.247,0.083h-0.027l-0.247,0.056l0,0l-0.248,0.082h-0.027l-0.248,0.082l0,0l-0.274,0.056l0,0l-0.247,0.054    l0,0l-0.275,0.083l0,0l-0.275,0.056l0,0l-0.247,0.027h-0.027l-0.248,0.055l0,0l-0.274,0.055l0,0l-0.274,0.057l0,0l-0.276,0.026    l0,0l-0.274,0.027l0,0l-0.275,0.056l0,0l-0.274,0.027l-0.274,0.027l0,0h-0.275l0,0l-0.275,0.027H301.4l-0.275,0.027h-0.274    l-0.275,0.027h-0.303h-0.274h-0.274l0,0h-0.275l0,0l-0.275-0.027h-0.027h-0.248h-0.027l-0.247-0.027h-0.028l-0.247-0.027h-0.027    h-0.247h-0.056l-0.219-0.027l-0.276-0.027h-0.055l-0.22-0.027l-0.055-0.028l-0.221-0.027h-0.055l-0.22-0.026h-0.056l-0.191-0.057    h-0.083l-0.193-0.027l-0.274-0.055l-0.055-0.027l-0.192-0.027l-0.523-0.109l-0.109-0.029l-0.165-0.026l-0.082-0.027l-0.165-0.056    h-0.109l-0.166-0.055l-0.083-0.027l-0.165-0.055c-3.684-1.018-6.983-2.971-9.624-5.609v-0.028l-0.055-0.055l-0.056-0.028    l-0.054-0.082h-0.028l-0.027-0.055l-0.109-0.083l-0.056-0.055v-0.028l-0.056-0.055l-0.054-0.055l-0.056-0.055l0,0l-0.055-0.055    l-0.055-0.056l-0.303-0.329l-0.056-0.056l-0.027-0.055l-0.027-0.028l-0.027-0.027l-0.056-0.082l-0.054-0.055l-0.056-0.056l0,0    l-0.056-0.055l-0.027-0.056l-0.055-0.055l-0.027-0.027l-0.027-0.027l-0.055-0.082l-0.027-0.056l-0.056-0.026v-0.029l-0.055-0.054    l-0.055-0.056l-0.028-0.055l-0.027-0.027l-0.028-0.056l-0.054-0.054l-0.056-0.056l-0.027-0.027v-0.028l-0.055-0.055l-0.056-0.082    l-0.027-0.055l0,0l-0.055-0.056l-0.055-0.056l-0.028-0.082l-0.027-0.027l-0.026-0.027l-0.056-0.055l-0.027-0.056l-0.056-0.054    v-0.029l-0.026-0.054l-0.056-0.056l-0.056-0.082l0,0l-0.026-0.056l-0.056-0.054l-0.027-0.056l-0.056-0.056v-0.027l-0.054-0.055    l-0.028-0.055l-0.056-0.083l0,0l-0.026-0.055l-0.056-0.056l-0.027-0.082l-0.027-0.027l-0.027-0.027l-0.027-0.083l-0.056-0.054    l-0.33,0.521l-0.054,0.055v0.027l-0.386,0.551l-0.055,0.055v0.027l-0.027,0.027l-0.056,0.082l-0.22,0.303l-0.027,0.028    l-0.221,0.274l-0.054,0.056l-0.083,0.109l-0.056,0.083l-0.247,0.274l0,0l-0.055,0.056l-0.056,0.082l-0.027,0.055l-0.027,0.027    l-0.028,0.028l-0.412,0.439l-0.054,0.056l-0.028,0.055l-0.027,0.027l-0.056,0.055l-0.054,0.055l-0.056,0.056l0,0l-0.027,0.055    l-0.11,0.11l-0.027,0.027l-0.027,0.027l-0.055,0.055l-0.056,0.056l-0.056,0.056l0,0l-0.054,0.027    c-2.311,2.31-5.171,4.097-8.333,5.197l-0.109,0.055l-0.385,0.109l-0.138,0.055l-0.11,0.028l-0.138,0.055l-0.138,0.028    l-0.247,0.082l-0.137,0.027l-0.111,0.027l-0.164,0.055h-0.11l-0.412,0.109l-0.11,0.029l-0.165,0.054h-0.083l-0.191,0.056h-0.083    l-0.165,0.027l-0.082,0.027l-0.193,0.027l-0.082,0.027l-0.192,0.027h-0.082l-0.192,0.057h-0.056h-0.082l-0.192,0.026l-0.221,0.027    l-0.055,0.028l-0.221,0.027h-0.054l-0.221,0.027h-0.055l-0.22,0.027h-0.056h-0.22h-0.027l-0.247,0.027h-0.028l-0.274,0.027l0,0    h-0.275l0,0l-0.275,0.027h-0.027h-0.247h-0.028h-0.274h-0.275h-0.274l-0.303-0.027h-0.274l0,0l-0.275-0.027l0,0l-0.275-0.027l0,0    h-0.274l0,0l-0.578-0.055l0,0l-0.247-0.056h-0.027l-0.522-0.054h-0.027l-0.248-0.057h-0.027l-0.247-0.055l0,0l-0.275-0.055l0,0    l-0.274-0.027l0,0l-0.248-0.056h-0.027l-0.248-0.083l0,0l-0.274-0.054l0,0l-0.247-0.056h-0.027l-0.248-0.082l0,0l-0.248-0.082    h-0.027l-0.248-0.056l0,0l-0.247-0.083h-0.027l-0.496-0.164l0,0l-0.248-0.083l-0.522-0.192l0,0    c-0.413-0.164-0.825-0.33-1.238-0.522l0,0c-0.413-0.165-0.798-0.384-1.182-0.577l0,0c-1.953-1.018-3.74-2.338-5.307-3.904    l-0.385-0.414l-0.055-0.055l-0.055-0.055l-0.193-0.221l-0.027-0.026l-0.028-0.027l-0.11-0.11l-0.055-0.055l0,0l-0.054-0.055    l-0.055-0.056l-0.027-0.083l-0.028-0.027l-0.027-0.027l-0.056-0.055l-0.054-0.055l-0.028-0.056h-0.027l-0.055-0.055l-0.027-0.056    l-0.11-0.137l-0.055-0.055l-0.027-0.056l-0.055-0.056l0,0l-0.055-0.082c-0.468-0.577-0.907-1.182-1.292-1.787l-0.055-0.055    l-0.083-0.137c-0.88,1.401-1.897,2.666-3.052,3.85c-2.667,2.667-6.05,4.646-9.789,5.664h-0.028l-0.248,0.082l0,0l-0.248,0.056    h-0.027l-0.248,0.054l0,0l-0.275,0.083l0,0l-0.248,0.056h-0.027l-0.247,0.027h-0.027l-0.249,0.055h-0.027l-0.248,0.055l0,0    l-0.275,0.057l0,0l-0.55,0.054l0,0l-0.275,0.056l0,0l-0.275,0.027l0,0l-0.275,0.027l0,0h-0.274l0,0l-0.275,0.027l0,0l-0.303,0.027    l0,0h-0.275l0,0l-0.274,0.027h-0.275h-0.303h-0.275l0,0h-0.274l0,0l-0.275-0.027h-0.028h-0.248h-0.027l-0.247-0.027h-0.028    l-0.248-0.027h-0.027h-0.248h-0.027l-0.248-0.027h-0.028l-0.248-0.027h-0.027l-0.248-0.027l-0.028-0.028l-0.219-0.027h-0.055    l-0.22-0.026h-0.055l-0.22-0.057h-0.055l-0.22-0.027l-0.054-0.027l-0.193-0.027l-0.083-0.027l-0.192-0.027h-0.083l-0.193-0.056    h-0.054l-0.193-0.054l-0.083-0.029l-0.192-0.026l-0.083-0.027l-0.165-0.056h-0.083l-0.165-0.055l-0.11-0.027l-0.165-0.027    l-0.083-0.055l-0.165-0.027l-0.109-0.028l-0.138-0.055l-0.11-0.028l-0.138-0.055l-0.138-0.027l-0.137-0.055l-0.111-0.027    l-0.137-0.055l-0.111-0.028l-0.137-0.054l-0.11-0.057l-0.138-0.027l-0.137-0.055l-0.11-0.055l-0.137-0.056l-0.111-0.027    l-0.137-0.056l-0.11-0.054l-0.137-0.056l-0.083-0.055l-0.165-0.055l-0.083-0.055l-0.248-0.083l-0.137-0.083l-0.083-0.055    l-0.165-0.055l-0.083-0.055l-0.166-0.056l-0.083-0.054l-0.137-0.083l-0.083-0.028l-0.165-0.082l-0.056-0.027l-0.192-0.111    L215,152.852l-0.165-0.082l-0.055-0.055l-0.192-0.083l-0.028-0.026l-0.192-0.11l-0.055-0.028l-0.165-0.109l-0.054-0.027    l-0.385-0.247l-0.055-0.028l-0.165-0.138h-0.055l-0.192-0.137v-0.028l-0.192-0.109l-0.028-0.027l-0.192-0.138H212.8l-0.193-0.138    l-0.027-0.027l-0.385-0.303h-0.027l-0.193-0.165l0,0l-0.219-0.165l-0.193-0.164l0,0l-0.192-0.166l0,0l-0.193-0.164h-0.027    l-0.165-0.166l-0.027-0.027l-0.165-0.137l-0.028-0.028l-0.165-0.165h-0.027l-0.165-0.165l-0.028-0.027l-0.165-0.165l-0.027-0.027    l-0.192-0.164C208.813,147.93,207.795,146.665,206.915,145.264z M173.449,136.931L173.449,136.931l0.028,0.138v0.055l0.027,0.055    l0.027,0.111v0.027l0.055,0.137v0.027l0.027,0.109l0.028,0.056v0.083l0.027,0.109h0.027l0.028,0.138v0.027l0.027,0.11l0.027,0.082    l0.028,0.027l0.027,0.139l0,0l0.055,0.137l0.027,0.055l0.027,0.082l0.028,0.083v0.028l0.109,0.247l0.027,0.055l0.028,0.082    l0.137,0.386l0.028,0.055l0.027,0.056l0.33,0.742l0.028,0.027c0.742,1.457,1.705,2.777,2.832,3.933    c1.292,1.292,2.833,2.337,4.51,3.107l0,0l0.357,0.137l0,0l0.165,0.082l0,0l0.33,0.139l0,0l0.358,0.137l0,0l0.357,0.11l0,0    l0.165,0.056l0,0l0.193,0.055l0.192,0.055l0,0l0.165,0.055l0,0l0.193,0.056l0,0l0.165,0.027h0.027l0.165,0.056l0,0l0.192,0.026    l0,0l0.358,0.083l0.192,0.027l0.193,0.027v0.027l0.192,0.027l0,0l0.193,0.027h0.192l0,0l0.192,0.027l0,0l0.193,0.027l0,0    l0.192,0.028h0.192l0.193,0.027h0.192l0,0l0.193,0.027h0.192h0.192h0.193c4.207,0,8.03-1.705,10.779-4.454    c0.303-0.33,0.604-0.633,0.907-0.99l0.055-0.082h0.027l0.083-0.111l0.028-0.027l0.055-0.082l0.165-0.191l0,0l0.138-0.221    l0.055-0.055l0.027-0.055l0.083-0.111l0,0l0.083-0.109l0.027-0.027l0.055-0.083l0.027-0.055l0.028-0.056l0.165-0.22v-0.027    l0.055-0.082l0.055-0.056l0.028-0.055l0.055-0.11l0,0l0.083-0.109l0.028-0.028l0.055-0.082l0.028-0.082l0.027-0.055l0.055-0.111    l0,0l0.083-0.109v-0.027l0.054-0.082l0.055-0.082v-0.029l0.056-0.137h0.027l0.056-0.11l0.027-0.026l0.027-0.083l0.028-0.083    l0.027-0.055l0.055-0.109l0,0l0.056-0.139l0.027-0.027l0.027-0.082l0.055-0.082v-0.056l0.055-0.109l0,0l0.055-0.11l0.028-0.055    l0.027-0.082l0.027-0.083l0.028-0.028l0.055-0.138l0,0l0.055-0.137v-0.028l0.027-0.082l0.028-0.082l0.027-0.055l0.055-0.111l0,0    l0.027-0.137l0.027-0.055l0.028-0.082l0.027-0.083l0.027-0.056l0.028-0.109l0,0l0.027-0.138l0.027-0.027l0.028-0.11l0.027-0.082    v-0.027l0.056-0.139l0,0l0.027-0.137v-0.027l0.027-0.109l0.028-0.083v-0.056l0.056-0.109l0,0l0.027-0.138H173.449z     M148.948,148.645l0.193,0.027h0.192l0.193,0.027l0.192,0.028h0.138l1.21,0.055h0.192h0.22h0.192l0.193-0.027l0,0h0.192    l0.193-0.027h0.192l0.192-0.028l0,0l0.193-0.027l0,0l0.192-0.027l0,0h0.192l0.193-0.027l0,0l0.192-0.027v-0.027l0.165-0.027    l0.193-0.027l0.385-0.083l0,0l0.165-0.026l0,0l0.192-0.056l0,0l0.192-0.027l0,0l0.165-0.056l0,0l0.193-0.055l0,0l0.165-0.055    h0.027l0.33-0.11h0.028l0.33-0.11h0.027l0.33-0.137l0,0l0.358-0.139l0,0l0.165-0.082l0,0l0.33-0.137h0.027    c1.678-0.771,3.19-1.843,4.482-3.107c0.743-0.742,1.43-1.596,2.008-2.476l0.027-0.027l0.028-0.082l0.165-0.221l0,0l0.247-0.468    l0,0l0.11-0.164l0.027-0.055l0.358-0.715l0.027-0.028l0.027-0.11l0.028-0.055l0.083-0.165v-0.027l0.055-0.109l0.027-0.028    l0.027-0.082l0.028-0.083l0.027-0.054l0.056-0.111l0,0l0.054-0.138v-0.026l0.055-0.11l0.027-0.083l0.028-0.027l0.027-0.137l0,0    l0.055-0.111v-0.054l0.027-0.083l0.027-0.082l0.028-0.055l0.055-0.139l0.028-0.109l0.027-0.055l0.027-0.083l0.028-0.083v-0.055    l0.027-0.109v-0.027l0.055-0.111v-0.054l0.027-0.083l0.027-0.11v-0.026l0.028-0.139h0.027l0.027-0.109v-0.082l0.028-0.056h-29.562    c0.633,2.86,2.063,5.444,4.042,7.425C142.65,146.609,145.621,148.178,148.948,148.645z M139.791,71.786h29.808h37.233h0.083h0.082    h37.068h0.083h0.083h37.068h0.082h0.083h37.067h0.083h0.083h37.15h0.083h21.696h0.082h8.195v-6.38h-5.362H145.181h-5.39V71.786z     M195.228,291.968h149.098c1.869,0,3.382,1.54,3.382,3.382v36.326c0,1.87-1.513,3.383-3.382,3.383H198.501v32.943    c0,1.869-1.513,3.382-3.382,3.382H158.82c-1.87,0-3.382-1.513-3.382-3.382v-36.243v-0.083v-0.083V295.35    c0-1.842,1.513-3.382,3.382-3.382h36.216h0.083H195.228z M136.711,245.386h7.81v-37.344h-42.403v193.123h327.509V208.042h-48.425    v37.344h7.81c1.869,0,3.381,1.513,3.381,3.382v10.174v0.083v0.083v10.174c0,1.843-1.512,3.383-3.381,3.383    c-1.871,0-3.383-1.54-3.383-3.383v-6.875H140.093v6.875c0,1.843-1.512,3.383-3.382,3.383c-1.87,0-3.382-1.54-3.382-3.383v-10.174    v-0.083v-0.083v-10.174C133.329,246.898,134.841,245.386,136.711,245.386z M385.629,250.361h-7.81H147.902h-7.809v5.281h245.536    V250.361z M191.764,298.732h-29.562v29.562h29.562V298.732z M162.202,364.619h29.562v-29.561h-29.562V364.619z M340.943,298.732    H198.501v29.562h142.442V298.732z M269.364,424.319c-0.88-0.908-2.146-1.458-3.52-1.458c-1.375,0-2.612,0.55-3.492,1.458    c-0.908,0.879-1.457,2.117-1.457,3.492c0,1.374,0.549,2.64,1.457,3.52c0.88,0.907,2.117,1.457,3.492,1.457    c1.374,0,2.64-0.577,3.52-1.457s1.457-2.146,1.457-3.52C270.821,426.437,270.244,425.198,269.364,424.319z M185.273,183.459    h-10.889v10.916h10.889V183.459z M202.955,183.459h-10.917v10.916h10.917V183.459z M174.384,212.057h10.889v-10.916h-10.889    V212.057z M192.038,212.057h10.917v-10.916h-10.917V212.057z M333.739,183.459h-10.917v10.916h10.917V183.459z M351.42,183.459    h-10.916v10.916h10.916V183.459z M322.822,212.057h10.917v-10.916h-10.917V212.057z M340.504,212.057h10.916v-10.916h-10.916    V212.057z M173.064,78.551v51.615h30.469V78.551H173.064z M166.299,130.166V78.551H150.68l-13.667,51.615H166.299z     M240.766,130.166V78.551h-30.469v51.615H240.766z M277.999,130.166V78.551H247.53v51.615H277.999z M315.232,130.166V78.551    h-30.469v51.615H315.232z M352.465,130.166V78.551h-30.467v51.615H352.465z M359.23,78.551v51.615h29.478l-13.666-51.615H359.23z     M319.962,45.415H205.76h-0.192h-56.922v13.228h228.431V45.415h-56.921H319.962z M209.143,45.415H316.58V26.002H209.143V45.415z     M319.164,387.031c-1.869,0-3.382-1.514-3.382-3.383s1.513-3.383,3.382-3.383h81.012c1.87,0,3.383,1.514,3.383,3.383    s-1.513,3.383-3.383,3.383H319.164z M319.164,372.512c-1.869,0-3.382-1.541-3.382-3.383c0-1.87,1.513-3.383,3.382-3.383h81.012    c1.87,0,3.383,1.513,3.383,3.383c0,1.842-1.513,3.383-3.383,3.383H319.164z M403.146,177.49c-1.871,0-3.383-1.512-3.383-3.382    s1.512-3.382,3.383-3.382h56.426c1.87,0,3.383,1.512,3.383,3.382v99.463c0,1.87-1.513,3.382-3.383,3.382    c-1.843,0-3.354-1.512-3.354-3.382V177.49H403.146z M60.018,327.964c0-1.87,1.512-3.383,3.382-3.383    c1.87,0,3.382,1.513,3.382,3.383v60.909c0,1.869-1.513,3.383-3.382,3.383H37.716v34.043c0,1.87-1.513,3.382-3.382,3.382    c-1.843,0-3.382-1.512-3.382-3.382v-37.426c0-1.871,1.54-3.383,3.382-3.383h25.684V327.964z M50.667,471.094    c-1.87,0-3.382-1.54-3.382-3.382c0-1.87,1.513-3.383,3.382-3.383h290.991c1.87,0,3.383,1.513,3.383,3.383    c0,1.842-1.513,3.382-3.383,3.382H50.667z M221.049,485.999c-1.842,0-3.355-1.541-3.355-3.384c0-1.869,1.513-3.381,3.355-3.381    h201.373c1.871,0,3.382,1.512,3.382,3.381c0,1.843-1.511,3.384-3.382,3.384H221.049z M443.046,485.999    c-1.869,0-3.382-1.541-3.382-3.384c0-1.869,1.513-3.381,3.382-3.381h25.161c1.871,0,3.384,1.512,3.384,3.381    c0,1.843-1.513,3.384-3.384,3.384H443.046z M39.201,485.531c-1.871,0-3.382-1.513-3.382-3.383s1.512-3.382,3.382-3.382h95.42    c1.87,0,3.382,1.512,3.382,3.382s-1.512,3.383-3.382,3.383H39.201z M265.845,407.93H98.625H78.964H50.667v19.909    c0,5.444,2.255,10.422,5.857,14.024c3.575,3.603,8.552,5.857,14.025,5.857h390.617c5.445,0,10.424-2.255,14.026-5.857    c3.628-3.575,5.855-8.553,5.855-14.024V407.93h-28.296h-19.662H265.845z" style="fill-rule:evenodd;clip-rule:evenodd;"/>
</g>
</g>
<g id="Layer_1"/>
</svg>